<svg xmlns="http://www.w3.org/2000/svg" width="120" height="120" viewBox="0 0 120 120">
    <g fill="none" fill-rule="evenodd">
        <rect width="49" height="64" x="35.5" y="28.5" stroke="#45597E" stroke-width="3" rx="4"/>
        <circle cx="60" cy="60" r="58" stroke="#45597E" stroke-width="4"/>
        <path fill="#45597E" fill-rule="nonzero" d="M65.5 71c-2.596 0-4.5 2.077-4.5 4.5s2.077 4.5 4.5 4.5 4.5-2.077 4.5-4.5-1.904-4.5-4.5-4.5zm0 6.577a1.92 1.92 0 0 1-1.904-1.904A1.92 1.92 0 0 1 65.5 73.77a1.92 1.92 0 0 1 1.904 1.904c.173.865-.692 1.904-1.904 1.904zM58 63.5c0-2.596-2.077-4.5-4.5-4.5-2.596 0-4.5 2.077-4.5 4.5 0 2.596 2.077 4.5 4.5 4.5s4.5-2.077 4.5-4.5zm-6.577 0a1.92 1.92 0 0 1 1.904-1.904A1.92 1.92 0 0 1 55.23 63.5a1.92 1.92 0 0 1-1.904 1.904 1.92 1.92 0 0 1-1.904-1.904z"/>
        <rect width="31" height="9" x="44.5" y="41.5" stroke="#45597E" stroke-width="3" rx="1"/>
        <path stroke="#45597E" stroke-linecap="round" stroke-width="3" d="M53 76l14-14"/>
    </g>
</svg>
