<svg xmlns="http://www.w3.org/2000/svg" width="140" height="121" viewBox="0 0 140 121">
    <g fill="none" fill-rule="evenodd">
        <path fill="#F0EDDF" d="M105.907 32.222C50.944 17.46 63.777 6.42 50.556 1.926 14.519-10.142-1.426 39.283 14.389 79.978c19.315 49.938 58.333 42.878 90.352 34.02 46.407-12.966 36.555-72.276 1.166-81.776z"/>
        <path fill="#6A6079" d="M108.241 42.878h25.537v33.634h-25.537z"/>
        <path fill="#EBB382" d="M100.074 47.242l12.963 12.453v16.817H87.5V59.695z"/>
        <path fill="#FFF" d="M95.796 61.492h7.126v7.057h-7.126z"/>
        <path fill="#847C90" d="M96.833 62.519h2.074v1.926h-2.074v-1.926zm0 2.953h2.074v1.925h-2.074v-1.925zm2.982 0h2.074v1.925h-2.074v-1.925zm0-2.953h2.074v1.926h-2.074v-1.926z"/>
        <path fill="#F0EDDF" d="M115.76 42.878H84.777l15.296-15.149z"/>
        <path fill="#EBB382" d="M100.074 30.425l12.963 12.453v16.817H87.5V42.878z"/>
        <path fill="#FFF" d="M95.796 44.675h7.126v7.057h-7.126z"/>
        <path fill="#847C90" d="M96.833 45.702h2.074v2.054h-2.074v-2.054zm0 2.952h2.074v2.054h-2.074v-2.054zm2.982 0h2.074v2.054h-2.074v-2.054zm0-2.952h2.074v2.054h-2.074v-2.054z"/>
        <path fill="#6A6079" d="M121.204 27.73L136.5 42.877h-21.26l-15.166-15.149z"/>
        <path fill="#8AB879" fill-opacity=".98" d="M65.074 2.953c15.945 1.54 8.037 10.141 17.111 11.553 10.37 1.541 15.426 10.27 8.685 18.23-5.314 6.162 4.926 7.317 1.297 18.871-1.297 4.108-9.593 6.419-13.093 10.398-6.352 7.318-10.5 10.399-18.018 4.622-4.926-3.723-1.945-8.216-7.13-13.736-1.685-1.926-14-8.216-9.722-21.567 2.463-7.574 9.203-2.568 8.296-10.27-1.167-8.73 4.278-18.872 12.574-18.101z"/>
        <path fill="#6B6273" fill-rule="nonzero" d="M64.296 87.296l1.167-35.175c-2.074-2.054-17.111-15.534-15.944-16.433.907-.77 14 10.912 15.944 12.966l.389-10.27c-1.815-1.54-11.278-10.27-10.37-11.04.648-.77 8.944 6.29 10.37 7.446 0-2.953.778-14.507 1.685-14.378 1.815-.129 3.24 23.62 3.24 28.114C72.334 46.857 83.482 36.844 84 37.486c1.815 1.669-11.278 13.48-13.222 15.533v34.277h-6.482z"/>
        <path fill="#E3DEC7" d="M85.296 18.614c-1.555-1.283-3.5 2.825-3.24 4.75.13 1.67 3.11 4.622 4.018 3.21 1.426-2.183 1.296-6.29-.778-7.96zm-23.074-8.087c1.426-2.44 6.352-3.21 8.297-1.284 1.685 1.54-1.167 5.392-3.37 5.777-2.205.385-5.964-2.568-4.927-4.493zm13.482 20.668c2.852-.385 1.815-5.777.518-8.216-.778-1.283-4.666-.898-4.796.642-.13 2.824 1.426 7.96 4.278 7.574z"/>
        <path fill="#F0EDDF" d="M71.167 64.316h-42.26l20.87-20.668z"/>
        <path fill="#DB8A81" d="M49.778 47.37l17.759 16.946v22.98h-34.87v-22.98z"/>
        <path fill="#6A6079" d="M3.889 64.316h28.778v22.851H3.889z"/>
        <path fill="#3A2448" d="M11.278 69.195h10.419v18.02H11.278z"/>
        <path fill="#6A6079" d="M20.74 43.648L0 64.316h28.907l20.87-20.668z"/>
        <path fill="#FFF" d="M43.944 66.755h9.717v9.623h-9.717z"/>
        <path fill="#847C90" d="M45.5 68.168h2.722v2.695H45.5v-2.695zm0 4.108h2.722v2.695H45.5v-2.695zm4.019 0h2.722v2.695h-2.722v-2.695zm0-4.108h2.722v2.695h-2.722v-2.695z"/>
        <path fill="#8CBA7C" d="M13.222 82.802c-5.444-2.054-7.13 2.054-5.963 5.392 4.537 12.067 26.315 10.142 30.334 0 1.037-2.182-.13-4.365-2.593-3.98.26-3.08-.778-4.364-3.5-3.594 1.944-3.081-1.037-5.52-3.37-3.851-1.815-3.081-7.39-3.081-8.167 1.027-4.148-1.926-7.907 1.027-6.74 5.006z"/>
        <g fill="#E3DEC7" transform="translate(10.76 77.41)">
            <ellipse cx="10.241" cy="7.061" rx="1.167" ry="1.155"/>
            <ellipse cx="15.556" cy="1.155" rx="1.167" ry="1.155"/>
            <ellipse cx="20.093" cy="8.986" rx="1.167" ry="1.155"/>
            <ellipse cx="1.167" cy="8.473" rx="1.167" ry="1.155"/>
        </g>
        <path fill="#6B6273" fill-rule="nonzero" d="M21.907 85.755c0-.128.13-.385.39-.385.259 0 .388.257.388.385l.13 3.466v3.595l3.63-2.568-.26-2.696c0-.256.13-.385.39-.385.258-.128.388.129.388.385l.26 2.054 2.721-1.925c.13-.129.39-.129.519.128.13.128.13.385 0 .514L27.87 90.12l2.334.513c.259 0 .389.257.389.385-.13.257-.26.386-.519.386l-3.111-.514-4.148 2.953.13 4.493c0 .257-.26.385-.39.385-.259.128-.518-.128-.518-.385v-4.493l-4.148-2.44-2.593-1.412c-.259-.128-.259-.385-.13-.641.13-.129.39-.257.52-.129l1.684.899-.518-1.412c0-.257.13-.514.26-.514.258-.128.518 0 .518.257l.777 2.31 3.63 2.183-.13-3.466-2.722-2.44a.388.388 0 0 1 0-.513c.13-.256.39-.256.648-.128l2.074 1.926v-2.568z"/>
        <path fill="#7786A5" d="M78.944 94.741h31.241v24.905H78.944z"/>
        <path fill="#6A6079" d="M91.13 72.276l22.555 22.465h-31.37L59.759 72.276z"/>
        <path fill="#F0EDDF" d="M82.963 94.741H37.074L59.76 72.276z"/>
        <path fill="#8C9DC8" d="M59.76 76.255l19.184 18.486v24.777H41.222V94.74z"/>
        <path fill="#FFF" d="M53.407 97.309h10.547v10.445H53.407z"/>
        <path fill="#847C90" d="M54.963 98.85h2.981v2.952h-2.981v-2.953zm0 4.492h2.981v2.825h-2.981v-2.825zm4.537 0h2.852v2.825H59.5v-2.825zm0-4.493h2.852v2.953H59.5v-2.953z"/>
        <path fill="#468572" d="M108.111 71.249c-4.537-.9-7.13.385-6.352 5.263h32.019c1.296-5.007-.778-6.419-5.574-4.878-2.334-4.622-5.574-5.649-9.982-1.67-4.278-2.952-7.778-2.567-10.11 1.285z"/>
        <path fill="#28394B" d="M123.926 76.512H122.5v-9.756h1.426v1.54h1.426v-1.54h1.296v1.54h1.426v-1.54h1.296v1.54h1.426v-1.54h1.426v1.54h1.297v-1.54h1.425v1.54h1.297v-1.54h1.426v1.54h1.296v-1.54H140v9.756h-1.037v-.899h-1.296v.899h-1.426v-.899h-1.297v.899h-1.425v-.899h-1.297v.899h-1.426v-.899h-1.426v.899h-1.296v-.899h-1.426v.899h-1.296v-.899h-1.426v.899zm15.037-1.797v-5.649h-1.296v5.649h1.296zm-2.722 0v-5.649h-1.297v5.649h1.297zm-2.722 0v-5.649h-1.297v5.649h1.297zm-2.723 0v-5.649h-1.426v5.649h1.426zm-2.722 0v-5.649h-1.426v5.649h1.426zm-2.722 0v-5.649h-1.426v5.649h1.426z"/>
        <path fill="#3A2448" d="M71.296 109.248h.908v-1.797h1.685v1.797h1.815v-1.797h1.685v1.797h1.685v-1.797h1.685v1.797h1.685v-1.797h1.686v1.797h1.814v-1.797h1.686v1.797h1.685v-1.797H91v1.797h1.685v-1.797h1.685v1.797h1.815v-1.797h1.685v1.797h1.686v-1.797h1.685v1.797h1.685v-1.797h1.815v1.797h1.685v-1.797h1.685v1.797h1.685v-1.797h1.685v1.797h1.686v-1.797h1.814v1.797h1.686v-1.797h1.685v1.797h1.685v-1.797h1.685V119.518h-1.685v-1.027h-1.685v1.027h-1.685v-1.027h-1.686v1.027h-1.814v-1.027h-1.686v1.027h-1.685v-1.027h-1.685v1.027h-1.685v-1.027h-1.685v1.027h-1.815v-1.027h-1.685v1.027h-1.685v-1.027H97.87v1.027h-1.685v-1.027H94.37v1.027h-1.685v-1.027H91v1.027h-1.685v-1.027H87.63v1.027h-1.686v-1.027H84.13v1.027h-1.686v-1.027H80.76v1.027h-1.685v-1.027H77.39v1.027h-1.685v-1.027h-1.815v1.027h-1.685v-1.027h-.908v-1.027h.908v-7.19h-.908v-1.026zm48.741 8.216v-7.19h-1.685v7.19h1.685zm-3.37 0v-7.19h-1.686v7.19h1.686zm-3.5 0v-7.19h-1.686v7.19h1.686zm-3.37 0v-7.19h-1.686v7.19h1.685zm-3.371 0v-7.19h-1.685v7.19h1.685zm-3.5 0v-7.19h-1.685v7.19h1.685zm-3.37 0v-7.19H97.87v7.19h1.686zm-3.37 0v-7.19H94.37v7.19h1.815zm-3.5 0v-7.19H91v7.19h1.685zm-3.371 0v-7.19H87.63v7.19h1.685zm-3.37 0v-7.19H84.13v7.19h1.814zm-3.5 0v-7.19h-1.686v7.19h1.685zm-3.37 0v-7.19h-1.686v7.19h1.685zm-3.371 0v-7.19h-1.815v7.19h1.815z"/>
    </g>
</svg>
