<svg xmlns="http://www.w3.org/2000/svg" width="139" height="100" viewBox="0 0 139 100">
    <g fill="none" fill-rule="evenodd">
        <path fill="#F0EDDF" d="M91.355 6.762C38.54 14.902 45.362.626 32.221 1.753-3.16 5.01-12.89 79.52 21.48 90.54c41.697 13.274 78.846 11.896 102.853-7.89 34.622-28.552.758-81.022-32.979-75.888z"/>
        <path fill="#46587E" d="M54.838 74.01c16.048-4.258 16.048 3.255 16.427 10.519H4.296c-5.307-2.88-6.191-5.886 1.137-9.267-.631-6.762 1.896-9.768 8.087-8.14-2.653-9.016-1.516-13.525 7.834-8.515 7.834-7.138 14.152-7.138 18.448 2.128 14.278-3.13 15.542 4.383 15.036 13.275z"/>
        <path fill="#F0EDDF" d="M116.121 52.22H56.607l29.315-29.178z"/>
        <path fill="#EDB483" d="M86.048 28.176L110.94 52.22v32.309H61.788v-32.31z"/>
        <path fill="#DB8A81" d="M21.354 52.22h40.56v32.309h-40.56z"/>
        <path fill="#818BA4" d="M31.589 59.107h14.657v25.421H31.589z"/>
        <path fill="#46587E" d="M45.109 23.042L15.794 52.22h40.813l29.315-29.178z"/>
        <path fill="#88B777" d="M26.787 82.776c-12.256-3.131-12.256 2.63-12.509 8.14h51.048c4.043-2.255 4.675-4.509-.885-7.013.38-5.26-1.39-7.514-6.19-6.262 2.02-6.887 1.136-10.394-5.94-6.512-5.938-5.51-10.74-5.384-14.152 1.628-10.866-2.379-11.75 3.256-11.372 10.019z"/>
        <g fill="#E3DEC7" transform="translate(20.217 69)">
            <ellipse cx="17.816" cy="12.147" rx="2.148" ry="2.129"/>
            <ellipse cx="27.04" cy="2.129" rx="2.148" ry="2.129"/>
            <ellipse cx="34.874" cy="15.528" rx="2.148" ry="2.129"/>
            <ellipse cx="2.148" cy="14.652" rx="2.148" ry="2.129"/>
        </g>
        <path fill="#88B777" fill-opacity=".98" d="M110.309.125c15.92 1.503 7.96 10.144 16.931 11.521 10.362 1.503 15.29 10.144 8.593 18.033-5.181 6.136 4.927 7.263 1.263 18.784-1.263 4.007-9.477 6.261-12.888 10.269-6.192 7.263-10.488 10.268-17.943 4.633-4.801-3.631-1.895-8.14-6.95-13.65-1.768-1.878-13.898-8.14-9.602-21.414 2.4-7.513 9.097-2.504 8.086-10.268-1.137-8.64 4.297-18.66 12.51-17.908z"/>
        <path fill="#6A617E" fill-rule="nonzero" d="M109.424 83.777l1.264-34.813c-2.022-2.129-16.932-15.528-15.795-16.405.885-.626 13.9 10.895 15.795 12.899l.379-10.144c-1.77-1.628-11.246-10.143-10.235-10.895.632-.751 8.845 6.137 10.235 7.389 0-3.006.758-14.401 1.642-14.276 1.896-.125 3.286 23.292 3.286 27.926 1.516-1.754 12.509-11.772 13.014-11.02 1.77 1.628-11.119 13.399-13.014 15.277v34.062h-6.57z"/>
        <path fill="#E3DEC7" d="M130.273 15.653c-1.39-1.127-3.285 2.88-3.159 4.76.253 1.752 3.033 4.633 4.043 3.255 1.39-2.254 1.264-6.261-.884-8.015zM107.529 7.64c1.39-2.38 6.191-3.13 8.213-1.252 1.643 1.502-1.137 5.384-3.412 5.76-2.148.376-5.938-2.63-4.801-4.508zm13.394 20.537c2.653-.375 1.769-5.76.379-8.14-.759-1.377-4.55-1.001-4.676.627-.126 2.88 1.39 7.889 4.297 7.513z"/>
        <path fill="#468572" d="M111.32 79.394c-4.55-.876-7.076.376-6.318 5.135h31.715c1.39-5.01-.758-6.387-5.56-4.759-2.274-4.633-5.56-5.635-9.729-1.753-4.422-2.88-7.834-2.505-10.108 1.377z"/>
        <path fill="#FFF" d="M77.835 55.601h13.646v13.525H77.835z"/>
        <path fill="#818BA4" d="M79.857 57.73h3.79v3.757h-3.79V57.73zm0 5.635h3.79v3.882h-3.79v-3.882zm5.686 0h3.917v3.882h-3.917v-3.882zm0-5.635h3.917v3.757h-3.917V57.73z"/>
    </g>
</svg>
