<svg xmlns="http://www.w3.org/2000/svg" width="139" height="92" viewBox="0 0 139 92">
    <g fill="none" fill-rule="evenodd">
        <path fill="#F0EDDF" d="M47.902 5.46c52.999 8.596 46.12-6.622 59.242-5.344 35.544 3.369 42.679 71.788 13.759 86.54-17.836 9.177-35.29 2.788-51.597 2.44-19.62-.465-41.405 8.48-54.528-3.02C-20.129 55.758 13.887-.116 47.902 5.46z"/>
        <path fill="#7D6A6A" d="M119.247 51.576c9.555 6.737 10.701 13.358 14.778 20.096H87.396V51.576h31.85z"/>
        <path fill="#468572" d="M104.086 47.278a5.353 5.353 0 0 0 3.058 2.555c1.528-.58 2.42-3.136 2.548-4.878.254-2.672-1.402-5.925-1.657-7.086-.764-2.556-.764-4.182-1.91-4.066-1.53.116-1.912 3.95-2.294 6.04-.255 2.44-.764 5.46.255 7.435z"/>
        <path fill="#8BBA7B" fill-rule="nonzero" d="M106.124 37.404c.128-.116.128-.116.255-.116.128 0 .255.116.255.116-.127.697-.255 1.394-.255 1.975l.51-.465c0-.116.127-.116.255 0 .127.116.127.232 0 .232l-.765.697c0 .581 0 1.162.128 1.627l.764-.697h.382v.348l-1.146.813c0 .813.127 1.627.254 2.324 0 .348.128.697.128.929l.637-.697c.127-.116.255-.116.255-.116.127.116.127.232.127.232l-.892 1.162c.128 1.045.128 2.207.128 3.485 0 .116-.128.232-.255.116-.128 0-.128 0-.128-.116 0-1.743-.127-3.37-.382-4.88v-.348l-1.401-.929v-.232c.127-.117.255-.117.255 0l1.019.58c-.128-.464-.128-.929-.128-1.51l-1.274-1.161c-.127 0-.127-.116 0-.233h.255l.892.814v-1.51l-.764-1.162s0-.116.127-.233c.127 0 .127 0 .255.117l.382.58c0-.58.127-1.161.127-1.742z"/>
        <path fill="#AD9A9A" d="M119.247 51.576H50.833c-1.02-1.046 1.528-4.066 6.624-2.44 1.911-4.414 9.81-4.181 12.486-1.277 4.459-1.975 7.007 1.277 10.574.697 3.95-.814 2.803-1.975 6.88-2.44 2.547-.348 5.223 2.44 11.975 1.743 1.784-.233 8.154-4.53 14.269-.814 4.714-.813 7.134 2.208 5.606 4.53z"/>
        <path fill="#8BBA7B" d="M120.01 41.934c1.148-1.161 2.804-2.555 4.333-2.09 1.91.58 2.038 4.414 1.146 6.388-1.656 3.601-4.459 5.808-5.223 7.086-1.656 2.556-1.656 4.879-2.93 4.414-1.657-.58-1.911-5.227-1.53-7.666.51-2.904 2.294-6.273 4.205-8.132z"/>
        <path fill="#8AB879" fill-rule="nonzero" d="M122.941 41.586h.255c.127.116.127.232.127.348-.764.813-1.528 1.51-2.038 2.324l1.91-.349c.128 0 .128.116.256.232 0 .117-.128.117-.255.233l-2.293.348c-.255.465-.637 1.046-.892 1.51l2.42-.116c.128 0 .255 0 .255.116s-.127.233-.254.233l-2.548.232c-.128 0-.128 0-.128-.116-.382.813-.764 1.626-1.02 2.44 0 .115-.126.232-.126.348l2.293-.349s.127.116.127.233c.128.116 0 .116-.127.232l-2.42.348c-.638 2.207-.765 4.53-.765 7.202 0 .117 0 .233-.128.233-.127 0-.254-.116-.254-.233-.128-2.788.127-5.343.891-7.666l-.637-1.975s0-.116.128-.232c.127 0 .255.116.255.232l.382 1.278c.51-1.394 1.274-2.788 2.293-4.182v-.116c.637-.93 1.401-1.743 2.293-2.788z"/>
        <path fill="#468572" d="M96.824 57.848c.892.814 2.038 1.278 3.313 1.394 1.146-.929 1.146-3.252.637-4.762-.638-2.207-1.784-4.879-2.421-5.808-1.402-1.859-3.058-2.788-3.95-2.44-1.274.465.765 3.369 1.147 5.228.51 2.09-.127 4.995 1.274 6.388z"/>
        <path fill="#8BBA7B" fill-rule="nonzero" d="M96.442 49.136v-.232c.127 0 .127 0 .255.116a11.362 11.362 0 0 1 1.656 3.253l.51-1.162c.127-.116.127-.116.254-.116 0 .116.128.116 0 .232l-.637 1.394c.255.465.382.93.51 1.394v.116l.382-.813c0-.116.127-.116.255-.116v.232l-.51 1.046c.128.464.128.813.255 1.161.127 1.162.255 2.44.255 3.718 0 .116-.128.116-.128.116-.127 0-.127 0-.127-.116 0-1.278-.127-2.44-.255-3.601l-1.274-.814c-.127-.116-.127-.116 0-.232h.128l1.019.697c0-.465-.128-.93-.255-1.394-.127-.464-.255-.93-.382-1.278l-1.529-.348c-.127 0-.127-.116-.127-.116 0-.116 0-.116.127-.116l1.401.232c-.254-.465-.382-.813-.637-1.278l-1.528-.58s-.128 0-.128-.117c.128-.116.128-.116.255-.116l1.274.465c-.255-.581-.637-1.046-1.02-1.627z"/>
        <path fill="#8AB879" d="M102.048 58.778c.764-.233 2.42-3.601 3.185-6.97.891-4.066-2.803-3.369-3.95-.813-.892 1.975-.892 5.111-.637 6.853.128 1.394.765 1.278 1.402.93z"/>
        <path fill="#26715B" fill-rule="nonzero" d="M102.685 50.995s.127-.116.254-.116c.128.116.128.232.128.232-.255.697-.382 1.51-.637 2.207l.637-.58c.127-.117.255-.117.255 0 .127.116.127.232 0 .232l-1.02 1.045c0 .349-.127.697-.127 1.046l.637-.581h.255c.127.116.127.232 0 .232l-1.02.93c0 1.045 0 2.09.128 3.02 0 .116 0 .232-.127.232-.128 0-.255 0-.255-.116-.255-1.162-.128-2.44 0-3.601 0-.465 0-.813.127-1.278l-.51-1.626c0-.116.128-.233.255-.233 0 0 .128 0 .255.117l.128.929c.254-.697.382-1.394.637-2.091z"/>
        <path fill="#AD9A9A" d="M53.635 61.566c24.461 0 54.4 3.368 75.04 0 1.146-1.278-3.313-4.995-8.791-3.02-2.039-5.344-10.447-5.112-13.377-1.51-4.842-2.556-7.39 1.51-11.34.696-4.203-.813-2.93-2.207-7.26-2.904-2.804-.348-5.734 3.02-12.996 2.207-1.91-.232-8.663-5.575-15.288-.929-4.968-1.045-7.644 2.672-5.988 5.46z"/>
        <path fill="#7D6A6A" d="M128.674 61.682c5.35 3.369 4.969 6.505 5.35 9.99H87.397V61.566c13.25-.117 27.901.232 41.278.116z"/>
        <path fill="#AD9A9A" d="M62.171 71.672h71.854c1.147-1.278-1.529-4.995-6.88-2.904-2.038-5.228-10.32-5.111-13.25-1.627-4.586-2.323-7.261 1.627-10.956.814-4.204-.814-3.057-2.208-7.262-2.788-2.802-.465-5.478 2.904-12.612 1.974-1.911-.116-8.536-5.46-15.033-.929-4.842-.93-7.517 2.672-5.86 5.46z"/>
        <path fill="#7087A9" d="M18.473 33.803h37.965v46H18.473zM45.227 33.803h46.119L68.669 13.01z"/>
        <path fill="#8E9CCB" d="M49.304 56.803v23h38.092v-46L68.67 16.727 49.304 33.803z"/>
        <path fill="#FFF" d="M64.337 63.076h10.606v9.671H64.337z"/>
        <path fill="#818BA4" d="M68.923 68.652h-2.93v2.671h2.93v-2.671zm4.46 0h-2.93v2.671h2.93v-2.671zm0-4.066h-2.93v2.672h2.93v-2.672zm-4.46 0h-2.93v2.672h2.93v-2.672z"/>
        <path fill="#FFF" d="M64.337 41.934h10.606v9.671H64.337z"/>
        <path fill="#818BA4" d="M68.923 47.394h-2.93v2.788h2.93v-2.788zm4.46 0h-2.93v2.788h2.93v-2.788zm0-4.066h-2.93v2.788h2.93v-2.788zm-4.46 0h-2.93v2.788h2.93v-2.788z"/>
        <path fill="#46587E" d="M37.073 13.01L14.396 33.803h31.595L68.67 13.01zM29.175 63.076h10.518v16.75H29.175zM10.574 79.803H9.173v-9.061h1.401v1.394h1.402v-1.394h1.401v1.394h1.401v-1.394h1.402v1.394h1.401v-1.394h1.402v1.394h1.274v-1.394h1.401v1.394h1.401v-1.394h1.402v1.394h1.401v-1.394H27.264v9.061h-1.402v-.813h-1.401v.813h-1.402v-.813h-1.401v.813h-1.401v-.813h-1.274v.813H17.58v-.813H16.18v.813h-1.402v-.813h-1.401v.813h-1.401v-.813h-1.402v.813zm15.288-1.51v-5.344h-1.401v5.344h1.401zm-2.803 0v-5.344h-1.401v5.344h1.401zm-2.802 0v-5.344h-1.274v5.344h1.274zm-2.676 0v-5.344H16.18v5.344h1.401zm-2.803 0v-5.344h-1.401v5.344h1.401zm-2.802 0v-5.344h-1.402v5.344h1.402z"/>
        <path fill="#FFF" d="M29.175 41.934h10.606v9.671H29.175z"/>
        <path fill="#818BA4" d="M38.22 47.394h-2.93v2.788h2.93v-2.788zm0-4.066h-2.93v2.788h2.93v-2.788zm-4.459 0h-2.93v2.788h2.93v-2.788zm0 4.066h-2.93v2.788h2.93v-2.788z"/>
    </g>
</svg>
