<svg xmlns="http://www.w3.org/2000/svg" width="591" height="476" viewBox="0 0 591 476">
    <g fill="none" fill-rule="evenodd">
        <path fill="#F0EDDF" d="M202.14 49.667C438.124 64.951 402.533 3.817 460.637 3.988c157.67.5 169.041 243.274 51.834 383.53-79.084 107.274-302.605 65.776-416.379-12.656C-68.326 261.51 50.683 39.868 202.14 49.667z"/>
        <path fill="#EBE7D3" d="M486.776 413.733c-32.428 25.16-76.649 36.8-124.916 38.353l-.633.019c-1.879.057-3.777.096-5.676.115-1.15.019-2.32.019-3.47.019h-1.938c-1.745 0-3.509 0-5.273-.038-1.553-.02-3.107-.039-4.68-.077l-.69-.02c-32.849-.977-66.964-6.193-100.043-14.65-61.825-31.085-72.583-55.842-75.364-72.87-6.788-41.46 53.215-75.633 32.562-113.104-22.782-41.325-85.988-55.976-120.831-64.03h33.04c49.265 11.18 103.42 17.815 132.127 52.927 22.858 27.96-26.483 91.357 6.156 109.594 58.18 32.523 163.479 53.176 239.629 63.762z"/>
        <path fill="#DA887F" d="M80.675 171.687c23.78-6.309 23.76 4.91 24.259 15.763H6.06c-7.69-4.257-9.07-8.783 1.822-13.769-.92-10.106 2.723-14.574 11.946-12.138-3.969-13.481-2.243-20.174 11.41-12.676 11.545-10.7 20.865-10.585 27.346 3.087 21.037-4.525 22.859 6.559 22.091 19.733z"/>
        <path fill="#7A85A2" d="M171.112 139.394h-87.81l43.224-43.416z"/>
        <path fill="#8E9DC5" d="M126.641 103.63l36.743 35.764v48.056H91.03v-48.056z"/>
        <path fill="#7A85A2" d="M31.238 139.394H91.03v48.056H31.238z"/>
        <path fill="#A2AECF" d="M46.445 149.634h21.65v37.816h-21.65z"/>
        <path fill="#6A6078" d="M66.331 95.978l-43.243 43.416h60.215l43.223-43.416z"/>
        <path fill="#8CB97B" d="M39.312 184.9c-18.141-4.814-18.122 3.74-18.506 12.023H96.19c5.868-3.26 6.923-6.692-1.38-10.508.69-7.71-2.072-11.104-9.11-9.243 3.03-10.28 1.707-15.4-8.705-9.665-8.802-8.17-15.898-8.093-20.845 2.34-16.051-3.433-17.432 5.004-16.837 15.053z"/>
        <g fill="#F2C399" transform="translate(29.608 164.362)">
            <circle cx="26.291" cy="18.083" r="3.107"/>
            <circle cx="39.83" cy="3.107" r="3.107"/>
            <circle cx="51.431" cy="23.127" r="3.107"/>
            <circle cx="3.107" cy="21.746" r="3.107"/>
        </g>
        <path fill="#EBB382" fill-opacity=".98" d="M162.444 61.883c23.472 2.205 11.794 15.034 25.064 16.99 15.226 2.244 22.532 15.188 12.675 26.885-7.651 9.09 7.326 10.854 1.899 27.921-1.918 6.002-14 9.454-19.1 15.418-9.186 10.739-15.418 15.245-26.425 6.77-7.019-5.427-2.723-12.14-10.317-20.308-2.531-2.724-20.404-12.062-14.152-31.814 3.566-11.257 13.461-3.701 11.966-15.207-1.65-12.868 6.424-27.787 18.39-26.655z"/>
        <path fill="#6A6078" fill-rule="nonzero" d="M161.293 186.338l1.745-51.834c-2.972-3.126-24.871-23.05-23.26-24.393 1.284-.997 20.499 16.243 23.26 19.138l.537-15.091c-2.53-2.302-16.434-15.111-15.072-16.262.92-1.055 13.001 9.185 15.072 11.007 0-4.449 1.19-21.44 2.493-21.19 2.685-.25 4.756 34.748 4.756 41.479 2.359-2.455 18.563-17.336 19.368-16.377 2.57 2.455-16.549 19.925-19.368 22.878v50.645h-9.53z"/>
        <path fill="#E3DEC7" d="M192.033 84.971c-2.205-1.783-4.966 4.276-4.698 7.076.25 2.512 4.487 6.827 5.868 4.737 2.186-3.299 1.899-9.32-1.17-11.813zm-33.635-11.928c2.09-3.528 9.166-4.717 12.158-1.917 2.435 2.282-1.784 8.054-5.063 8.571-3.202.499-8.744-3.854-7.095-6.654zm19.752 30.472c3.988-.48 2.57-8.534.613-12.024-1.131-2.033-6.77-1.457-6.884.844-.211 4.276 2.033 11.717 6.27 11.18z"/>
        <path fill="#468572" d="M163.92 179.722c-6.673-1.304-10.316.652-9.262 7.728h46.81c1.975-7.421-1.093-9.435-8.13-7.191-3.472-6.846-8.19-8.246-14.517-2.474-6.405-4.257-11.43-3.758-14.9 1.937z"/>
        <path fill="#8AB879" fill-opacity=".98" d="M245.325 28.285c-30.03 2.82-15.092 19.234-32.044 21.727-19.483 2.858-28.822 19.426-16.223 34.403 9.78 11.602-9.378 13.864-2.417 35.687 2.436 7.67 17.892 12.1 24.412 19.714 11.736 13.75 19.713 19.502 33.789 8.667 8.994-6.922 3.49-15.513 13.193-25.964 3.241-3.49 26.1-15.418 18.103-40.712-4.545-14.382-17.201-4.718-15.303-19.445 2.11-16.454-8.207-35.515-23.51-34.077z"/>
        <path fill="#6A6078" fill-rule="nonzero" d="M246.782 187.45l-2.244-66.293c3.836-3.989 31.814-29.474 29.782-31.2-1.65-1.266-26.215 20.768-29.782 24.488l-.67-19.31c3.26-2.934 21.036-19.311 19.272-20.788-1.17-1.361-16.607 11.755-19.273 14.076 0-5.696-1.495-27.423-3.183-27.097-3.452-.326-6.098 44.451-6.098 53.043-2.992-3.126-23.721-22.188-24.738-20.941-3.298 3.145 21.152 25.485 24.738 29.244v64.778h12.196z"/>
        <g fill="#E3DEC7">
            <path d="M145.568 160.45h3.778v26.98h-3.778zM160.66 160.45h3.778v26.98h-3.778zM153.105 160.45h3.778v26.98h-3.778zM168.196 160.45h3.778v26.98h-3.778zM175.752 160.45h3.778v26.98h-3.778zM190.844 160.45h3.778v26.98h-3.778zM183.288 160.45h3.778v26.98h-3.778zM198.38 160.45h3.778v26.98h-3.778z"/>
            <path d="M145.565 166.874v-2.3h56.574v2.3zM145.565 184.981v-2.3h56.574v2.3zM213.472 160.45h3.778v26.98h-3.778zM205.917 160.45h3.778v26.98h-3.778zM221.008 160.45h3.778v26.98h-3.778zM228.564 160.45h3.778v26.98h-3.778zM243.656 160.45h3.778v26.98h-3.778zM236.1 160.45h3.778v26.98H236.1z"/>
            <path d="M198.383 166.874v-2.3h56.574v2.3zM198.383 184.98v-2.3h56.574v2.3z"/>
            <path d="M251.192 160.45h3.778v26.98h-3.778zM266.284 160.45h3.778v26.98h-3.778zM258.748 160.45h3.778v26.98h-3.778zM273.84 160.45h3.778v26.98h-3.778zM281.376 160.45h3.778v26.98h-3.778zM296.468 160.45h3.778v26.98h-3.778zM288.932 160.45h3.778v26.98h-3.778zM304.023 160.45h3.778v26.98h-3.778z"/>
            <path d="M251.2 166.874v-2.301h56.575v2.3zM251.2 184.98v-2.3h56.575v2.3zM319.096 160.45h3.778v26.98h-3.778zM311.56 160.45h3.778v26.98h-3.778zM326.652 160.45h3.778v26.98h-3.778zM334.188 160.45h3.778v26.98h-3.778zM349.28 160.45h3.778v26.98h-3.778zM341.744 160.45h3.778v26.98h-3.778zM356.835 160.45h3.778v26.98h-3.778z"/>
            <path d="M304.018 166.874v-2.301h56.574v2.3zM304.019 184.98v-2.3h56.574v2.3z"/>
            <path d="M356.835 160.45h3.778v26.98h-3.778zM371.927 160.45h3.778v26.98h-3.778zM364.372 160.45h3.778v26.98h-3.778zM379.464 160.45h3.778v26.98h-3.778zM387.02 160.45h3.777v26.98h-3.778zM402.111 160.45h3.778v26.98h-3.778zM394.556 160.45h3.778v26.98h-3.778zM409.648 160.45h3.778v26.98h-3.778z"/>
            <path d="M356.836 166.874v-2.3h56.574v2.3zM356.836 184.981v-2.3h56.574v2.3z"/>
            <path d="M409.648 160.45h3.778v26.98h-3.778zM424.74 160.45h3.777v26.98h-3.778zM417.203 160.45h3.778v26.98h-3.778zM432.295 160.45h3.778v26.98h-3.778zM439.831 160.45h3.778v26.98h-3.778zM454.923 160.45h3.778v26.98h-3.778zM447.368 160.45h3.778v26.98h-3.778zM462.46 160.45h3.778v26.98h-3.778z"/>
            <path d="M409.654 166.874v-2.3h56.574v2.3zM409.654 184.981v-2.301h56.574v2.301z"/>
            <path d="M462.46 160.45h3.778v26.98h-3.778z"/>
            <path d="M462.46 160.45h3.778v26.98h-3.778zM477.551 160.45h3.778v26.98h-3.778zM470.015 160.45h3.778v26.98h-3.778zM485.107 160.45h3.778v26.98h-3.778zM492.643 160.45h3.778v26.98h-3.778zM507.735 160.45h3.778v26.98h-3.778zM500.2 160.45h3.777v26.98H500.2zM515.291 160.45h3.778v26.98h-3.778z"/>
            <path d="M462.47 166.874v-2.3h56.574v2.3zM462.47 184.98v-2.3h56.574v2.3z"/>
            <path d="M515.291 160.45h3.778v26.98h-3.778z"/>
            <path d="M515.291 160.45h3.778v26.98h-3.778zM530.383 160.45h3.778v26.98h-3.778zM522.827 160.45h3.778v26.98h-3.778zM537.92 160.45h3.777v26.98h-3.778zM545.475 160.45h3.778v26.98h-3.778z"/>
            <path d="M515.288 166.874v-2.301h33.945v2.3zM515.288 184.98v-2.3h33.945v2.3z"/>
            <path d="M545.475 160.45h3.778v26.98h-3.778z"/>
            <path d="M545.475 160.45h3.778v26.98h-3.778zM560.566 160.45h3.778v26.98h-3.778zM553.011 160.45h3.778v26.98h-3.778zM568.103 160.45h3.778v26.98h-3.778zM575.64 160.45h3.777v26.98h-3.778z"/>
            <path d="M545.47 166.874v-2.301h33.944v2.3zM545.47 184.98v-2.3h33.945v2.3z"/>
        </g>
        <path fill="#E3DEC7" d="M215.64 55.88c-2.206-1.783-4.967 4.277-4.68 7.096.23 2.493 4.469 6.807 5.85 4.717 2.185-3.298 1.898-9.32-1.17-11.813zm-11.065 21.804c3.988-.499 2.57-8.553.613-12.043-1.131-2.013-6.769-1.457-6.884.844-.21 4.276 2.033 11.717 6.27 11.199zm6.175 35.668c-1.285 2.167-5.6 2.896-7.44 1.17-1.478-1.38 1.092-4.928 3.106-5.235 1.956-.307 5.35 2.358 4.334 4.065zm25.255-74.846c-5.235.652-3.375 11.18-.805 15.763 1.495 2.628 8.86 1.899 9.012-1.131.288-5.58-2.665-15.341-8.207-14.632zM210.5 78.393c2.09-3.528 9.167-4.717 12.158-1.917 2.436 2.263-1.783 8.054-5.062 8.572-3.203.498-8.745-3.855-7.096-6.655z"/>
        <path fill="#FFF" d="M114.541 144.476h20.193v20.193h-20.193z"/>
        <g fill="#847C90">
            <path d="M117.571 147.486h5.657v5.657h-5.657zM126.066 147.486h5.657v5.657h-5.657zM126.066 155.981h5.657v5.657h-5.657zM117.571 155.981h5.657v5.657h-5.657z"/>
        </g>
        <path fill="#352748" d="M370.912 13.788c1.38-6.29-7.441-12.33-13.77-13.596-5.369-1.055-13.135 2.704-14.305 8.054-1.438 6.52 2.033 16.78 8.591 18.064 7.575 1.496 17.834-4.967 19.484-12.522z"/>
        <path fill="#352748" d="M359.06 22.168c-32.235-8.092-33.463 50.568-.958 50.568 37.72 0 27.901-58.66.958-50.568z"/>
        <path fill="#FFF" d="M372.944 93.524c11.257 2.589 27.097 3.413 31.22 15.763 9.434 28.285-.71 80.253.019 103.17.191 5.867-.729 13.5-4.583 17.028-40.424 3.643-64.76 3.51-74.674-.02-5.062-4.928-4.219-9.319-3.912-14.209 2.014-30.797-5.388-68.287 2.206-98.203 2.723-10.758 10.355-14.19 26.98-22.436 8.42-1.036 14.345-.058 22.744-1.093z"/>
        <path fill="#844A3F" d="M399.6 229.485c5.216 52.352 5.292 89.094 4.218 141.216-.537 25.12-7.114 51.68-7.037 89.362-7-.326-5.964-.46-14.555-.882 1.956-41.67-9.895-62.688-11.046-90.609-1.074-25.907-7.191-54.826-13.29-90.935-6.25 66.964-13.595 110.63-13.078 179.204-8.073-.383-11.448-.767-19.521-1.15-8.093-94.176-15.514-132.606-.365-226.225 24.891 0 49.782.019 74.674.019z"/>
        <path fill="#FFF" d="M392.197 98.107c24.124.038 24.412 51.527 24.661 79.659 3.126 18.333 2.666 47.385 1.362 66.485l-14.67-.48c-.46-8.36-1.707-26.29-3.433-37.796-1.131-7.613-4.314-15.706-4.794-23.377-.748-12.08-1.88-21.132-1.112-35.303-2.435-10.068-4.87-20.136-7.287-30.203 1.918-6.003 3.356-12.983 5.273-18.985z"/>
        <path fill="#CC5A4E" d="M407.136 304.427c.192-48.958-1.38-64.242-1.208-113.18-13.366-6.961-14.939-22.897-15.61-33.156-1.63-24.584-2.244-49.495-3.394-61.633-1.707-1.63-8.84-3.05-11.046-3.452-2.11 10.854-1.189 33.693-1.572 42.035-6.348.46-15.61.46-25.428 0l-1.036-39.58c-1.649.191-7.479 2.492-10.585 5.772-2.32 9.396-2.934 26.54-3.28 43.3-.153 7.115.71 14.152-.076 20.5-1.362 11.199-4.238 18.927-11.602 21.151-3.47 55.727-6.117 59.026-9.588 114.733 35.726 4.814 58.105 6.252 94.425 3.51z"/>
        <path fill="#DB9E83" d="M416.782 244.212c-.633 9.991-.882 26.368-2.014 28.861-1.88 4.238-13.366 15.533-15.11 14.804-1.765-.728.574-3.777.862-5.657-1.898-.115-5.427.825-5.695-.326-.672-2.857 9.588-3.47 11.908-9.971 1.132-3.184.192-6.003.058-9.359-2.55 3.49-3.567 11.851-7.67 10.452-.979-.326 1.457-7.038 3.374-13.73 1.38-4.872 1.918-9.762 3.452-12.082.173-.748.23-1.898.153-3.356l10.682.364z"/>
        <path fill="#B0483C" d="M379.522 231.077l-43.3-1.611 4.026-63.321 36.685 2.512z"/>
        <path fill="#DB9E83" d="M372.043 57.165c.556 12.062-.25 24.297.901 36.359-2.895 10.47-7.632 12.023-11.314 12.138-3.701.135-9.857-3.758-11.43-11.045.27-8.706-.613-18.774-.843-28.822 6.885-3.51 15.82-5.12 22.686-8.63zM373.884 56.705c5.638-8.725 10.278-3.778 10.49 2.301.191 5.676-3.72 12.407-8.304 8.898-.729-3.74-1.457-7.479-2.186-11.2zM346.864 59.236c-6.788-7.862-10.72-2.34-10.087 3.72.595 5.657 5.37 11.775 9.435 7.671.211-3.797.422-7.594.652-11.39z"/>
        <path fill="#EDB39A" d="M338.868 43.684c-.767 6.156.268 13.424 1.898 19.407-.575 10.758 9.416 26.156 20.078 24.565 16.3-2.455 16.108-13.366 18.045-22.437 2.09-9.741 2.34-21.803-4.104-29.417-9.09-10.72-34.019-7.21-35.917 7.882z"/>
        <path fill="#E2924B" d="M405.62 472.067c-.172 2.129-1.533 3.912-5.35 3.912-17.47 0-30.586 0-48.036.02.997-4.603 4.775-5.696 14.21-6.098l12.387-4.775-11.563-95.518 38.852-.69-.5 103.15z"/>
        <path fill="#352748" d="M363.912 54.174c-1.822.076-.594 2.895.02 3.01 1.86.365 3.969-.594 5.925-.748 2.033-.153 3.605.23 5.619.058-1.266-4.123-6.942-2.512-11.564-2.32z"/>
        <path fill="#DB9E83" fill-rule="nonzero" d="M355.36 71.337a1.166 1.166 0 0 1 .536-1.573 1.155 1.155 0 0 1 1.554.537c.134.25.402.48.728.652l.039.02c.345.172.71.268 1.016.23.46-.058.901-.192 1.285-.423.364-.23.69-.517.959-.9.383-.538 1.112-.672 1.63-.308.537.365.67 1.093.307 1.63a5.592 5.592 0 0 1-1.707 1.592c-.671.403-1.438.633-2.225.729-.767.076-1.591-.096-2.32-.46l-.058-.039c-.747-.383-1.4-.978-1.745-1.687z"/>
        <path fill="#C7876C" d="M354.42 76.994c3.605.94 9.166.594 13.155-.825 2.493-.901-2.55 5.254-6.54 5.465-4.774.25-9.012-5.273-6.615-4.64z"/>
        <path fill="#352748" d="M352.234 55.037c1.764-.173.978 2.703.402 2.914-1.745.633-3.892-.019-5.81.115-1.975.135-3.433.73-5.408.863.633-4.161 6.348-3.413 10.816-3.892z"/>
        <path fill="#DB9E83" d="M364.737 63.57c-1.266-5.1 6.692-5.772 7-1.131l-7 1.131zM354.094 64.165c-.978-5.39-8.553-2.992-6.75 1.284l6.75-1.284z"/>
        <path fill="#352748" d="M345.31 65.008c2.091-.863 5.255-2.8 7.384-1.994.671.268 1.227.69 1.592 1.189l-4.986 1.15c-.825.23-2.608.69-3.99-.345zM373.73 62.937c-2.205-.518-5.637-1.917-7.593-.786-.633.364-1.113.863-1.4 1.419l5.1.364c.844.096 2.685.25 3.893-.997z"/>
        <path fill="#352748" d="M365.235 63.934c.997-1.38 1.995-2.109 3.241-1.936 1.093.134 2.052.632 2.666 2.224-.652-.02-.882-.02-1.228-.096-1.17 2.033-4.18.978-4.679-.192zM353.327 64.99c-1.113-1.286-2.186-1.9-3.414-1.612-1.054.25-1.975.825-2.416 2.474.633-.096.863-.115 1.189-.23 1.38 1.918 4.257.594 4.64-.633zM357.047 27.998c1.572 19.08-6.808 19.982-19.522 25.466-.422-4.295-.824-8.61-1.246-12.906 4.679-4.851 9.339-9.703 13.999-14.555 2.262.652 4.506 1.323 6.769 1.995z"/>
        <path fill="#352748" d="M355.609 27.883c-.192 19.425 11.045 17.987 24.66 20.518-.536-4.276-1.092-8.571-1.649-12.848-5.618-3.7-11.256-7.402-16.875-11.103a631.468 631.468 0 0 0-6.136 3.433z"/>
        <path fill="#CC5A4E" d="M382.437 41.383c-13.462-13.136-18.026-17.125-28.305-15.974-8.706.959-12.139 5.945-19.81 18.41-3.796-12.35 2.264-17.97 9.167-21.804 5.791-3.203 16.818-4.699 23.031-2.455 9.742 3.528 13.404 6.865 15.917 21.823z"/>
        <path fill="#FFF" d="M331.159 128.06c-7.326 23.703-6.501 28.228-1.036 44.49 3.529 10.49 16.511 4.928 32.37 4.123-.288 5.964 5.887 6.635 6.463 11.583-24.968.71-45.238 19.157-62.19-6.463-8.207-12.426.269-40.539 4.296-55.516 3.432-12.656 9.837-19.848 16.894-20.308 7.537-.498 7.613 7.805 3.203 22.092z"/>
        <path fill="#EDB39A" d="M333.44 181.41c2.532-1.209-1.783-7.345-5.043-12.043-2.876-4.142-6.213-2.225-5.868.038.518 3.624 2.34 6.923 3.529 10.375 2.454.536 4.928 1.093 7.383 1.63z"/>
        <path fill="#C7876C" d="M375.744 170.747c-1.918-.306-9.109 2.973-7.421-.69-1.381.499-5.58 2.205-4.526-1.266l4.257-4.717c5.12.441 10.221.901 15.322 1.342.211 1.304.422 2.628.614 3.932-2.742.46-5.485.94-8.246 1.4z"/>
        <path fill="#EDB39A" d="M478.204 160.181c-3.663.134-28.515 27.25-33.942 26.406-5.37-.824-28.63-6.788-51.22-11.66-5.217 1.727-11.737.653-15.86-.69-3.547-1.13-9.339-2.454-8.246-4.794 1.63-3.49 9.684 1.535 13.251-2.224-3.183-1.189-6.385-1.994-11.026-1.247-4.085.633-5.293 5.888-9.397 4.967-2.378-.537 2.11-7.076 8.63-9.377 6.29-2.244 11.64.69 23.357 2.876 5.292.998 31.526.403 45.218 2.417 4.276.613 25.792-33.56 29.148-34.633l10.087 27.96z"/>
        <rect width="41.217" height="70.241" x="347.487" y="156.646" fill="#74A5DE" rx="4.89" transform="scale(-1 1) rotate(-70.883 0 708.938)"/>
        <rect width="41.217" height="70.241" x="344.213" y="159.459" fill="#28394B" rx="4.89" transform="scale(-1 1) rotate(-70.883 0 707.152)"/>
        <path fill="#DB9E83" d="M333.824 196.501c-2.704.365-10.26 3.011-12.714 1.822-4.564-2.224-7.038-4.391-9.281-8.917-1.515-3.068-2.647-8.802-.959-11.774 1.323-2.301 4.449-3.663 7.095-3.586 4.162.115 7.843 2.723 11.775 4.084-.173 6.348 4.257 12.024 4.084 18.371z"/>
        <path fill="#EDB39A" d="M325.904 182.752c2.014-.134 16.818.134 16.722-2.57-.192-4.64-14.056-3.72-16.722-3.72-4.449-.077-3.394 6.002 0 6.29z"/>
        <path fill="#EDB39A" d="M337.046 181.985c.46-.02 11.582-2.11 10.93 2.148-.44 2.876-15.11 4.007-17.987 4.353-7.479.882-9.3-4.104-4.085-5.734 3.72-.25 7.422-.556 11.142-.767z"/>
        <path fill="#EDB39A" d="M345.771 185.072c1.093-.134 2.57-.21 3.183.863.537.92-.306 3.05-2.416 3.203-1.975.153-12.867 3.106-16.434 4.353-4.717 1.649-8.419-3.797-.115-5.005 5.312-.767 10.47-2.704 15.782-3.414z"/>
        <path fill="#EDB39A" d="M347.574 188.64c1.898-.346 2.263 1.36.882 2.377-2.225 1.668-3.893 1.745-6.348 2.838-3.97 1.208-6.213 3.164-10.297 3.337-4.315.192-3.682-3.816-1.707-4.257 6.021-1.324 11.43-3.184 17.47-4.296z"/>
        <path fill="#CC5A4E" d="M326.94 16.894c4.2 4.028 9.914 6.271 19.349 4.181-9.262-7.517-7.249-5.715-19.35-4.18zM346.289 21.075c6.827-8.994 4.142-7.728 15.418-7.44-2.953 4.276-8.304 6.577-15.418 7.44z"/>
        <path fill="#3A4666" d="M444.415 96.63l5.504-8.63 4.851 8.707-5.638 6.54z"/>
        <path fill="#DB9E83" d="M471.454 54.346c-3.51 19.771 1.937 32.562 7.632 40.386-7.958 4.276-15.936 8.553-23.894 12.829-.383-2.838-5.638-.096-6.021-2.934-.134-8.591-2.378-20.94-3.625-29.839 3.088-1.17 4.871-20.921 9.263-25.006 5.177-4.813 13.001 2.8 16.645 4.564z"/>
        <path fill="#EDB39A" d="M425.814 30.376c-4.929 4.238-6.08 18.198-.518 29.761.825 1.726 2.033 7.498 2.8 9.033 4.66 9.377 4.161 12.905 9.511 14.516 5.907 1.764 13.232-.805 18.62-5.273 4.296-3.548 7.115-7.824 6.52-15.303-.057-5.734 1.592-8.898 2.187-17.528 1.457-21.074-13.539-37.298-39.12-15.206z"/>
        <path fill="#352748" d="M428.614 70.243c2.512 13.213 3.336 16.492 11.697 16.818 10.97.441 25.658-8.495 22.437-23.951-.978-3.605-1.975-7.191-2.953-10.797l-6.271-.172c1.093 11.544 4.583 24.622-11.966 16.357-2.033.269-4.066.94-6.31 1.247-2.205.288-4.602.23-6.634.498z"/>
        <path fill="#DB9E83" d="M424.452 59.14c-.71-3.777 4.871-4.103 4.756-.843l-4.756.843z"/>
        <path fill="#352748" d="M429.208 58.143c-.652 1.304-1.4 2.033-2.474 2.052-.92.038-1.802-.268-2.512-1.515.537-.077.729-.096 1.036-.077.728-1.86 3.375-1.38 3.95-.46zM426.792 50.799c2.032-.135.863 3.221.192 3.413-2.072.556-3.471.134-5.715.115.153-2.627 2.129-3.28 5.523-3.528z"/>
        <path fill="#DB9E83" d="M442.42 56.494c-.977-5.389-8.552-2.992-6.75 1.266l6.75-1.266z"/>
        <path fill="#352748" d="M471.454 54.346c-2.071 3.356-7.747-2.378-11.66-2.033-2.09.365-2.377.269-6.27-.172-1.65-2.493-1.726-9.55-6.674-13.232-5.024-3.759-17.508-5.293-20.672-6.52-11.103-1.131 3.318-14.612 19.905-15.13 13.5-.441 19.311 3.01 23.261 7.843 8.649 10.566 6.674 21.823 2.11 29.244z"/>
        <path fill="#EDB39A" d="M459.795 52.313c1.15-4.525 4.2-6.615 7.037-5.427 3.912 1.65 3.222 8.956 1.918 12.715-1.074 3.144-2.512 4.43-6.808 3.317-1.4-3.47-2.147-6.367-2.147-10.605z"/>
        <path fill="#352748" d="M435.67 57.76c.902 1.15 2.532 1.4 3.836 1.304 1.687-.135 3.49-1.65 3.528-3.414-.633.25-.844.326-1.15.537-1.88-1.572-6.137.25-6.214 1.573zM434.27 49.245c-1.994.518.039 3.337.748 3.318 2.148-.039 4.22-1.63 6.367-2.244 2.186-.671 4.008-.633 6.213-1.285-2.397-4.257-8.284-1.112-13.327.211z"/>
        <path fill="#DB9E83" fill-rule="nonzero" d="M436.4 65.469a1.276 1.276 0 0 1 1.744-.442c.595.365.786 1.132.441 1.746a5.296 5.296 0 0 1-1.61 1.706 5.54 5.54 0 0 1-2.187.882c-.786.154-1.687 0-2.454-.326-.786-.345-1.477-.92-1.88-1.591a1.446 1.446 0 0 1-.172-.556l-1.458-11.698c-.095-.69.403-1.323 1.094-1.42a1.284 1.284 0 0 1 1.419 1.094l1.419 11.448c.153.154.364.288.594.403.345.134.71.21.997.153.422-.076.844-.23 1.19-.479.344-.23.632-.537.862-.92z"/>
        <path fill="#FFF" d="M442.632 71.72c-3.05 1.342-7.997 1.822-11.717 1.112-2.32-.44 2.972 4.277 6.539 3.912 4.238-.46 7.191-5.906 5.178-5.024z"/>
        <path fill="#4A5980" d="M475.404 88.845c8.879 2.282 26.866 7.268 32.236 31.928 6.481 29.743 2.378 61.538 4.794 91.875.48 5.868-.077 13.52-3.759 17.24-40.232 5.542-64.548 6.558-74.596 3.49-5.293-4.66-4.66-9.09-4.583-13.999.556-30.855.306-55.113 6.462-85.355 2.225-10.892 5.197-23.702 12.963-30.74 8.361-1.419 18.122-13.001 26.483-14.44z"/>
        <path fill="#667AB0" d="M475.404 88.845c.575.153 1.208.326 1.88.498l-.135 6.482 5.005.038-.076-5.024c.805.288 1.649.594 2.493.959l.057 4.084 7.536.058a36.703 36.703 0 0 1 3.165 2.493l-10.663-.077.115 6.616 12.657.211-.038-4.775a37.46 37.46 0 0 1 2.493 2.915l.019 1.898 1.361.02c.537.786 1.036 1.61 1.534 2.492l-2.876-.038.115 9.761 6.846.307c.21.805.422 1.63.633 2.493l-7.46-.326.096 8.725 8.994.268c3.835 24.623 1.649 50.415 2.78 75.44v7.192h.422l.077 1.093c.038.441.077.901.096 1.362l-.595.019v8.38h.115c-.479 2.512-1.284 4.832-2.608 6.558v-4.027l-8.303.173.058 5.772-2.455.326-.077-6.04-11.985.268.115 7.19-2.455.27-.134-7.403-9.588.211-.153 7.786 4.851-.077c-20.308 1.994-34.249 2.186-42.303.671l1.457-.019-.076-7.575-8.572.192c-.192-.805-.288-1.63-.346-2.454l8.88-.192-.116-9.608-8.668.039.039-2.474 8.59-.038-.114-10.413-8.304-.115.058-2.474 8.207.115-.115-8.572-7.881-.172.076-2.474 7.786.172-.115-9.262-7.287-.25.115-2.051 7.153.173-.096-7.268-6.578-.077.154-1.975h6.405l-.115-9.224-5.389-.115c.096-.806.192-1.63.307-2.455l5.043.115-.134-10.45-3.432-.135c.134-.825.268-1.63.402-2.455l3.011.115-.077-5.196-1.994-.077c.153-.825.326-1.63.48-2.455l1.495.058-.077-5.81-.21-.02c.728-3.202 1.553-6.462 2.57-9.626l.095 7.248 11.065.326.288-9.358-10.682-.48c.307-.805.614-1.63.959-2.416l9.8.422.249-8.418-5.58-.096a28.283 28.283 0 0 1 2.07-2.435l3.586.057.058-1.84c.824-.327 1.649-.71 2.493-1.151l-.077 3.03 10.048.172.173-6.443-4.89-.02a382.64 382.64 0 0 0 3.452-2.454l1.515.02.038-1.132a72.916 72.916 0 0 1 2.512-1.726l-.076 2.857 8.034.077.135-6.846c.191-.058.402-.096.594-.134zm-3.413 144.686l-9.09.154.211-7.729 9.032-.191-.153 7.766zm-11.564.192l-10.47.153.23-7.632 10.451-.23-.21 7.709zm-12.944.192l-6.539.115-.096-7.575 6.865-.153-.23 7.613zm61.96-11.449l-8.323.192-.096-8.572 8.418-.057v8.437zm-10.797.25l-12.004.249-.135-8.802 12.043-.077.096 8.63zm-14.478.306l-9.512.211.173-9.013 9.205-.038.134 8.84zm-11.985.269l-8.994.192.249-9.205 8.917-.038-.172 9.051zm-11.468.25l-10.451.23.268-9.416 10.432-.058-.249 9.243zm-12.925.287l-6.961.153-.115-9.569 7.364-.038-.288 9.454zm61.652-12.273l-8.437.057-.096-9.07 8.533.134v8.879zm-10.911.077l-12.062.057-.153-9.377 12.12.192.095 9.128zm-14.536.076l-9.109.039.192-9.608 8.764.135.153 9.434zm-11.582.058l-8.917.057.268-9.856 8.84.134-.191 9.665zm-11.391.057l-10.413.058.307-10.125 10.374.172-.268 9.895zm-12.887.077l-7.46.038-.134-10.355 7.901.134-.307 10.183zm61.307-11.678l-8.552-.135-.096-8.188 8.648.192v8.13zm-11.026-.173l-12.139-.21-.134-8.266 12.196.269.077 8.207zm-14.613-.25l-8.686-.133.172-8.342 8.38.192.134 8.284zm-11.16-.172l-8.821-.134.23-8.419 8.763.192-.172 8.361zm-11.276-.172l-10.374-.173.268-8.495 10.336.23-.23 8.438zm-12.848-.211l-7.997-.115-.115-8.572 8.38.191-.268 8.496zm60.923-9.627l-8.667-.192-.077-8.572 8.744.288v8.476zm-11.141-.25l-12.196-.268-.135-8.744 12.254.403.077 8.61zm-14.67-.325l-8.304-.192.173-8.84 7.997.268.134 8.764zm-10.777-.23l-8.726-.211.23-8.956 8.668.288-.172 8.879zm-11.2-.25l-10.335-.23.287-9.109 10.298.346-.25 8.993zm-12.79-.287l-8.476-.192-.115-9.243 8.86.288-.27 9.147zm60.578-9.589l-8.782-.287-.077-8.63 8.86.02v8.897zm-11.256-.345l-12.254-.383-.134-8.246 12.311.057.077 8.572zm-14.728-.46l-7.9-.23.153-7.997 7.613.058.134 8.169zm-10.374-.307l-8.649-.23.211-7.747 8.591.057-.153 7.92zm-11.123-.307L451.664 177l.23-7.498 10.278.077-.21 7.69zm-12.752-.345l-8.975-.23-.076-7.306 9.262.096-.21 7.44zm60.233-9.588h-8.897l-.077-7.843 8.974.192v7.651zm-11.352 0h-12.33l-.135-8.17 12.37.27.095 7.9zm-14.804 0h-7.537l.173-8.38 7.249.153.115 8.227zm-10.01 0l-8.572-.02.23-8.61 8.514.192-.172 8.438zm-11.046-.02h-10.26l.269-8.897 10.221.23-.23 8.668zm-12.733 0h-9.378l-.095-9.166 9.741.23-.268 8.937zm59.945-10.105l-8.993-.192-.096-9.32 9.09.345v9.167zm-11.467-.25l-12.388-.268-.154-9.588 12.446.48.096 9.377zm-14.862-.325l-7.153-.154.192-9.76 6.808.287.153 9.627zm-9.626-.211l-8.496-.192.288-9.934 8.4.326-.192 9.8zm-10.95-.25l-10.221-.21.307-10.164 10.182.402-.268 9.972zm-12.695-.268l-9.857-.23-.134-10.394 10.298.403-.307 10.22zm59.6-10.336l-9.128-.365-.038-5.139 9.166.364v5.14zm-11.582-.46l-12.465-.5-.077-5.138 12.484.498.058 5.14zm-14.939-.595l-6.711-.269.095-5.158 6.54.268.076 5.159zm-9.185-.364l-8.4-.326.135-5.159 8.36.326-.095 5.159zm-10.873-.422l-10.183-.403.173-5.178 10.163.403-.153 5.178zm-12.638-.499l-10.393-.422-.077-5.197 10.624.441-.154 5.178zm59.217-5.273l-9.204-.365-.058-6.462 9.262.268v6.559zm-11.659-.46l-12.503-.518-.096-6.31 12.522.384.077 6.443zm-14.977-.614l-6.462-.25.134-6.232 6.232.192.096 6.29zm-8.917-.365l-8.342-.326.154-6.117 8.303.25-.115 6.193zm-10.815-.44l-10.145-.403.173-5.964 10.144.307-.172 6.06zm-12.618-.5l-10.72-.44-.077-5.83 10.97.326-.173 5.945zm47.231-6.999l-12.541-.383-.154-8.917 12.6.556.095 8.744zm-15.015-.46l-6.156-.192.173-9.013 5.83.25.153 8.955zm-8.63-.25l-8.264-.249.249-9.166 8.207.364-.191 9.052zm-10.738-.325l-10.125-.307.268-9.339 10.106.441-.25 9.205zm34.268-10.183l-12.618-.556-.134-9.358 12.656.21.096 9.704zm-15.092-.671l-5.733-.25.172-9.127 5.427.095.134 9.282zm-8.207-.345l-8.189-.365.25-8.84 8.111.134-.172 9.07zm-10.643-.48l-10.106-.422.268-8.495 10.068.154-.23 8.763zm2.761-11.18l.173-6.462 8.073.057-.134 6.52-8.112-.115zm10.586.154l.134-6.54 5.082.039.115 6.597-5.331-.096z"/>
        <path fill="#FFF" d="M437.09 184.401c-.844.422-.307 2.493 1.112 2.742 1.668.288 2.608-1.246 2.167-1.956-.652-1.131-2.11-1.361-3.28-.786z"/>
        <path fill="#28394B" d="M508.675 229.888c11.391 77.127 4.008 114.426 24.22 229.676h-23.76c-20.825-71.643-23.663-105.278-39.867-179.607-3.069 67.176-8.342 111.128-4.564 179.607h-24.24c-12.56-93.677-17.105-131.934-6.385-226.186 10.72-.077 23.184.767 34.863.23 13.193-.614 26.54-3.107 39.733-3.72z"/>
        <path fill="#EDB39A" d="M463.074 459.564l.94 6.06-23.55-.94 1.343-5.12z"/>
        <path fill="#405A75" d="M464.013 465.624c2.186 2.32 6.137 10.375-2.052 10.375h-48.305c.498-4.584 4.161-5.657 13.596-6.06 4.41-1.764 8.802-3.51 13.213-5.254 7.843.306 15.705.632 23.548.94z"/>
        <path fill="#EDB39A" d="M531.553 459.564l.94 6.06-23.568-.94 1.342-5.12z"/>
        <path fill="#405A75" d="M532.493 465.624c2.166 2.32 6.136 10.375-2.052 10.375h-48.306c.48-4.584 4.161-5.657 13.596-6.06 4.392-1.764 8.802-3.51 13.194-5.254 7.862.306 15.705.632 23.568.94z"/>
        <path fill="#EDB39A" d="M413.963 194.622c-9.627-4.046-16.492-13.538-19.062-11.544-2.876 2.263 1.995 7.057 2.992 10.585-8.419 5.178-13.04 1.86-19.177 3.586-5.254 1.477 4.085 11.64 14 11.89 6.826.172 13.595-1.266 20.384-1.899 7-.498 11.563-1.093 16.99-2.761 18.659-5.523 39.024-7.038 55.995-16.569 5.542-3.125 9.991-18.467 11.947-24.526-6.155-3.606-17.067-7.728-23.241-11.353-2.32 3.586-4.814 15.188-8.342 17.585-10.49 7.114-22.053 12.503-33.406 18.198-6.75 3.395-11.371 5.81-19.08 6.808z"/>
        <path fill="#667AB0" d="M468.942 126.795c1.189 16.166 2.11 24.7 1.726 32.638-.039.94-13.77 13.596-13.865 14.517l12.676 22.245c.191-.422 9.895-2.263 16.626-7.096 6.846-4.928 10.7-12.848 10.892-13.289 5.408-13.29 8.994-30.529 7.728-43.473-3.624-36.646-37.298-26.1-35.783-5.542z"/>
        <path fill="#3A4666" d="M471.722 79.966c2.34-.441 5.044-.134 7.172.48-1.956 1.323-4.123 3.413-6.06 4.717-.287-1.438-.843-3.778-1.112-5.197z"/>
        <path fill="#667AB0" d="M478.894 80.445c3.145 4.085 6.08 8.956 9.243 13.04-10.374 5.792-20.423 10.106-30.797 20.174-.748-4.717-1.822-12.235-2.57-16.952 6.022-3.854 12.043-7.69 18.065-11.544 1.936-1.304 4.103-3.394 6.06-4.718z"/>
        <path fill="#7B94D9" d="M481.982 84.722c.843 1.227 1.687 2.473 2.531 3.7l.115 6.981c-1.822.978-3.624 1.937-5.446 2.915l-2.071-.02-.038 1.17c-.825.46-1.669.94-2.493 1.42l.057-2.609-8.073-.057-.173 6.462 2.014.02a85.528 85.528 0 0 0-4.564 3.317l.019-.92-7.536-.115-.365-2.474 7.958.134.173-6.443-9.109-.058-.21-1.438 1.59-1.016 7.806.057.134-5.14 2.512-1.61-.172 6.75 8.034.077.25-12.254c.824-.671 1.668-1.4 2.512-2.052l-.288 14.306 5.005.038-.172-11.141z"/>
        <path fill="#3A4666" d="M454.77 96.707c-1.879 2.186-3.758 4.372-5.638 6.54 2.877 2.837 5.159 5.196 7.786 7.727-.748-4.717-1.4-9.55-2.148-14.267z"/>
        <path fill="#4A5980" d="M449.132 103.246l-4.717-6.616-2.915 17.72 7.191-2.455z"/>
        <path fill="#667AB0" d="M444.415 96.63l-3.816 5.216.901 12.503z"/>
        <path fill="#352748" d="M442.69 22.456c4.39 2.588 3.911 12.023.018 15.302-4.391 3.702-15.552 6.674-20.5 3.76-5.12-3.012-12.253-11.296-7.708-15.131 6.98-5.887 20.327-8.553 28.19-3.931z"/>
        <path fill="#FFF" d="M335.186 133.737v12.906l12.618.345.153-12.849-12.771-.402zm5.465 2.128l-.384 4.373 1.228.153.518-4.449 3.892.192-.019 8.955-8.974-.249.21-9.147 3.529.172zM375.917 134.753l-.02 12.925 12.619.345.153-12.848-12.752-.422zm5.446 2.148l-.365 4.353 1.208.153.518-4.43 3.912.192-.038 8.956-8.975-.269.211-9.147 3.529.192zM370.662 375.303h18.409v5.504h-18.409z"/>
        <path fill="#405A75" fill-rule="nonzero" d="M491.263 237.52c1.975 16.32 8.764 20.519 15.571 24.7l1.304.824-2.665 4.315-1.304-.825c-7.843-4.833-15.686-9.684-17.95-28.42l5.044-.594z"/>
        <path fill="#7B94D9" d="M474.254 198.688l-9.359 3.835-17.278-26.809 8.17-7.996z"/>
        <path fill="#844A3F" d="M413.445 192.877l3.643 16.99 6.175-1.86-4.487-16.204z"/>
        <path fill="#FFF" d="M413.215 200.95c-.575 7.518 10.547 4.468 9.588-1.112-.614-3.586-9.051-5.887-9.588 1.112z"/>
        <ellipse cx="362.593" cy="194.893" fill="#405A75" rx="3.339" ry="3.577" transform="scale(-1 1) rotate(19.756 0 -1887.418)"/>
        <path fill="#E2924B" d="M349.76 472.067c-.192 2.129-1.553 3.912-5.37 3.912-17.45 0-30.586 0-48.037.02.998-4.603 4.775-5.696 14.21-6.098l12.388-4.775-11.563-95.518 38.851-.69-.48 103.15z"/>
        <path fill="#FFF" d="M314.782 375.303h18.409v5.504h-18.409z"/>
        <path fill="#E3DDC3" d="M140.046 259.017l1.88-11.18-7.46 7.46-5.58-13.021-3.74 13.02-5.561-3.72v7.44zM98.28 302.145l-1.343-8.035 5.35 5.37 4.027-9.359 2.666 9.358 4.008-2.685v5.35zM111.741 223.579l1.343-8.035-5.35 5.37-4.028-9.359-2.665 9.358-4.008-2.685v5.35zM146.873 360.499l1.342-8.016-5.35 5.35-4.027-9.358-2.666 9.358-4.008-2.685v5.35zM61.92 251.883l-1.341-8.035 5.35 5.35 4.027-9.358 2.665 9.358 4.008-2.665v5.35z"/>
        <path fill="#FFF" d="M446.18 111.147c-.327-.825-.212-1.726.575-2.148.69-.403 1.975-.02 2.262.729.269.71-.153 1.515-.805 1.898-.556.307-1.803.115-2.033-.48zM441.654 131.32c-.844-.402-.307-2.492 1.112-2.742 1.668-.268 2.608 1.247 2.186 1.975-.671 1.132-2.129 1.343-3.298.768zM439.602 149.998c-.844.403-.326 2.493 1.112 2.743 1.668.287 2.608-1.247 2.167-1.975-.671-1.113-2.11-1.343-3.28-.768zM437.684 169.367c-.326-.844-.21-1.726.575-2.148.69-.403 1.975-.02 2.263.729.269.71-.153 1.515-.805 1.879-.556.326-1.803.134-2.033-.46zM436.783 209.906c-.307-.844-.192-1.726.575-2.167.69-.384 1.994 0 2.282.748.268.71-.153 1.515-.805 1.879-.557.307-1.822.134-2.052-.46zM438.068 223.828c-.307.844-.192 1.726.575 2.167.69.383 1.994 0 2.263-.748.287-.71-.135-1.515-.806-1.88-.556-.306-1.802-.134-2.032.46z"/>
    </g>
</svg>
