<svg xmlns="http://www.w3.org/2000/svg" width="120" height="120" viewBox="0 0 120 120">
    <g fill="none" fill-rule="evenodd" stroke="#45597E">
        <circle cx="60" cy="60" r="58" stroke-width="4"/>
        <path fill="#45597E" fill-rule="nonzero" d="M88.351 29.003a.9.9 0 0 0-.609.474c-2.203 2.81-6.048 3.683-9.052 4.537-4.849 1.372-11.045 2.75-17.33 4.984-12.568 4.468-25.615 12.481-28.789 30.539-.017.99.014 2.026.25 2.811h-2.935c-.708-.017-1.146 1.036-.637 1.531 1.685 1.678 2.744 2.662 5.15 4.287C32.381 82.096 30.593 86.352 29 91l2.658-1.782a67.203 67.203 0 0 1 4.097-10.077c1.09.633 2.472 1.03 3.986 1.28 2.103.35 4.395.345 6.34-.139.59-.157.836-1.03.414-1.475l-2.408-2.422c2.014.3 3.975.358 6.118-.195 3.15-.813 6.744-2.599 12.097-5.707 7.516-5.211 13.402-9.26 18.52-14.42 3.66-3.756 6.945-8.006 8.747-12.528 1.803-4.522 2.096-9.39-.249-14.058-.277-.472-.618-.49-.969-.474zm-.138 2.59c1.451 3.75 1.19 7.523-.305 11.274-1.668 4.186-4.772 8.29-8.332 11.943-2.057 2.11-4.251 4.038-6.395 5.79-6.094-.72-7.685-.54-13.177-1.67 5.56 2.396 6.866 1.958 12.18 2.478-4.889 3.886-9.313 6.647-10.768 7.516-5.31 3.084-8.807 4.805-11.654 5.54-2.848.735-5.053.556-8.083-.306-.737-.184-1.379.92-.859 1.475l3.129 3.146c-1.276.11-2.636.103-3.931-.111-1.383-.23-2.611-.68-3.433-1.142 7.156-13.311 19.92-26.372 41.136-34.631-19.733 6.379-33.31 16.72-42.492 33.685-1.387-.952-2.272-1.685-3.1-2.45h2.186c.708.017 1.145-1.037.637-1.531-.466-.859-.618-1.862-.637-2.784 3.054-17.309 15.321-24.744 27.627-29.12.65-.23 1.29-.453 1.938-.667-.271 1.446-.131 3.081.36 5.65.155-2.318.171-3.954.692-5.984 5.123-1.636 10.104-2.815 14.229-3.981 3.278-1.046 6.644-1.806 9.052-4.12z"/>
    </g>
</svg>
