<svg height="87" viewBox="0 0 101 87" width="101" xmlns="http://www.w3.org/2000/svg"><g fill="none"><path d="m97 80.772-95-77.848" stroke="#a8b5d9" stroke-linecap="round" stroke-width="4"/><path d="m53.537 9c-19.192 0-36.148 6.106-46.75 15.64-.572.518-.824 1.302-.662 2.056s.715 1.365 1.449 1.601 1.539.063 2.111-.455c9.572-8.607 25.585-14.528 43.852-14.528 18.266 0 34.28 5.921 43.852 14.528.572.518 1.377.691 2.111.455.735-.236 1.287-.847 1.449-1.601s-.09-1.538-.662-2.056c-10.603-9.534-27.558-15.64-46.75-15.64zm0 17.258c-14.845 0-28.095 5.244-37.043 13.517-.657.493-.977 1.316-.826 2.123s.747 1.459 1.537 1.681c.791.222 1.639-.024 2.187-.635 8.048-7.442 20.319-12.371 34.144-12.371s26.096 4.929 34.144 12.371c.549.611 1.397.857 2.187.635.791-.222 1.387-.873 1.537-1.681.151-.807-.169-1.63-.826-2.123-8.948-8.273-22.198-13.517-37.043-13.517zm0 17.258c-9.503 0-18.43 3.293-25.145 9.135-.903.782-1.001 2.148-.219 3.051s2.148 1.001 3.05.219c5.896-5.129 13.815-8.09 22.313-8.09 8.499 0 16.418 2.961 22.313 8.09.903.782 2.269.684 3.05-.219.782-.903.684-2.269-.219-3.051-6.715-5.841-15.641-9.135-25.145-9.135zm0 17.258c-4.957-.012-10.25 1.843-13.381 4.921-.566.538-.797 1.34-.604 2.097s.78 1.35 1.535 1.552c.755.201 1.559-.021 2.103-.581 1.835-1.804 6.652-3.683 10.348-3.674 3.696-.011 8.513 1.87 10.348 3.674.544.56 1.349.783 2.103.581.755-.201 1.342-.795 1.535-1.552s-.038-1.559-.604-2.097c-3.131-3.078-8.424-4.934-13.381-4.921zm0 12.944c-3.549 0-6.472 2.923-6.472 6.472s2.923 6.472 6.472 6.472 6.472-2.923 6.472-6.472-2.923-6.472-6.472-6.472zm0 4.315c1.217 0 2.157.94 2.157 2.157s-.94 2.157-2.157 2.157-2.157-.94-2.157-2.157.94-2.157 2.157-2.157z" fill="#a8b5d9"/></g></svg>