<svg height="60" viewBox="0 0 1920 60" width="1920" xmlns="http://www.w3.org/2000/svg" xmlns:xlink="http://www.w3.org/1999/xlink"><linearGradient id="a" x1="68.002%" x2="31.998%" y1="54.401%" y2="45.599%"><stop offset="0" stop-color="#657f5a"/><stop offset=".4" stop-color="#5f746a"/><stop offset="1" stop-color="#58687a"/></linearGradient><g fill="none" fill-rule="evenodd" transform="translate(0 -641)"><path d="m0 1h1920v700h-1920z" fill="#759668" fill-rule="nonzero"/><path d="m1095.765 701c-2.06468-4.35601-4.28206-8.637995-6.648-12.838-13.915 6.342-27.112 11.85-40.213 12.838h-8.13c-10.945-.871-21.911-5.44-33.261-15.868 29.865-18.79 50.041-23.71 76.303-5.852-7.223-11.45-15.805-22.588-25.9-33.286-29.186 18.535-60.753 20.631-95.94 1.511 21.807-23.127 56.233-28.493 84.713-12.63-9.175-8.516-19.398-16.704-30.763-24.492-32.153-6.061-71.41-26.83-80.375-63.937 38.92 1.158 71.402 25.21 83.108 63.355 9.347 4.465 27.282 17.086 36.077 24.889.654.579 1.304 1.16 1.951 1.746-12.046-28.615-19.94-62.655 4.474-89.075 20.243 32.355 24.75 64.225 1.26 94.414 10.132 9.723 19.378 20.218 27.488 31.554-3.157-21.545 2.78-47.892 23.608-65.443 15.963 29.763 13.645 54.344-16.628 75.867 3.49106 5.5803 6.69198 11.336947 9.59 17.247zm42.718 0c6.2-6.661 13.905-12.307 23.192-16.189 1.083 5.706 1.7 11.103 1.798 16.189z" fill="#88ab79" fill-rule="nonzero"/><path d="m570.114 1-.246 1.347 26.991 25.265 4.395-26.612zm35.998 0-1.317 33.077 9.77 1.67 2.821-34.747zm17.823 0 2.766 32.603 5.362-32.603zm8.433 0 1.862 41.82 44.716 26.425 10.578-34.227-2.276 36.693 38.45 10.19-.474-21.906 10.47 22.822 81.894 13.243-5.552-17.255-41.676-32.505 41.39 23.795-2.541-31.358-47.073-7.61 43.281-1.927-9.117-28.2h-163.93zm1165.048 700-25.704-81.588-50.661 45.245 50.924-55.464-12.386-15.815-99.91 102.88-7.926-7.365 104.04-103.351-14.106-19.263-112.73 118.664 106.622-128.648-24.28-48.185-59.903 57.971 52.392-67.64-58.2-55.928-35.05 79.447 19.03-90.025-70.84-78.754-27.93 30.056-14.079 103.242-.038-88.05-44.32 61.602 38.895 60.145-43.097-52.972-8.593 9.247 50.125 61.967-67.08-37.099-24.369 40.134 99.261 62.079-99.854-52.168-19.644 90.686 163.129 37.724-160.49-26.655 148.827 39.206-147.26-31.184 2.412 30.11 112.909 9.749zm-361.494 0-32.038-3.018.958 3.018z" fill="#657f5a" fill-rule="nonzero"/><path d="m1766.426 701 9.22-273.765c-17.316-18.116-144.265-133.708-134.989-141.5 7.429-5.74 118.888 94.226 134.99 111.071l3.098-87.561c-14.758-13.357-95.412-87.6-87.432-94.293 5.308-6.173 75.334 53.275 87.432 63.866 0-25.828 6.803-124.371 14.408-122.924 15.639-1.447 27.631 201.563 27.631 240.573 10.767-11.263 71.88-67.704 99.216-87.974v22.73c-27.9 35.738-87.587 90.746-99.216 102.912v266.865z" fill="#46587e" fill-rule="nonzero"/><path d="m1810.27 663.989c7.353 11.037 9.956 23.658 10.363 37.011h-199.23c-38.794-37.203-65.94-79.17-98.988-128.145-20.374-30.202-75.022-92.81-49.153-118.461 24.897-24.688 121.21 33.7 173.908 66.478 61.41 38.2 122.995 82.935 163.1 143.117z" fill="#fc7d6f" fill-rule="nonzero"/><path d="m1507.916 484.893c90.107 70.68 133.657 143.75 192.567 216.107m-169.494-166.057c11.43.291 22.857.588 34.288.879l-10.38-42.655m56.633 37.123c-.599 18.182-1.207 36.364-1.807 54.546-15.223.983-30.452 1.971-45.675 2.955m85.942 48.05 7.57-48.87m-17.48 88.274c15.067 2.23 30.133 4.45 45.2 6.681"/><g fill-rule="nonzero"><path d="m1506.996 486.07c-.61345-.518661-.70736-1.429404-.21264-2.062323.49472-.63292 1.40119-.761727 2.05264-.291677 18.79736 14.734599 36.73821 30.530297 53.735 47.31l-9.127-37.507c-.19413-.802746.29925-1.610871 1.102-1.804999s1.61087.299253 1.805 1.101999l10.282 42.255c15.138 15.205 28.85 30.482 41.725 45.802l.765-23.074c.306-9.186.61-18.371.913-27.556.01661-.533933.31681-1.018445.78752-1.271025s1.04041-.234854 1.4945.0465.72359.783592.70698 1.317525c-.303 9.186-.608 18.371-.913 27.556-.293 8.807-.586 17.615-.876 26.422 13.24 15.91 25.624 31.864 37.814 47.83l7.034-45.4c.08146-.527681.43824-.971822.93595-1.16512.49772-.193297 1.06075-.106384 1.477.228.41626.334385.62251.865439.54105 1.39312l-7.474 48.24c2.761 3.623 5.515 7.247 8.269 10.871 8.76 11.53 17.52 23.06 26.549 34.6.054.06.104.123.148.19 4.97661 6.367105 10.01451 12.686065 15.113 18.956.51189.641227.41133 1.575192-.22533 2.092752-.63666.517559-1.57148.425289-2.09467-.206752-5.00915-6.159933-9.95938-12.367549-14.85-18.622-7.41-1.097-14.82-2.192-22.231-3.286-7.46-1.102-14.92-2.204-22.379-3.308-.52965-.077527-.9777-.431727-1.17538-.929178-.19769-.49745-.11497-1.062576.217-1.4825.33196-.419923.86273-.630849 1.39238-.553322 7.46 1.104 14.919 2.207 22.379 3.308l19.124 2.827c-8.237-10.579-16.292-21.18-24.346-31.781-2.86045-3.766195-5.72378-7.530196-8.59-11.292-.04351-.050604-.0836-.104056-.12-.16-12.797-16.787-25.766-33.562-39.677-50.286l-44.925 2.907c-.82096.045212-1.52473-.580152-1.57636-1.400732s.56821-1.529224 1.38836-1.587268l42.735-2.766c-12.972-15.467-26.788-30.887-42.056-46.23l-16.383-.42c-5.765-.148-11.53-.297-17.296-.444-.80823-.041677-1.43656-.718943-1.4176-1.52803.01895-.809087.6783-1.456187 1.4876-1.45997l17.296.443 13.24.34c-17.23655-17.100462-35.45546-33.181415-54.564-48.161z" fill="#cc5a4e"/><path d="m637.27 701c-71.006-50.096-246.959-211.245-253.308-293.559-4.186-54.275 88.743-112.012 79.631-139.185-8.168-24.362-56.35-35.59-103.29-35.59h58.225c29.512 1.188 54.747 10.23 68.004 31.179 30.188 47.701-71.609 111.753-10.068 177.27 61.231 65.186 415.103 246.165 507.842 259.885z" fill="url(#a)"/><path d="m633.661 701c-2.115173-.888655-4.217715-1.807079-6.307-2.755-12.066-18.02-12.685-41.538-10.318-66.544 3.995 7.4 9.086 13.586 15.187 18.365-2.333-11.006-6.39-22.166-3.201-32.75 34.5-35.741 47.022-44.573 100.367-53.206 1.48 13.53 1.905 26.836-.155 39.62-4.756 4.079-9.646 6.325-14.457 7.709 4.402.818 9.505.843 13.859-1.275 2.37 6.96 2.281 13.991 1.885 20.09-9.63 7.386-19.597 11.726-29.6 15.73 8.892-1.006 20.492-3.848 29.656-8.649-2.144 13.89-6.982 29.138-13.835 39.744-13.972 1.804-28.978-.187-43.44-2.542 12.603 4.75 25.45 6.426 40.801 8.137-2.54 6.134-6.05 12.351-9.688 18.326z" fill="#edb483"/><path d="m690.104 605.182c-24.075 30.04-50.976 60.546-66.842 95.818h6.738c22.665-51.094 31.402-45.208 60.104-95.818z" fill="#e2924b"/><path d="m405.783 701c9.133-2.616 18.165-5.852 27-9.774-9.768-18.371-12.074-45.83 3.933-67.692 18.236 20.36 22.566 40.22 7.053 62.4 14.869-7.748 29.035-17.608 42.005-29.924-17.418-21.798-31.18-41.761-15.16-71.327 22.78 21.767 31.438 38.167 21.696 64.801 8.34-8.75 16.117-18.61 23.18-29.683-22.41-21.235-31.106-48.114-22.216-82.751 24.78 13.843 36.929 42.486 29.4 70.606 5.373-9.801 10.237-20.44 14.504-31.977-1.759-29.165 7.671-67.686 37.85-83.537 7.48 33.955-6.27 67.326-36.75 85.775-1.83 9.068-8.85 27.35-13.691 36.667-.36.692-.722 1.382-1.087 2.07 22.154-16.668 49.911-30.921 78.11-15.538-23.606 24.581-50.222 35.43-81.484 21.666-6.212 10.894-13.286 21.187-21.334 30.68 17.969-7.428 42.078-8.028 61.817 6.183-22.296 20.31-44.088 23.66-69.323 2.134-11.946 12.428-25.828 23.207-41.958 31.8 11.35-.663 23.838 1.526 35.052 7.421h-45.689c-.376833-.573686-.747521-1.151386-1.112-1.733-1.35823.595093-2.724008 1.172807-4.097 1.733z" fill="#89b878"/><path d="m247.311 697.24c-4.289 1.483-9.216 2.731-14.579 3.76h-91.96c19.699-35.506 50.867-101.208 82.055-127.203 46.034-38.37 91.48-52.994 147.998-72.906 26.4-9.296 83.533-37.795 97.591-13.594 13.531 23.292-48.534 83.584-83.11 116.412-40.297 38.255-85.484 75.374-137.995 93.531z" fill="#26715b"/><path d="m438.272 506.16c.54759-.41808 1.33042-.31309 1.7485.2345s.31309 1.33042-.2345 1.7485c-14.507087 11.052763-29.62937 21.273843-45.294 30.614l29.304.475c.687594.011046 1.236045.577406 1.225 1.265-.011046.687594-.577406 1.236046-1.265 1.225l-33.372-.54c-14.154 8.26-28.086 15.458-41.89 22.03l17.172 5.088c6.63 1.965 13.262 3.93 19.893 5.893.660809.194128 1.039128.887191.845 1.548s-.887191 1.039128-1.548.845l-19.893-5.894c-6.617-1.96-13.235-3.922-19.852-5.881-14.312 6.72-28.492 12.807-42.644 18.745l32.177 13.931c.61809.280223.897894 1.00384.629115 1.626992s-.987113.916251-1.615115.659008l-34.374-14.883c-3.217 1.345-6.432 2.685-9.648 4.025-10.29 4.288-20.583 8.578-30.914 13.056l-.075.032c-25.627 11.109-51.498 23.384-78.197 39.7-.586004.337011-1.333823.14573-1.686039-.431263-.352215-.576994-.182788-1.329558.387039-1.696737 26.69-16.311 52.516-28.585 78.085-39.68 2.223-5.231 4.445-10.463 6.666-15.694l6.862-16.155c.273191-.627762 1.001411-.917876 1.631436-.649944.630024.267932.926218.993701.663564 1.625944l-6.862 16.155-5.64 13.283c9.395-4.045 18.759-7.948 28.122-11.85 18.338-7.641 36.672-15.282 55.222-23.99l6.53-33.904c.0836-.438008.394524-.798143.81565-.944747s.888474-.057404 1.226.234.49395.740739.41035 1.178747l-6.187 32.117c13.94-6.618 28.009-13.867 42.297-22.2 4.21-14.617-.507 1.775 3.494-12.106 1.623-5.634-2.365 8.203 3.662-12.727.115049-.437358.457528-.778362.895379-.891522s.902669.019203 1.215222.34605.424012.797115.291399 1.229472c-3.583 12.444.397-1.39-3.672 12.726-1.55 5.381 2.814-9.763-2.756 9.583 15.971943-9.464765 31.380872-19.848906 46.149-31.1z" fill="#1d5745"/><path d="m1410.34 701 15.715-51.594-15.303-18.062-11.691 40.785 7.12-45.482-6.09-1.784-9.306 46.742 1.428-46.273-6.077 21.253 1.969-27.672-26.492-20.108-9.255 20.99 4.156-23.171-23.704-9.32-1.315 13.97-4.975-15.29-51.113-14.467 2.258 11.386 24.11 23.75-24.57-18.19-.698 20.133 29.38 8.315-27.672-1.969 9.163 45.87 36.73-14.72-34.475 20.345 5.171 12.906 39.964-30.609 5.5 7.014-43.013 26.837 8.326 18.415h11.848l16.772-6.72-9.6 6.72z" fill="#88ab79"/><path d="m140.766 701c56.454-48.204 85.765-101.44 123.938-166.677 18.49-31.61 69.269-97.937 41.665-121.999-26.566-23.159-119.413 41.622-170.16 77.9-50.099 35.819-100.019 76.35-136.209 126.18v84.596z" fill="#89b878"/><path d="m272.579 444.04c.617236-.526575 1.541915-.464289 2.082955.140307s.500663 1.530491-.090955 2.085693c-18.207956 16.264031-35.451584 33.576441-51.643 51.849l13.418-1.209c5.727-.516 11.455-1.033 17.183-1.548.822076-.071245 1.546255.537424 1.6175 1.3595s-.537424 1.546255-1.3595 1.6175c-5.729.515-11.456 1.031-17.184 1.548l-16.544 1.49c-14.33 16.38-27.197 32.747-39.215 49.105l43.06.018c.825113 0 1.494.668887 1.494 1.494s-.668887 1.494-1.494 1.494l-45.246-.018c-15.803 21.692-30.18 43.371-44.559 65.055-7.395 11.153-14.792 22.307-22.384 33.466l18.905-4.048c7.45-1.594 14.898-3.188 22.346-4.785.799164-.148857 1.571206.366832 1.739754 1.162076.168549.795244-.327915 1.579787-1.118754 1.767924-7.448 1.596-14.897 3.19-22.346 4.785-7.324 1.567-14.649 3.135-21.973 4.705-10.353 15.13-21.103 30.27-32.736 45.426h-3.78c12.246-15.859 23.507-31.704 34.337-47.542.027-.046.057-.09.09-.132 8.31-12.155 16.368-24.307 24.424-36.457 2.53-3.814 5.058-7.627 7.595-11.44l-10.608-47.909c-.177836-.805783.331217-1.603164 1.137-1.781s1.603164.331217 1.781 1.137l9.986 45.101c11.203-16.807 22.601-33.614 34.86-50.433l-2.583-26.451c-.898-9.194-1.797-18.387-2.693-27.58-.050374-.53179.186784-1.050058.62214-1.359579.435357-.30952 1.00277-.363269 1.4885-.141.485731.22227.815986.686789.86636 1.218579.896 9.194 1.794 18.387 2.692 27.58.753 7.704 1.506 15.408 2.257 23.112 11.93-16.202 24.701-32.414 38.911-48.648l7.59-43.051c.162591-.794611.927717-1.315772 1.726679-1.176117.798961.139656 1.341926.889467 1.225321 1.692117l-6.739 38.23c15.970788-17.930908 32.952074-34.935566 50.861-50.931z" fill="#4a5980"/></g><path d="m153.277 644.619c-14.97 3.209-29.94 6.408-44.91 9.617m32.428-48.504-10.746-48.533m42.518-59.826c1.773 18.2 3.556 36.399 5.33 54.598 15.334.005 30.674.014 46.008.019m29.753-55.143c-11.448 1.029-22.89 2.063-34.338 3.092 2.554-14.482 5.107-28.974 7.66-43.456"/><path d="m1920 588.571c-28.723-37.116-45.69-49.028-102.13-65.912-3.931 16.125-6.552 32.145-6.086 47.929 5.104 5.685 10.66 9.175 16.26 11.61-5.454.293-11.627-.486-16.556-3.735-3.97 8.04-4.975 16.555-5.462 23.992 10.475 10.456 21.839 17.281 33.299 23.705-10.592-2.623-24.168-7.897-34.488-15.152.393 17.134 3.828 36.335 10.435 50.245 16.608 4.393 35.067 4.363 52.926 3.806-15.99 3.747-31.79 3.74-50.622 3.377 2.91 10.833 8.047 22.157 12.835 32.564h89.589z" fill="#e2924b" fill-rule="nonzero"/><path d="m1858.865 578.54c21.903 36.099 46.512 73.014 61.135 112.933v9.527h-4.506c-18.794-62.295-30.343-57.715-56.629-122.46z" fill="#bf7737" fill-rule="nonzero"/></g></svg>