<svg xmlns="http://www.w3.org/2000/svg" width="16" height="16" viewBox="0 0 16 16">
    <g fill="none" fill-rule="evenodd">
        <path fill="#000" d="M5.494 0h4.867c4.442 0 5.494 1.052 5.494 5.494v4.867c0 4.442-1.052 5.494-5.494 5.494H5.494C1.052 15.855 0 14.803 0 10.36V5.494C0 1.052 1.052 0 5.494 0"/>
        <path fill="#FFF" d="M13.316 5.436c.078-.246 0-.425-.347-.425h-1.152c-.291 0-.425.157-.504.325 0 0-.593 1.432-1.42 2.36-.27.269-.392.359-.538.359-.078 0-.179-.09-.179-.336V5.425c0-.29-.09-.425-.335-.425H7.028c-.179 0-.29.134-.29.269 0 .28.413.346.458 1.13v1.7c0 .37-.067.437-.213.437-.391 0-1.342-1.444-1.913-3.088C4.958 5.123 4.846 5 4.555 5H3.392C3.056 5 3 5.157 3 5.324c0 .303.392 1.824 1.824 3.838.95 1.376 2.305 2.115 3.524 2.115.739 0 .828-.168.828-.448V9.79c0-.336.067-.392.302-.392.168 0 .47.09 1.153.75.783.783.917 1.141 1.354 1.141h1.152c.336 0 .492-.168.403-.492-.1-.325-.481-.795-.974-1.354-.268-.313-.67-.66-.794-.828-.168-.224-.123-.313 0-.515-.011 0 1.399-1.991 1.544-2.663"/>
    </g>
</svg>
