<svg height="702" viewBox="0 0 1920 702" width="1920" xmlns="http://www.w3.org/2000/svg" xmlns:xlink="http://www.w3.org/1999/xlink"><linearGradient id="a"><stop offset="0" stop-color="#657f5a"/><stop offset=".4" stop-color="#5f746a"/><stop offset="1" stop-color="#58687a"/></linearGradient><linearGradient id="b" x1="68.002%" x2="31.998%" xlink:href="#a" y1="54.401%" y2="45.599%"/><linearGradient id="c" x1="64.878%" x2="35.122%" xlink:href="#a" y1="50.287%" y2="49.713%"/><g fill="none" fill-rule="evenodd"><path d="m0 1h1920v700h-1920z" fill="#759668" fill-rule="nonzero"/><path d="m1095.765 701c-2.06468-4.35601-4.28206-8.637995-6.648-12.838-13.915 6.342-27.112 11.85-40.213 12.838h-8.13c-10.945-.871-21.911-5.44-33.261-15.868 29.865-18.79 50.041-23.71 76.303-5.852-7.223-11.45-15.805-22.588-25.9-33.286-29.186 18.535-60.753 20.631-95.94 1.511 21.807-23.127 56.233-28.493 84.713-12.63-9.175-8.516-19.398-16.704-30.763-24.492-32.153-6.061-71.41-26.83-80.375-63.937 38.92 1.158 71.402 25.21 83.108 63.355 9.347 4.465 27.282 17.086 36.077 24.889.654.579 1.304 1.16 1.951 1.746-12.046-28.615-19.94-62.655 4.474-89.075 20.243 32.355 24.75 64.225 1.26 94.414 10.132 9.723 19.378 20.218 27.488 31.554-3.157-21.545 2.78-47.892 23.608-65.443 15.963 29.763 13.645 54.344-16.628 75.867 3.49106 5.5803 6.69198 11.336947 9.59 17.247zm42.718 0c6.2-6.661 13.905-12.307 23.192-16.189 1.083 5.706 1.7 11.103 1.798 16.189z" fill="#f0eddf" fill-rule="nonzero"/><path d="m812.192 1c1.2 12.194 6.234 24.694 16.607 34.392 7.452-12.338 10.576-23.695 8.152-34.392zm52.649 0c-11.013 20.952-18.805 39.947-.681 62.196 15.996-22.356 20.757-37.819 8.085-59.069 8.57 6.147 16.834 13.337 24.686 21.684-15.766 21.838-18.858 46.29-5.618 74.54 18.995-15.888 24.763-42.412 13.746-65.295 6.197 7.53 12.091 15.86 17.622 25.058 3.224 25.286 17.557 56.777 45.999 65.467.902-30.32-16.298-56.695-45.42-67.565-3.04-7.476-12.024-22.008-17.685-29.209-.42-.535-.842-1.068-1.267-1.598 21.695 10.693 47.801 18.408 69.478.646-24.224-17.241-48.8-22.222-73.365-5.352-6.634-7.793-13.829-15.011-21.638-21.503z" fill="#88ab79" fill-rule="nonzero"/><path d="m597.514 53.754c33.692 3.156 16.928 21.591 35.962 24.39 21.861 3.214 32.342 21.81 18.198 38.604-10.976 13.032 10.52 15.576 2.725 40.053-2.745 8.621-20.09 13.593-27.4 22.138-13.187 15.416-22.128 21.882-37.933 9.713-10.092-7.77-3.913-17.407-14.806-29.13-3.643-3.92-29.289-17.312-20.317-45.684 5.11-16.158 19.305-5.304 17.184-21.824-2.371-18.473 9.208-39.87 26.387-38.26z" fill="#89b878" fill-opacity=".98" fill-rule="nonzero"/><path d="m595.873 232.392 2.506-74.4c-4.286-4.484-35.703-33.09-33.407-35.018 1.839-1.42 29.422 23.318 33.407 27.487l.767-21.67c-3.653-3.304-23.613-21.678-21.638-23.334 1.314-1.528 18.644 13.184 21.638 15.805 0-6.392 1.683-30.779 3.565-30.42 3.87-.359 6.838 49.881 6.838 59.535 3.368-3.522 26.633-24.9 27.782-23.505 3.687 3.526-23.745 28.605-27.782 32.827v72.693z" fill="#46587e" fill-rule="nonzero"/><path d="m639.977 86.9c-3.161-2.554-7.127 6.122-6.727 10.165.355 3.584 6.417 9.793 8.406 6.79 3.135-4.737 2.739-13.386-1.679-16.955zm-48.273-17.115c3.002-5.069 13.16-6.775 17.46-2.748 3.473 3.254-2.574 11.547-7.275 12.286-4.594.724-12.555-5.535-10.185-9.538zm28.36 43.745c5.724-.716 3.689-12.255.865-17.284-1.625-2.894-9.71-2.08-9.877 1.235-.306 6.127 2.924 16.809 9.012 16.05z" fill="#e3dec7" fill-rule="nonzero"/><path d="m1605.285 178.578c-12.212 8.568-26.494 14.688-39.176 19.535 17.178-15.746 42.705-31.598 59.485-48.352-.85334-.715576-1.53165-1.616906-1.983-2.635-21.784 10.689-45.693 31.69-66.774 43.98 15.9-20.232 37.87-44.593 66.148-46.86-.01146-.983396.1749-1.959059.548-2.869-22.325 6.468-47.734 19.901-69.172 26.657 19.573-15.899 45.708-34.376 73.175-31.317 1.784-1.678 3.58-3.358 5.386-5.041-23.643 1.313-52.412 9.665-75.548 11.91 22.718-11.643 52.56-24.479 79.042-15.155 2.70439-2.504171 5.41908-4.997192 8.144-7.479-20.774-2.025-46.855 1.261-67.246.045 21.173-6.954 48.572-13.967 70.293-2.81 3.553-3.214 7.146-6.423 10.776-9.619-23.718-1.994-53.698 2.544-77.154 1.676 24.068-8.51 55.355-17.252 80.357-4.482 1.4639-1.277386 2.93191-2.55006 4.404-3.818-22.524-6.358-51.646-8.187-73.717-13.718 24.482-3.234 55.62-5.282 77.376 10.585.94619-.8058029 1.89419-1.6094716 2.844-2.411-11.997-6.38-26.533-11.766-39.992-17.313-5.232-.124-10.294-.362-15.07-.811 2.63119-.7678895 5.27137-1.5046078 7.92-2.21-4.001-1.743-7.838-3.521-11.402-5.37 6.653.678 13.82 1.578 21.006 3.02 20.24-4.485 42.669-6.22 61.101 3.6 3.80322-2.9450827 7.6415-5.8446229 11.514-8.698-23.584-4.704-54.634-3.068-78.361-6.353 25.117-6.129 57.628-11.751 81.303 4.201 1.68103-1.2216772 3.36906-2.4336971 5.064-3.636-15.838-7.762-37.52-12.85-53.337-19.837 18.587.726 42.01 3.2 55.949 17.997.732-.513 1.465-1.024 2.2-1.532-16.283-12.46-39.026-23.496-54.991-35.19 20.492 5.348 45.74 13.696 58.678 32.66 3.10847-2.1127809 6.24169-4.1889245 9.399-6.228-19.656-13.81-48.622-24.87-68.94-37.454 25.026 4.494 56.39 12.331 71.865 35.58 1.10526-.7015519 2.2136-1.3982254 3.325-2.09-9.65-10.178-22.456-20.164-34.088-29.961-4.946-1.71-9.695-3.476-14.108-5.356 2.671.07 5.418.164 8.216.303-3.282-2.877-6.395-5.738-9.228-8.582 6.131 2.668 12.685 5.705 19.093 9.265 19.686 1.795 40.508 6.578 55.034 19.989 3.5223-1.8586747 7.07512-3.6589213 10.657-5.4-19.695-9.798-45.366-17.038-65.003-25.994h11.15c21.098 2.446 44.029 8.029 58.94 23.572 2.80202-1.3050194 5.6223-2.5704785 8.46-3.796-12.324-7.348-28.007-13.483-42.449-19.776h20.3c10.012 4.016 19.127 9.77 25.753 18.246 4.081-1.703 8.195-3.319 12.342-4.842-8.768-4.877-18.921-9.216-29.259-13.404h20.516c4.985 3.24 9.516 7.108 13.374 11.749 1.65019-.5741044 3.3056-1.1331277 4.966-1.677-4.073-3.414-8.516-6.765-13.15-10.072h12.32c2.2973 2.60623034 4.35778 5.41199324 6.157 8.384 1.077-.33 2.156-.652 3.237-.968-1.96554-2.52175985-3.99316-4.99451606-6.081-7.416h8.672c1.05203 1.90815445 1.98644 3.87882895 2.798 5.901 5.88038-1.59004127 11.81508-2.97190258 17.793-4.143-.99-.591-1.996-1.177-3.016-1.758h9.098c.156.188.311.377.465.568 1.176-.198 2.354-.387 3.535-.568h63.782v13.606l-.528-.066c-1.551-.19-3.1-.364-4.643-.522 1.549 14.506-2.913 28.586-9.837 41.511-1.55 9.516-4.191 18.804-6.834 27.134-.335-4.795-.423-9.909-.392-15.194-4.756 7.088-9.97 13.7-14.932 19.691 3.83-11.756 9.692-24.695 15.304-37.662.327-12.717.547-25.503-.91-36.566-1.865-.04-3.724-.057-5.577-.05 7.681 27.1-7.148 56.119-20.307 78.07 3.962-24.068 15.045-53.88 17.267-78.038-4.087.07-8.147.254-12.18.546 6.63 26.665-7.95 54.957-20.907 76.456 3.918-23.453 14.615-52.348 17.264-76.162-3.757.334-7.49.76-11.199 1.276 6.497 22.58-4.101 47.663-13.782 66.97 1.79-20.313 8.85-45.574 9.917-66.399-.986.154-1.971.315-2.954.482 1.685 11.48-1.78 22.683-7.245 32.92-1.47 10.664-5.092 21.21-8.626 30.334-.041-5.588.344-11.659.855-17.911-2.662 3.753-5.433 7.301-8.106 10.6 2.345-7.471 5.776-15.591 9.256-23.82.883-10.342 1.551-20.61.72-29.51-2.84075.6477328-5.66986 1.345508-8.486 2.093 2.949 26.688-14.167 52.675-29.038 72.319 6.113-21.99 18.966-48.308 24.537-71.081-3.95946 1.1299516-7.89188 2.3526212-11.794 3.667 1.725 20.85-8.793 40.775-20.968 57.591-1.532 7.168-3.553 14.102-5.576 20.476-.279-4.005-.386-8.233-.396-12.597-1.735 2.2-3.47 4.331-5.175 6.39 1.486-4.562 3.279-9.301 5.243-14.151.28-15.788 1.239-32.661-.314-46.975-1.29163.5846971-2.57932 1.1780438-3.863 1.78 7.947 27.218-6.97 56.417-20.194 78.479 3.907-23.738 14.742-53.063 17.17-77.041-5.86626 2.8247417-11.65156 5.8146003-17.349 8.966 7.322 25.235-4.101 53.455-14.61 75.25 1.606-22.15 8.662-49.578 9.93-72.622-3.43225 1.9598351-6.83529 3.9703889-10.208 6.031 4.84 19.523-1.395 40.325-9.724 58.584-.087 7.33-.7 14.527-1.425 21.174-1.064-3.87-2.004-7.993-2.875-12.269-1.24175 2.443355-2.51251 4.87186-3.812 7.285.557-4.765 1.378-9.766 2.347-14.908-2.695-14.728-4.984-30.534-8.921-43.834-1.056.741-2.11 1.487-3.16 2.236 11.784 24.794 3.155 55.401-5.24 79.038-.829-23.271 3.672-52.955 1.828-76.586-1.66007 1.2037892-3.31343 2.4168079-4.96 3.639 8.263 27.55-7.119 56.992-20.705 79.159 4.154-23.777 15.336-53.109 17.953-77.105-4.10734 3.0871071-8.17599 6.2253515-12.205 9.414 7.1 23.883-5.69 49.716-17.08 69.28 3.12-20.595 12.052-45.998 14.189-66.98-5.4569 4.3702187-10.85177 8.817329-16.183 13.34 9.16 26.997-4.741 56.873-17.202 79.495 3.013-23.671 12.637-53.084 14.307-77.03-3.83663 3.283507-7.64609 6.59862-11.428 9.945 7.665 23.325-3.772 49.354-14.126 69.197 2.124-20.344 9.63-45.58 11.002-66.422-3.53 3.148-7.024 6.306-10.48 9.466 4.962 22.58-6.558 46.762-16.941 65.368 2.482-18.678 9.645-41.377 12.288-61.095l-2.284 2.113c-1.097 18.53-14.294 35.427-25.707 48.303 4.705-12.957 12.861-27.77 18.69-41.759-.942.884-1.882 1.767-2.818 2.65-7.499 24.662-31.6 42.27-51.675 55.057 5.952-8.218 13.45-16.774 21.099-25.448zm306.147-164.879c-3.59968-.310635-7.20643-.5330351-10.817-.667 2.834 5.602 4.475 11.585 5.238 17.742 2.219-5.84 4.152-11.569 5.58-17.075zm-58.92 2.777c-3.05.548-6.083 1.155-9.1 1.82 2.208 4.273 3.553 8.778 4.236 13.398 1.979-5.223 3.691-10.343 4.865-15.218zm-40.04 10.73c-6.53719 2.3286592-12.98928 4.8896188-19.344 7.678 4.3 8.882 5.675 18.688 5.342 28.605 5.354-12.3 10.673-24.724 14.003-36.283zm-86.242-3.737c7.162 5.84 13.276 12.73 17.203 20.984 5.2363-3.1913342 10.54433-6.2634579 15.92-9.214-10.12-4.406-21.648-8.131-33.123-11.77zm19.54 36.755c-5.38074 3.3875323-10.69088 6.8859465-15.927 10.493 5.164 7.475 8.091 16.155 9.602 25.218 2.617-12.166 5.182-24.43 6.324-35.711zm-91.612 18.978c8.29 3.264 15.948 7.756 22.088 14.05 5.1334-4.2821737 10.32623-8.4925827 15.577-12.63-11.634-1.394-24.695-1.446-37.665-1.42z" fill="#88ab79" fill-rule="nonzero"/><path d="m1356.428 134.67c-13.711 6.421-29.061 10.033-42.59 12.652 19.934-12.724 48.23-24.09 67.943-37.892-.72771-.865664-1.24764-1.886388-1.52-2.984-23.65 6.864-51.233 23.66-74.461 32.245 19.443-17.433 45.677-37.929 74.34-35.236.16113-.98429.51818-1.926226 1.05-2.77-23.45 2.549-51.203 11.517-73.817 14.509 22.359-12.46 51.73-26.347 78.651-18.463 2.14249-1.3793994 4.29927-2.7364728 6.47-4.071-23.898-2.881-54.23.444-77.819-1.376 24.841-7.68 57.067-15.303 81.94-1.13 3.36518-2.0155799 6.75579-3.9884051 10.171-5.918-20.533-5.908-47.718-7.163-68.215-12.034 22.694-3.28 51.792-5.498 71.57 10.153 4.70828-2.6132633 9.45309-5.1601819 14.233-7.64-23.637-6.82-55.838-7.405-80.002-12.575 26.244-4.4 60.147-7.711 82.942 11.059 2.01968-1.0351388 4.04471-2.0598192 6.075-3.074-21.635-11.099-52.075-18.234-74.114-28.057 25.952 1.101 58.827 4.732 77.51 26.373 1.32131-.6507965 2.64465-1.2974663 3.97-1.94-11.268-9.314-26.117-17.927-39.664-26.51-5.207-1.042-10.226-2.168-14.921-3.455 2.696-.296 5.471-.576 8.304-.82-3.693-2.444-7.216-4.894-10.455-7.367 6.531 1.844 13.537 4.002 20.468 6.705 22.978-1.019 47.995 1.708 64.953 18.26 7.88004-3.434269 15.81023-6.7522955 23.788-9.953-14.102-12.839-39.225-22.955-56.076-34.232 20.572 4.446 46.773 12.119 56.192 34.185 1.36-.546 2.726-1.09 4.096-1.632-10.923-13.829-28.674-27.448-43.372-40.682h9.192c15.954 9.33 30.85 21.931 35.835 40.03 4.54-1.786 9.134-3.551 13.776-5.292-9.985-12.05-25.671-23.508-41-34.738h15.536c11.905 8.695 21.58 19.874 25.57 34.699 1.782-.668 3.57-1.332 5.366-1.993-5.814-10.664-15.021-21.757-24.333-32.706h10.668c7.925 9.21 13.767 19.878 14.93 32.242 8.15678-2.9867907 16.35491-5.8594047 24.592-8.617-10.77-8.562-25.084-16.18-39.352-23.625h19.21c9.102 5.76 16.904 13.192 22.112 22.968 4.86539-1.6168219 9.74422-3.1928771 14.636-4.728-7.293-6.406-16.405-12.414-26.05-18.24h14.769c5.339 4.98 9.833 10.809 13.058 17.684 3.80688-1.1860903 7.62164-2.3467827 11.444-3.482-4.657-4.896-10.462-9.606-16.807-14.202h9.548c3.238 4.158 5.877 8.819 7.704 14.07 5.29213-1.5686995 10.59903-3.0871013 15.92-4.555-3.495-3.247-7.43-6.412-11.65-9.515h8.511c1.91 2.8 3.59 5.795 4.99 9.007 2.05622-.56214919 4.11457-1.11648652 6.175-1.663-1.94776-2.51448878-3.97821-4.96382933-6.088-7.344h7.247c.91095 2.0913393 1.69243 4.23672205 2.34 6.424 1.275-.332 2.552-.662 3.83-.988-.90272-1.8316234-1.84393-3.64402552-2.823-5.436h6.334c.336 1.43.612 2.877.824 4.34 4.7-1.172 9.405-2.301 14.109-3.383-.3-.32-.604-.638-.912-.957h2.138c.076.208.152.416.226.625.63-.144 1.26-.286 1.89-.428l.876-.197h203.51c2.19374 2.55940844 2.38959 6.27495596.47707 9.0508053-1.91252 2.7758494-5.45411 3.9163572-8.62707 2.7781947-1.3827-.497705-2.77251-.9754214-4.169-1.433-2.223 17.51-14.574 33.517-25.356 45.9 5.193-14.705 14.718-31.789 20.483-47.413-1.61433-.47367772-3.23551-.92372583-4.863-1.35-6.092 26.882-31.675 46.008-52.842 59.756 13.73-19.319 35.76-40.526 48.84-60.758-4.17988-.99265335-8.39035-1.85175664-12.625-2.576-4.512 22.196-22.31 38.626-40.675 51.12-3.936 6.313-8.258 12.235-12.387 17.621 1.114-3.919 2.47-7.99 3.966-12.159-2.36386 1.4658704-4.74502 2.9036383-7.143 4.313 2.992-3.841 6.338-7.747 9.886-11.698 6.733-17.649 14.888-36.413 17.416-52.394-5.14872-.28475489-10.30354-.44546815-15.46-.482-2.162 11.737-7.987 21.69-15.73 30.214-.667 6.688-2.148 13.376-4.122 19.91 11.479-16.599 23.657-33.687 29.454-49.285 2.028 27.204-16.669 49.407-35.742 66.431-2.183 5.148-4.511 10.094-6.796 14.75.252-3.162.613-6.429 1.053-9.774-1.59416 1.3440948-3.19954 2.6748082-4.816 3.992 1.698-3.037 3.57-6.134 5.563-9.275.885-5.903 1.954-11.997 3.042-18.143-6.056 13.877-15.2 26.724-23.632 37.624 3.412-11.799 8.76-24.813 13.912-37.872-2.66036 1.7486194-5.36421 3.4301495-8.109 5.043-5.15 9.047-11.194 17.482-16.911 25 1.712-6.107 3.937-12.54 6.383-19.14-1.36.721-2.709 1.425-4.04 2.11 1.78728-2.0369364 3.61939-4.0340915 5.495-5.99 4.752-12.546 10.087-25.564 14.047-37.961-12.611 15.985-24.7 35.048-36.845 48.948.53085-1.496293 1.07086-2.989321 1.62-4.479-1.79 3.846-3.657 7.55-5.49 11.061.501-4.789 1.296-9.846 2.238-15.052-4.706 4.599-9.533 8.868-14.147 12.795 4.682-8.804 10.778-18.13 17.04-27.6 2.622-12.927 5.316-26.087 6.06-37.849-3.43931.51464413-6.8741 1.05899779-10.304 1.633 4.444 29.412-16.157 56.818-33.672 77.04 3.476-9.926 8.42-20.664 13.452-31.553-6.846 13.465-16.69 25.728-25.714 36.096 8.733-24.743 26.607-54.511 32.193-79.128-4.44.843-8.892 1.732-13.35 2.669 4.017 24.63-11.614 48.932-25.168 67.193 5.517-20.602 17.55-45.475 21.977-66.515-1.145.246-2.29.494-3.435.746-.011 12.213-5.55 23.174-13.036 32.736-3.339 10.402-8.81 20.307-13.944 28.807.94-5.592 2.39-11.593 3.997-17.754-3.319 3.285-6.711 6.346-9.962 9.174 3.655-7.057 8.51-14.571 13.432-22.187 2.523-9.526 4.847-19.02 5.736-27.609-3.553.852-7.104 1.73-10.652 2.633-.47 28.326-22.932 52.218-41.821 69.781 10.276-21.556 28.523-46.452 37.864-68.763-4.31796 1.1227862-8.62677 2.2804907-12.926 3.473-.588 22.728-15.37 42.04-31.37 57.547-2.688 6.512-5.756 12.725-8.735 18.434.399-3.81.983-7.79 1.68-11.88-2.14107 1.9125335-4.30557 3.798676-6.493 5.658 2.343-4.408 5.042-8.947 7.938-13.569 3.066-15.91 7.075-32.852 8.048-47.622-1.51.476-3.016.955-4.52 1.437 1.874 27.713-17.534 53.382-34.16 72.579 7.751-22.132 22.795-48.293 29.851-71.185-6.19183 2.0201948-12.36186 4.1066478-18.509 6.259 4.177 27.312-12.746 54.488-27.502 75.024 5.71-22.72 18.302-50.107 23.266-73.53-4.03288 1.4344275-8.05564 2.8971302-12.068 4.388 3.76 23.017-7.786 45.429-20.896 64.036-1.146 5.033-2.47 9.904-3.801 14.493-.26-2.733-.442-5.57-.57-8.485-1.67297 2.228499-3.37242 4.436989-5.098 6.625 1.37-4.592 3.038-9.367 4.873-14.256-.293-17.166.549-36.083-1.522-51.88-2.18.891-4.346 1.787-6.495 2.686 7.125 26.715-6.78 55.578-19.243 77.598 3.24-23.301 12.876-52.028 15.236-75.91-1.5794.6701587-3.15674 1.3451619-4.732 2.025 1.325 27.527-18.197 52.802-34.905 71.714 7.824-21.654 22.717-47.124 30.147-69.643-2.47017 1.0842499-4.93487 2.1809304-7.394 3.29.167 23.136-15.771 44.668-29.55 60.994 6.091-18.131 17.629-39.364 24.08-58.5-5.45183 2.509166-10.87225 5.0860319-16.26 7.73 2.594 27.434-15.734 53.584-31.547 73.248 6.81-21.984 20.497-48.102 26.88-70.934-4.02466 2.013951-8.02723 4.0717401-12.007 6.173 2.568 24.03-12.99 47.317-26.485 64.898 5.52-19.362 16.91-42.436 22.179-62.596-3.90796 2.1056293-7.78829 4.2621461-11.64 6.469.653 23.178-14.924 45.049-28.429 61.655 5.707-18.071 16.704-39.284 22.84-58.397-.867.514-1.726 1.028-2.575 1.54-4.469 18.167-20.507 32.627-34.087 43.427 6.964-12.104 17.689-25.453 25.963-38.392-1.098.702-2.18 1.4-3.242 2.097-11.828 23.328-39.002 36.697-61.31 45.955 7.392-7.171 16.388-14.408 25.557-21.737zm433.96-130.185c-8.043-1.275-16.406-2.153-25.036-2.666 3.214 12.374 1.145 24.681-3.48 36.251 10.55-11.159 21.11-22.482 28.516-33.585zm-42.84-3.216c-5.94-.023-11.982.105-18.11.375 2.17 5.446 3.383 11.058 3.844 16.742 5.431-5.703 10.348-11.419 14.266-17.117zm-30.686 33.278c3.89-10.762 7.061-21.238 8.28-30.751.55308 1.77286577 1.01502 3.57288913 1.384 5.393.149-2.53.227-5.006.22-7.418-1.227.062-2.457.13-3.691.202-2.419 2.267-4.812 4.75-7.184 7.394.63 10.957-1.959 21.757-6.254 32.023 2.402-2.272 4.827-4.554 7.245-6.843zm.46-32.195c-.756.054-1.513.11-2.27.17.055.3.104.602.155.903.694-.372 1.4-.73 2.114-1.073zm-5.713 3.173c.212-.931.412-1.857.597-2.774-4 .334-8.026.723-12.079 1.163-.25 4.678-1.096 9.207-2.423 13.587 4.109-4.607 8.714-8.686 13.905-11.976zm-15.119-1.2c-4.76.551-9.552 1.172-14.37 1.861 1.926 6.828 2.305 13.861 1.62 20.886 4.865-7.707 9.336-15.357 12.75-22.748zm-30.705 4.428c-3.4075.58306906-6.81028 1.19342197-10.208 1.831 2.456 12.596.213 24.84-4.538 36.339 5.997-13.083 11.7-26.183 14.746-38.17zm-33.506 6.621-1.505.336c-2.60616.5868705-5.2092 1.1875456-7.809 1.802 1.177 4.247 1.624 8.553 1.507 12.858 3.027-5.096 5.742-10.13 7.807-14.996zm-42.487 10.738c-7.3639 2.0740896-14.7002 4.2449441-22.007 6.512 2.867 9.916 2.45 20.271.235 30.414 8.228-12.443 16.416-25.034 21.772-36.926zm-72.486 23.813c-6.75707 2.5383249-13.48322 5.1581827-20.177 7.859 5.164 10.288 6.454 21.896 5.722 33.522 5.728-14.101 11.459-28.385 14.455-41.381zm-94.587-6.019c8.732 5.34 16.38 12.11 21.51 20.92 7.59547-3.6313907 15.24879-7.1405103 22.957-10.526-12.86-4.792-28.72-7.661-44.467-10.394zm63.296 2.336c-22.889-11.494-59.248-15.273-85.263-23.643 28.265-1.857 65.04-1.615 85.263 23.643z" fill="#88ab79" fill-rule="nonzero"/><path d="m570.114 1-.246 1.347 26.991 25.265 4.395-26.612zm35.998 0-1.317 33.077 9.77 1.67 2.821-34.747zm17.823 0 2.766 32.603 5.362-32.603zm8.433 0 1.862 41.82 44.716 26.425 10.578-34.227-2.276 36.693 38.45 10.19-.474-21.906 10.47 22.822 81.894 13.243-5.552-17.255-41.676-32.505 41.39 23.795-2.541-31.358-47.073-7.61 43.281-1.927-9.117-28.2h-163.93zm1165.048 700-25.704-81.588-50.661 45.245 50.924-55.464-12.386-15.815-99.91 102.88-7.926-7.365 104.04-103.351-14.106-19.263-112.73 118.664 106.622-128.648-24.28-48.185-59.903 57.971 52.392-67.64-58.2-55.928-35.05 79.447 19.03-90.025-70.84-78.754-27.93 30.056-14.079 103.242-.038-88.05-44.32 61.602 38.895 60.145-43.097-52.972-8.593 9.247 50.125 61.967-67.08-37.099-24.369 40.134 99.261 62.079-99.854-52.168-19.644 90.686 163.129 37.724-160.49-26.655 148.827 39.206-147.26-31.184 2.412 30.11 112.909 9.749zm-361.494 0-32.038-3.018.958 3.018z" fill="#657f5a" fill-rule="nonzero"/><path d="m1764.161 25.622c131.47 12.317 66.054 84.253 140.326 95.173 5.21781.763394 10.39503 1.782285 15.513 3.053v358.82c-15.66 9.566-30.68 19.628-40.784 31.44-51.458 60.155-86.346 85.384-148.019 37.9-39.379-30.32-15.27-67.924-57.777-113.671-14.214-15.295-114.286-67.548-79.275-178.262 19.938-63.05 75.329-20.694 67.052-85.159-9.254-72.082 35.928-155.575 102.964-149.294z" fill="#60719f" fill-rule="nonzero"/><path d="m1766.426 701 9.22-273.765c-17.316-18.116-144.265-133.708-134.989-141.5 7.429-5.74 118.888 94.226 134.99 111.071l3.098-87.561c-14.758-13.357-95.412-87.6-87.432-94.293 5.308-6.173 75.334 53.275 87.432 63.866 0-25.828 6.803-124.371 14.408-122.924 15.639-1.447 27.631 201.563 27.631 240.573 10.767-11.263 71.88-67.704 99.216-87.974v22.73c-27.9 35.738-87.587 90.746-99.216 102.912v266.865z" fill="#46587e" fill-rule="nonzero"/><path d="m1810.27 663.989c7.353 11.037 9.956 23.658 10.363 37.011h-199.23c-38.794-37.203-65.94-79.17-98.988-128.145-20.374-30.202-75.022-92.81-49.153-118.461 24.897-24.688 121.21 33.7 173.908 66.478 61.41 38.2 122.995 82.935 163.1 143.117z" fill="#fc7d6f" fill-rule="nonzero"/><path d="m1507.916 484.893c90.107 70.68 133.657 143.75 192.567 216.107m-169.494-166.057c11.43.291 22.857.588 34.288.879l-10.38-42.655m56.633 37.123c-.599 18.182-1.207 36.364-1.807 54.546-15.223.983-30.452 1.971-45.675 2.955m85.942 48.05 7.57-48.87m-17.48 88.274c15.067 2.23 30.133 4.45 45.2 6.681"/><g fill-rule="nonzero"><path d="m1506.996 486.07c-.61345-.518661-.70736-1.429404-.21264-2.062323.49472-.63292 1.40119-.761727 2.05264-.291677 18.79736 14.734599 36.73821 30.530297 53.735 47.31l-9.127-37.507c-.19413-.802746.29925-1.610871 1.102-1.804999s1.61087.299253 1.805 1.101999l10.282 42.255c15.138 15.205 28.85 30.482 41.725 45.802l.765-23.074c.306-9.186.61-18.371.913-27.556.01661-.533933.31681-1.018445.78752-1.271025s1.04041-.234854 1.4945.0465.72359.783592.70698 1.317525c-.303 9.186-.608 18.371-.913 27.556-.293 8.807-.586 17.615-.876 26.422 13.24 15.91 25.624 31.864 37.814 47.83l7.034-45.4c.08146-.527681.43824-.971822.93595-1.16512.49772-.193297 1.06075-.106384 1.477.228.41626.334385.62251.865439.54105 1.39312l-7.474 48.24c2.761 3.623 5.515 7.247 8.269 10.871 8.76 11.53 17.52 23.06 26.549 34.6.054.06.104.123.148.19 4.97661 6.367105 10.01451 12.686065 15.113 18.956.51189.641227.41133 1.575192-.22533 2.092752-.63666.517559-1.57148.425289-2.09467-.206752-5.00915-6.159933-9.95938-12.367549-14.85-18.622-7.41-1.097-14.82-2.192-22.231-3.286-7.46-1.102-14.92-2.204-22.379-3.308-.52965-.077527-.9777-.431727-1.17538-.929178-.19769-.49745-.11497-1.062576.217-1.4825.33196-.419923.86273-.630849 1.39238-.553322 7.46 1.104 14.919 2.207 22.379 3.308l19.124 2.827c-8.237-10.579-16.292-21.18-24.346-31.781-2.86045-3.766195-5.72378-7.530196-8.59-11.292-.04351-.050604-.0836-.104056-.12-.16-12.797-16.787-25.766-33.562-39.677-50.286l-44.925 2.907c-.82096.045212-1.52473-.580152-1.57636-1.400732s.56821-1.529224 1.38836-1.587268l42.735-2.766c-12.972-15.467-26.788-30.887-42.056-46.23l-16.383-.42c-5.765-.148-11.53-.297-17.296-.444-.80823-.041677-1.43656-.718943-1.4176-1.52803.01895-.809087.6783-1.456187 1.4876-1.45997l17.296.443 13.24.34c-17.23655-17.100462-35.45546-33.181415-54.564-48.161z" fill="#cc5a4e"/><path d="m637.27 701c-71.006-50.096-246.959-211.245-253.308-293.559-4.186-54.275 88.743-112.012 79.631-139.185-8.168-24.362-56.35-35.59-103.29-35.59h58.225c29.512 1.188 54.747 10.23 68.004 31.179 30.188 47.701-71.609 111.753-10.068 177.27 61.231 65.186 415.103 246.165 507.842 259.885z" fill="url(#b)"/><path d="m633.661 701c-2.115173-.888655-4.217715-1.807079-6.307-2.755-12.066-18.02-12.685-41.538-10.318-66.544 3.995 7.4 9.086 13.586 15.187 18.365-2.333-11.006-6.39-22.166-3.201-32.75 34.5-35.741 47.022-44.573 100.367-53.206 1.48 13.53 1.905 26.836-.155 39.62-4.756 4.079-9.646 6.325-14.457 7.709 4.402.818 9.505.843 13.859-1.275 2.37 6.96 2.281 13.991 1.885 20.09-9.63 7.386-19.597 11.726-29.6 15.73 8.892-1.006 20.492-3.848 29.656-8.649-2.144 13.89-6.982 29.138-13.835 39.744-13.972 1.804-28.978-.187-43.44-2.542 12.603 4.75 25.45 6.426 40.801 8.137-2.54 6.134-6.05 12.351-9.688 18.326z" fill="#edb483"/><path d="m690.104 605.182c-24.075 30.04-50.976 60.546-66.842 95.818h6.738c22.665-51.094 31.402-45.208 60.104-95.818z" fill="#e2924b"/><path d="m405.783 701c9.133-2.616 18.165-5.852 27-9.774-9.768-18.371-12.074-45.83 3.933-67.692 18.236 20.36 22.566 40.22 7.053 62.4 14.869-7.748 29.035-17.608 42.005-29.924-17.418-21.798-31.18-41.761-15.16-71.327 22.78 21.767 31.438 38.167 21.696 64.801 8.34-8.75 16.117-18.61 23.18-29.683-22.41-21.235-31.106-48.114-22.216-82.751 24.78 13.843 36.929 42.486 29.4 70.606 5.373-9.801 10.237-20.44 14.504-31.977-1.759-29.165 7.671-67.686 37.85-83.537 7.48 33.955-6.27 67.326-36.75 85.775-1.83 9.068-8.85 27.35-13.691 36.667-.36.692-.722 1.382-1.087 2.07 22.154-16.668 49.911-30.921 78.11-15.538-23.606 24.581-50.222 35.43-81.484 21.666-6.212 10.894-13.286 21.187-21.334 30.68 17.969-7.428 42.078-8.028 61.817 6.183-22.296 20.31-44.088 23.66-69.323 2.134-11.946 12.428-25.828 23.207-41.958 31.8 11.35-.663 23.838 1.526 35.052 7.421h-45.689c-.376833-.573686-.747521-1.151386-1.112-1.733-1.35823.595093-2.724008 1.172807-4.097 1.733z" fill="#89b878"/><path d="m401.56 206.844c38.98-10.346 38.947 8.05 39.769 25.821h-162.053c-12.618-6.986-14.89-14.376 2.97-22.555-1.495-16.568 4.463-23.905 19.588-19.888-6.51-22.11-3.685-33.095 18.698-20.775 18.934-17.551 34.185-17.373 44.817 5.045 34.493-7.404 37.48 10.747 36.21 32.352z" fill="#4a5980"/><path d="m476.914 95.29 60.202 58.618v78.757h-118.589v-78.757z" fill="#edb483"/><path d="m405.853 153.908h-85.32v78.757h97.994v-78.757l58.387-58.619 60.202 58.619h12.674l-73.07-71.149z" fill="#db8a81"/><path d="m345.471 170.676h35.494v61.989h-35.494z" fill="#818ba4"/><path d="m378.05 82.759-70.869 71.149h98.672l70.868-71.15z" fill="#46587e"/><path d="m333.754 228.497c-29.723-7.89-29.699 6.138-30.325 19.689h123.567c9.621-5.327 11.354-10.963-2.265-17.199 1.14-12.633-3.403-18.227-14.936-15.164 4.964-16.86 2.81-25.236-14.257-15.842-14.438-13.382-26.067-13.247-34.174 3.847-26.3-5.645-28.58 8.195-27.61 24.669z" fill="#89b878"/><g fill="#759668"><circle cx="360.963" cy="229.572" r="5.091"/><circle cx="383.144" cy="205.018" r="5.091"/><circle cx="402.154" cy="237.833" r="5.091"/><circle cx="322.945" cy="235.57" r="5.091"/></g><path d="m457.073 162.228h33.103v33.103h-33.103z" fill="#fff"/><path d="m.024.18h9.28v9.28h-9.28zm13.921 0h9.28v9.28h-9.28zm0 13.92h9.28v9.28h-9.28zm-13.921 0h9.28v9.28h-9.28z" fill="#847c90" transform="translate(462 167)"/><path d="m538 219.991c-10.923-2.135-16.912 1.078-15.165 12.675h76.721c3.238-12.163-1.804-15.452-13.352-11.77-5.688-11.233-13.4-13.511-23.763-4.072-10.527-6.974-18.743-6.157-24.441 3.167z" fill="#468572"/><path d="m247.311 697.24c-4.289 1.483-9.216 2.731-14.579 3.76h-91.96c19.699-35.506 50.867-101.208 82.055-127.203 46.034-38.37 91.48-52.994 147.998-72.906 26.4-9.296 83.533-37.795 97.591-13.594 13.531 23.292-48.534 83.584-83.11 116.412-40.297 38.255-85.484 75.374-137.995 93.531z" fill="#26715b"/></g><path d="m439.029 507.152c-91.575 69.722-170.755 79.418-259.229 133.487"/><path d="m438.272 506.16c.54759-.41808 1.33042-.31309 1.7485.2345s.31309 1.33042-.2345 1.7485c-14.507087 11.052763-29.62937 21.273843-45.294 30.614l29.304.475c.687594.011046 1.236045.577406 1.225 1.265-.011046.687594-.577406 1.236046-1.265 1.225l-33.372-.54c-14.154 8.26-28.086 15.458-41.89 22.03l17.172 5.088c6.63 1.965 13.262 3.93 19.893 5.893.660809.194128 1.039128.887191.845 1.548s-.887191 1.039128-1.548.845l-19.893-5.894c-6.617-1.96-13.235-3.922-19.852-5.881-14.312 6.72-28.492 12.807-42.644 18.745l32.177 13.931c.61809.280223.897894 1.00384.629115 1.626992s-.987113.916251-1.615115.659008l-34.374-14.883c-3.217 1.345-6.432 2.685-9.648 4.025-10.29 4.288-20.583 8.578-30.914 13.056l-.075.032c-25.627 11.109-51.498 23.384-78.197 39.7-.586004.337011-1.333823.14573-1.686039-.431263-.352215-.576994-.182788-1.329558.387039-1.696737 26.69-16.311 52.516-28.585 78.085-39.68 2.223-5.231 4.445-10.463 6.666-15.694l6.862-16.155c.273191-.627762 1.001411-.917876 1.631436-.649944.630024.267932.926218.993701.663564 1.625944l-6.862 16.155-5.64 13.283c9.395-4.045 18.759-7.948 28.122-11.85 18.338-7.641 36.672-15.282 55.222-23.99l6.53-33.904c.0836-.438008.394524-.798143.81565-.944747s.888474-.057404 1.226.234.49395.740739.41035 1.178747l-6.187 32.117c13.94-6.618 28.009-13.867 42.297-22.2 4.21-14.617-.507 1.775 3.494-12.106 1.623-5.634-2.365 8.203 3.662-12.727.115049-.437358.457528-.778362.895379-.891522s.902669.019203 1.215222.34605.424012.797115.291399 1.229472c-3.583 12.444.397-1.39-3.672 12.726-1.55 5.381 2.814-9.763-2.756 9.583 15.971943-9.464765 31.380872-19.848906 46.149-31.1z" fill="#1d5745" fill-rule="nonzero"/><path d="m271.911 568.534c-4.576 10.77-9.146 21.54-13.723 32.31m41.098-17.309 34.865 15.095m51.057-23.24c-13.402-3.968-26.801-7.943-40.202-11.91 2.218-11.509 4.433-23.022 6.65-34.53"/><path d="m1410.34 701 15.715-51.594-15.303-18.062-11.691 40.785 7.12-45.482-6.09-1.784-9.306 46.742 1.428-46.273-6.077 21.253 1.969-27.672-26.492-20.108-9.255 20.99 4.156-23.171-23.704-9.32-1.315 13.97-4.975-15.29-51.113-14.467 2.258 11.386 24.11 23.75-24.57-18.19-.698 20.133 29.38 8.315-27.672-1.969 9.163 45.87 36.73-14.72-34.475 20.345 5.171 12.906 39.964-30.609 5.5 7.014-43.013 26.837 8.326 18.415h11.848l16.772-6.72-9.6 6.72z" fill="#f0eddf" fill-rule="nonzero"/><path d="m262.12 267.017c12.757 6.65 24.339 16.157 34.12 24.862-21.106-7.713-46.01-22.523-67.802-29.449-.233595 1.049153-.704286 2.0309-1.376 2.87 18.823 13.9 47.416 25.04 67.297 37.628-24.379-4.627-54.987-12.615-69.487-35.813-.835992.446472-1.753115.720555-2.697.806 15.45 16.237 38.23 32.021 53.533 47.372-22.305-9.697-49.732-23.866-59.308-48.742-2.277039-.82213-4.545494-1.667842-6.805-2.537 11.608 19.707 31.615 40.693 43.846 59.556-20.127-14.328-44.471-34.266-48.115-61.222-3.463251-1.37888-6.908862-2.801662-10.336-4.268 7.382 18.913 22.115 40.165 30.259 58.452-15.567-15.244-34.025-35.938-33.614-59.9-4.68949-2.048382-9.34995-4.162591-13.98-6.342 8.484 21.783 26.616 46.437 36.65 67.665-18.46-17.28-40.516-40.97-39.49-69.01-1.946492-.928316-3.888184-1.866662-5.825-2.815 4.098 22.74 16.268 49.841 21.562 72.15-14.137-20.233-30.358-47.152-24.793-73.742-1.253295-.622406-2.504635-1.248742-3.754-1.879-.534 13.881 1.527 30.062 2.86 45.242 2.217 4.533 4.26 8.972 5.997 13.26-1.825767-1.911301-3.628893-3.844103-5.409-5.798.285 4.2.466 8.273.467 12.145-2.374-5.996-4.786-12.53-6.743-19.323-14.023-16.765-26.393-37.228-23.676-59.58-7.138622-3.969512-14.21839-8.043954-21.237-12.222-1.56 18.054 5.291 42.86 6.496 62.09-8.509-18.1-17.828-42.31-6.598-62.15-1.200097-.714717-2.398434-1.432386-3.595-2.153-5.197 20.357-3.945 48.64-7.24 69.914-5.005-22.05-9.451-50.724 5.793-70.787-4.000231-2.418069-7.981026-4.868148-11.942-7.35-5.459 23.687-.937 57.968-2.902 83.77-7.955-25.638-15.854-59.558 2.811-83.828-1.5359764-.962608-3.0689837-1.929946-4.599-2.902-6.205 13.92-9.563 32.738-13.444 49.977.733 4.993 1.33 9.844 1.68 14.457-1.1579072-2.375879-2.287653-4.76538-3.389-7.168-1.005 4.086-2.071 8.022-3.248 11.71-.439-6.433-.75-13.392-.548-20.459-8.254-20.22-13.813-43.456-4.456-63.913-4.0271429-2.741458-8.031283-5.516555-12.012-8.325-1.628 23.75 5.736 55.112 6.519 79.564-10.26-23.68-21.293-54.976-7.964-80.585-3.091346-2.190838-6.1680808-4.40222-9.23-6.634-3.369 21.14 2.167 50.714 1.712 73.302-8.216-22.047-16.786-51.28-2.067-73.56-4.2370087-3.0916-8.4445321-6.223408-12.622-9.395-2.292 23.676 4.12 55.171 4.179 79.59-9.545-23.943-19.636-55.505-5.631-80.695-1.6107162-1.22852-3.216728-2.463196-4.818-3.704-5.989 22.339-6.488 52.111-11.189 74.595-4.157-24.107-7.376-55.03 8.477-76.705-.9868527-.771974-1.9718555-1.546309-2.955-2.323-5.615 11.273-10.186 24.95-14.86 37.876.457 11.004.863 21.82.338 31.472-1.9-5.686-3.806-11.785-5.42-18.104-.50029363 1.227105-1.01365613 2.448841-1.54 3.665v-53.46c1.445-4.761 3.523-9.357 6.371-13.7-2.13484453-1.776361-4.25855277-3.566062-6.371-5.369v-18.717c2.15088309 1.903542 4.31426322 3.792916 6.49 5.668 16.282-17.24 43.648-19.454 65.255-19.752-18.739 7.718-44.461 12.977-62.903 21.77.846.723 1.694 1.444 2.545 2.164 9.229-7.036 20.7-9.175 32.238-9.039 9.78-3.478 20.416-5.06 29.796-6.086-4.765 2.516-10.132 4.883-15.712 7.222 4.395.612 8.663 1.408 12.674 2.232-7.437 1.31-15.911 1.979-24.501 2.654-8.649 3.59-17.16 7.311-24.156 11.594 2.6951824 2.193482 5.4055813 4.368202 8.131 6.524 21.66-15.984 52.658-12.802 76.816-8.669-22.205 4.673-51.529 5.255-73.764 11.07 3.337 2.613 6.698 5.2 10.077 7.758 17.502-12.666 40.611-12.643 61.55-9.505 6.468-1.726 12.929-2.994 18.958-4.037-3.107 1.897-6.45 3.751-9.939 5.584 2.74.523 5.42 1.078 8.017 1.64-4.68.773-9.664 1.353-14.825 1.832-13.782 6.861-28.888 13.607-40.602 21.391 1.23.866 2.46 1.727 3.692 2.585 19.846-17.4 50.423-17.551 74.509-16.069-21.183 6.912-49.615 10.642-70.972 18.518 5.0971794 3.510551 10.2318072 6.966416 15.403 10.367 18.214-18.908 48.497-21.804 72.516-22.507-20.45 8.794-48.394 15.081-68.944 24.843 3.4092052 2.218041 6.8339565 4.412095 10.274 6.582 15.212-16.116 38.795-20.324 60.408-21.157 4.462-2.037 8.903-3.847 13.136-5.489-1.980963 1.825757-4.007606 3.601321-6.078 5.325 2.706-.025 5.361-.01 7.943.028-4.258 1.614-8.825 3.109-13.576 4.542-12.793 10.124-27.563 20.399-38.298 31.075 1.920464 1.126123 3.84548 2.244466 5.775 3.355 16.064-20.79 45.879-26.939 69.695-30.228-19.465 10.993-46.715 20.287-66.109 32.28 1.423.81 2.843 1.612 4.258 2.405 20.022-16.878 50.368-16.716 74.286-15.007-20.864 6.582-48.687 10.027-69.978 17.405 2.243791 1.240003 4.49382 2.468685 6.75 3.686 17.374-13.47 42.827-13.855 63.103-12.867-17.206 5.859-39.894 9.393-58.065 15.56 5.039729 2.669629 10.112455 5.276497 15.217 7.82 19.219-17.784 49.536-19.027 73.506-18.429-20.528 7.538-48.145 12.268-69.067 20.618 3.842188 1.877431 7.704752 3.712873 11.587 5.506 16.663-15.8 43.222-17.484 64.282-17.434-17.805 6.999-41.798 11.707-60.06 19.358 3.949 1.781 7.82 3.47 11.598 5.057 17.126-13.861 42.626-14.714 62.955-14.095-16.938 6.114-39.299 10.046-57.27 16.437.888.358 1.77.71 2.648 1.056 16.295-7.104 36.465-3.334 52.454.691-13.158 1.723-29.424 1.324-43.967 2.539 1.163.425 2.315.838 3.453 1.24 24.439-4.525 50.208 8.284 70.065 19.788-9.678-1.445-20.332-4.064-31.155-6.76zm-262.12-238.616c.308.057.616.116.923.174 5.146-1.32 10.224-2.416 15.057-3.375-2.6208722 1.6819637-5.284413 3.2964936-7.988 4.842 1.97.435 3.903.883 5.793 1.334-3.273.47-6.692.842-10.213 1.15-1.18717952.6533969-2.37786339 1.3004062-3.572 1.941zm0 10.05c10.31-1.425 20.723-1.672 30.159-1.614-9.05 3.518-19.51 6.51-30.159 9.514zm0 12.13c.677.267 1.351.537 2.022.81 9.802-1.33 19.658-1.631 28.632-1.65-5.598 2.23-11.74 4.26-18.134 6.219 1.329.612 2.638 1.224 3.923 1.834-2.5-.166-5.07-.403-7.693-.694-2.887.862-5.812 1.714-8.75 2.569v-9.089zm0 17.335c10.567-.313 20.925-.55 30.197.062-1.414.454-2.855.909-4.317 1.36 3.937-.867 7.81-1.593 11.52-2.235-3.906 2.384-8.183 4.7-12.658 6.992 6.188.902 12.195 2.084 17.822 3.303-9.349 1.543-19.907 2.32-30.67 3.052-3.974 1.93-7.974 3.87-11.894 5.845v-18.38zm0 26.796c19.234-10.514 44.231-10.43 64.591-9.178-9.5 3.1-20.46 5.56-31.585 8.042 14.116-2.597 29.054-2.236 42.089-1.403-22.58 7.308-53.373 10.988-75.095 19.933v-3.56c7.411-6.652 16.36-10.835 25.929-13.385-8.935 2.022-17.8 4.147-25.929 6.718zm12.926 32.813 1.122.943c1.944 1.627 3.9 3.246 5.865 4.857 2.528-3.338 5.522-6.16 8.84-8.555-5.593.654-10.962 1.507-15.827 2.755zm-7.01 42.214c2.854-7.322 6.781-14.093 12.237-19.666-3.5911285-2.867922-7.1556148-5.769046-10.693-8.703-1.424 8.564-1.703 18.281-1.545 28.369zm39.625-16.324c5.8136971 4.364348 11.684538 8.652052 17.611 12.862 5.834-7.886 13.894-13.544 22.83-17.721-14.14.964-28.371 2.043-40.44 4.859zm30.09 78.951c2.37-11.37 7.06-22.01 15.777-30.066-6.9603354-4.436744-13.858342-8.97052-20.692-13.6-.255 13.165 2.287 28.491 4.915 43.666zm29.702-37.951c5.814049 3.638249 11.671809 7.206176 17.572 10.703 4.79-9.834 12.812-17.504 22.014-23.657-13.953 3.808-28.044 7.72-39.586 12.954zm50.013 74.896c-1.004-9.674-.303-19.355 3.39-28.31-7.123199-3.640946-14.187444-7.396097-21.19-11.264 3.8 12.476 10.78 26.108 17.8 39.574zm-34.746-49.144c4.523 23.914 22.642 53.55 31.326 78.022-17.704-20.273-38.734-48.182-31.326-78.022z" fill="#25705b" fill-rule="nonzero"/><path d="m308.057 47.36c11.247 5.42 21.552 13.35 30.273 20.632-18.517-6.113-40.522-18.28-59.613-23.69-.173619.9160054-.554691 1.7800892-1.114 2.526 16.706 11.54 41.81 20.422 59.397 30.797-21.27-3.347-48.037-9.44-61.246-29.164-.713206.4098891-1.50145.6724102-2.318.772 13.844 13.661 34.033 26.73 47.725 39.626-19.606-7.8-43.776-19.337-52.765-40.644-1.954-.618-3.914-1.242-5.88-1.874 10.618 16.73 28.469 34.327 39.56 50.306-17.785-11.835-39.35-28.385-43.36-51.533-2.92-.947-5.85-1.91-8.788-2.891 7.008 15.998 20.06 33.701 27.502 49.09-13.727-12.623-30.041-29.767-30.77-50.187-3.816804-1.2876655-7.624891-2.6010286-11.424-3.94 8.234 18.137 23.794 38.175 32.742 55.66-16.047-14.1-35.212-33.378-36.102-56.853-1.530765-.5470986-3.059773-1.0991015-4.587-1.656 4.56 19.047 15.119 41.06 20.096 59.438-12.363-16.558-26.578-38.461-23.88-60.83-.975-.362-1.95-.727-2.923-1.093.241 11.367 2.247 24.182 3.694 36.277 2.047 3.871 3.94 7.665 5.564 11.337-1.635834-1.6078412-3.252614-3.2349548-4.85-4.881.362 3.634.63 7.162.737 10.52-2.223-5.135-4.493-10.737-6.376-16.575-11.543-12.949-21.972-28.619-22.333-46.09-3.7-1.574-7.387-3.19-11.055-4.855 6.2 19.145 20.078 41.152 27.372 59.82-14.737-15.84-32.124-37.284-30.148-61.09-1.578539-.7286573-3.152898-1.466336-4.723-2.213.802 14.737 5.942 32.649 7.301 47.053-7.062-13.87-14.823-31.985-9.715-48.21-.673-.324-1.345-.651-2.017-.98-2.447 16.982-1.216 38.098-3.234 54.534-4.465-17.15-8.682-38.997-.121-56.194-2.812524-1.40669363-5.608384-2.84646012-8.387-4.319-2.055 19.996 1.702 45.667.811 65.645-6.941-20.111-14.03-46.217-3.376-67.017-.964-.52-1.925-1.045-2.884-1.574-3.49 11.205-5.552 24.635-7.954 37.132.772 4.31 1.422 8.5 1.852 12.491-1.069133-2.0288889-2.114206-4.0703653-3.135-6.124-.761 3.572-1.578 7.015-2.498 10.246-.557-5.568-1.016-11.595-1.034-17.73-5.31-11.92-9.55-25.117-9.21-38.056h6.522c1.037 6.959 2.497 14.198 3.978 21.397 1.34-7.615 3.873-14.894 8.295-21.132l-.468-.264h29.718c-.372.37-.739.74-1.1 1.111.972.469 1.946.934 2.922 1.395.608939-.8571344 1.24732-1.69296665 1.914-2.506h7.708c-2.184226 1.26811825-4.330179 2.60104313-6.435 3.997 1.557.72 3.118 1.433 4.683 2.136 2.228441-2.29375224 4.689718-4.34917356 7.344-6.133h17.734c-8 2.12-15.712 4.444-22.451 7.304 3.934 1.74 7.89 3.428 11.859 5.067 6.03-6.195 13.704-10.028 21.97-12.371h25.19c-14.551 4.35-31.343 7.938-44.296 13.544 5.420076 2.1995548 10.870953 4.3224333 16.351 6.368 15.975-17.715 43.471-19.768 65.083-19.91-18.517 7.47-43.927 12.457-62.098 21.019 3.964819 1.460128 7.941621 2.8875099 11.93 4.282 13.904-15.125 37.584-17.404 56.304-17.95-15.724 6.76-37.218 11.587-53 19.1 3.723187 1.2849825 7.454258 2.5470065 11.193 3.786 14.465-12.847 36.83-14.312 54.659-14.33-14.653 5.817-34.154 9.858-49.634 15.982.826.27 1.651.538 2.475.805 13.98-6.765 31.71-4.03 45.775-.956-11.382 1.856-25.527 1.952-38.122 3.409 1.03.326 2.057.652 3.083.975 21.073-4.594 43.775 5.813 61.313 15.249-8.433-.99-17.746-2.97-27.206-5.013zm-178.607-46.36c2.047 15.146 5.33 31.107 6.193 44.682-6.18-13.116-12.726-28.992-13.628-44.682zm-10.404 0c1.148 11.396 2.676 22.989 2.79 33.034-4.036-9.866-8.206-21.429-9.541-33.034zm-9.538 0c1.38 10.579 2.803 21.07 3.12 30.403-3.99-9.16-8.114-19.635-10.437-30.403zm-13.302 0c-.65 7.902-1.394 15.58-2.613 22.49-1.433-6.995-2.797-14.663-3.473-22.49h6.087zm-12.38 0c-.004.7-.014 1.392-.03 2.079-.253-.686-.507-1.38-.76-2.079zm-3.955 0c-.6918502 1.82749375-1.4236928 3.63959603-2.195 5.435.054-1.771.124-3.587.219-5.435zm135.64 51.265c-1.002-7.386-.85-14.813 1.236-21.867-5.222967-1.9991386-10.417805-4.0710067-15.583-6.215 3.735 9.064 9.032 18.622 14.348 28.082z" fill="#88ab79" fill-rule="nonzero"/><path d="m205.46 143.398c8.076 6.945 14.823 15.751 20.407 23.676-13.917-9.12-29.375-23.996-43.92-32.662-.345146.716522-.849692 1.344553-1.475 1.836 11.228 13.194 29.965 26.047 42.176 38.474-16.796-7.446-37.517-18.366-44.058-37.536-.678216.181016-1.385898.223864-2.081.126 8.4 14.311 22.164 29.532 30.609 43.18-14.444-10.75-31.826-25.586-34.538-45.13-1.480681-.944186-2.959351-1.891522-4.436-2.842 5.066 16.13 15.905 34.57 21.526 50.186-12.052-13.674-26.181-32.069-24.386-52.033-2.208268-1.430903-4.41062-2.870916-6.607-4.32 2.252 14.732 9.111 32.201 11.855 46.526-8.535-13.43-18.206-31.156-14.304-48.149-2.862907-1.902792-5.712971-3.824835-8.55-5.766 2.79 16.764 11.201 36.712 14.725 53.096-10.121-15.158-21.672-35.271-17.231-54.818-1.14-.788-2.278-1.58-3.416-2.377-.44 16.705 3.415 37.179 3.468 53.425-6.543-16.373-13.435-37.56-6.28-55.406-.724168-.513024-1.447169-1.027692-2.169-1.544-2.306 9.424-3.476 20.43-4.948 30.72.834 3.641 1.56 7.186 2.088 10.57-.994019-1.685767-1.968087-3.383219-2.922-5.092-.502 3.075-1.058 6.042-1.71 8.834-.701-4.723-1.338-9.84-1.604-15.067-6.663-13.217-11.806-28.433-8.252-42.915-2.70692-2.1138334-5.388446-4.2599871-8.044-6.438.891 17.147 7.483 38.346 9.382 55.343-8.658-16.304-18.265-37.813-11.389-57-1.140797-.9488218-2.276149-1.9041708-3.406-2.866-2.587 12.325-2.296 28.224-4.35 40.398-2.765-12.99-5.171-29.634 2.617-41.881-.484-.417-.966-.834-1.447-1.253-5.76 13.458-9.397 31.136-14.683 44.241.098-15.12 1.436-34.06 12.284-46.348-2.0085079-1.779522-3.9959792-3.5826472-5.962-5.409-6.101 16.03-8.66 38.02-13.796 54.291-1.291-18.107-1.382-41.189 11.985-55.986-.6801936-.6413198-1.3575337-1.2856595-2.032-1.933-5.346 8.467-10.005 19.085-14.739 28.857-.313 3.723-.7 7.32-1.225 10.704-.434261-1.907734-.8459565-3.820534-1.235-5.738-1.414 2.776-2.846 5.434-4.316 7.895.768-4.713 1.717-9.782 3.054-14.842-2.22-13.938-2.571-29.188 4.155-41.598-1.9053067-2.1105802-3.7755627-4.25254-5.61-6.425-3.47 16.06-3.853 36.155-6.953 51.627-3.089-17.056-5.58-38.738 4.382-54.722-1.3955806-1.7096294-2.7670495-3.4388003-4.114-5.187-4.252 14.306-5.467 33.096-9.083 47.266-2.007-15.719-3.222-35.773 7.39-49.492-1.8954771-2.522714-3.7359115-5.0863192-5.52-7.689-4.286 16.188-5.205 37.096-8.88 52.984-2.657-17.63-4.538-40.131 6.92-55.897-.6876396-1.0410615-1.3656684-2.0884393-2.034-3.142-7.107 14.762-12.202 34.085-18.832 48.323 1.01-17.115 3.655-38.49 16.727-51.713-.417-.687-.83-1.377-1.239-2.07-5.695 7.308-11.093 16.17-16.462 24.345-.794 3.65-1.645 7.168-2.604 10.455-.183052-1.9480399-.3430632-3.8981763-.48-5.85-1.762 2.57-3.527 5.019-5.304 7.268 1.373-4.572 2.972-9.476 4.954-14.32-.399-14.339 1.293-29.77 9.93-41.265-.34-.771-.675-1.545-1.004-2.323h11.433c.89 1.953 1.816 3.885 2.777 5.798 2.57-2.28 5.45-4.003 8.527-5.288-1.871-.213-3.714-.388-5.515-.51h31.702c-1.387.258-2.798.504-4.225.745 3.066 1.182 6.009 2.476 8.761 3.745-5.582-.308-11.804-1.255-18.111-2.216-7.312 1.207-14.535 2.55-20.548 4.69.9478728 1.85182789 1.9283588 3.6867804 2.941 5.504 17.95-6.733 38.942.542 55.15 7.379-16.291-.363-36.763-4.63-53.502-4.481 1.4780505 2.5410245 3.015473 5.0470464 4.611 7.516 14.125-4.86 29.763-1.085 43.54 4.384 5.23-.2 10.384-.02 15.15.258-2.723.897-5.629 1.715-8.647 2.489 1.827.814 3.607 1.64 5.331 2.457-3.417-.226-7.013-.633-10.714-1.14-10.974 2.583-22.82 4.886-32.451 8.477.6313959.7912494 1.2680768 1.578267 1.91 2.361 17.438-10.285 40.267-5.097 57.859.175-17.114 1.47-39.312-.871-56.332 1.665 2.9861967 3.5624498 6.0724274 7.0398366 9.255 10.428 16.175-9.504 37.712-6.56 54.642-3.12-15.61 2.783-35.831 2.723-52 5.897 1.9595686 2.0307012 3.9491204 4.0322542 5.968 6.004 12.659-6.782 28.15-6.125 42.25-3.572 5.088-1.229 10.176-2.07 14.904-2.738-2.492 1.418-5.18 2.793-7.985 4.147 1.951.438 3.86.896 5.71 1.357-3.395.453-7 .764-10.728.997-9.718 4.455-20.253 8.819-28.764 13.881.698.6 1.4 1.199 2.103 1.794 15.085-12.514 37.782-11.925 55.615-10.271-15.958 4.665-37.29 6.77-53.319 12.2 1.125.938 2.255 1.87 3.39 2.794 17.612-10.563 40.69-5.095 58.42.408-17.185 1.307-39.449-1.274-56.515 1.134 2.86 2.302 5.75 4.565 8.662 6.79 15.279-9.111 35.403-4.803 50.944-.36-14.8 1.461-33.95-.253-48.844 1.957 3.983764 3.0080673 8.009833 5.959695 12.077 8.854 17.07-11.086 40.189-6.72 58.034-2.075-16.91 2.078-38.956.59-55.82 3.644 2.946366 2.077712 5.9098 4.131115 8.89 6.16 14.794-9.406 34.817-6.068 50.37-2.392-14.452 2.107-33.235 1.35-47.899 4.066 2.786168 1.87988 5.583888 3.742582 8.393 5.588 14.754-7.405 33.513-3.685 48.214.229-13.362 1.567-30.33.6-44.439 2.239l1.864 1.209c13.015-2.5 27.03 3.662 37.946 9.296-9.794-.978-21.478-4.017-32.183-5.59l2.328 1.483c18.385.853 34.808 14.435 47.186 26.078-6.733-2.673-13.973-6.358-21.32-10.126zm-172.55-142.398c-4.656 14.745-7.547 32.458-12.177 46.071-.712-14.5-.586-32.162 6.494-46.071h5.684zm-10.7 0c-7.65 11.002-14.835 24.002-22.21 34.222v-3.911c3.264-10.401 7.72-21.526 14.663-30.311h7.548zm-13.177 0c-3.058 2.752-6.08 5.415-9.033 7.764v-1.853c1.277-1.96 2.637-3.95 4.087-5.911h4.945zm26.944 30.87c3.106-4.895 6.855-9.286 11.463-12.641-2.1344939-3.7898389-4.1344083-7.6539163-5.996-11.585-2.23 7.484-3.876 15.877-5.467 24.225zm28.304-5.23c2.7610941 4.1145821 5.6679387 8.1294632 8.715 12.037 5.39-4.537 11.934-7.213 18.856-8.726-9.454-1.543-18.986-3.039-27.57-3.31zm12.579 60.339c2.782-5.983 6.475-11.426 11.495-15.594-3.1290162-3.0625327-6.1881369-6.1956724-9.175-9.397-1.27 7.778-1.82 16.41-2.32 24.99zm21.998-19.984c3.290413 3.1273476 6.64513 6.1863346 10.062 9.175 4.265-4.887 9.757-8.439 15.763-11.078-8.88.328-17.817.71-25.825 1.903zm29.241 60.057c.801-6.31 2.563-12.4 5.839-17.755-3.865914-2.799189-7.692619-5.652132-11.479-8.558 1.082 8.295 3.342 17.343 5.64 26.313z" fill="#25705b" fill-rule="nonzero"/><path d="m2.164 613.453c.052-12.93 1.113-25.977 3.363-38.986 22.62 5.588 53.071.588 72.439-22.77-27.095-14.24-49.848-13.515-69.694 9.393 4.35-18.264 11.187-36.343 21.017-53.795 28.433 12.96 53.874 22.448 81.604-3.03-29.865-18.79-50.042-23.71-76.304-5.852 7.224-11.449 15.806-22.588 25.901-33.286 29.186 18.535 60.753 20.632 95.94 1.511-21.807-23.127-56.234-28.493-84.714-12.63 9.175-8.515 19.399-16.704 30.764-24.492 32.153-6.061 71.41-26.83 80.374-63.936-38.919 1.157-71.401 25.21-83.107 63.354-9.347 4.465-27.282 17.086-36.077 24.889-.654.579-1.304 1.161-1.952 1.746 12.047-28.615 19.94-62.655-4.473-89.075-20.243 32.355-24.75 64.226-1.26 94.414-10.132 9.724-19.378 20.219-27.488 31.554 3.157-21.545-2.78-47.892-23.609-65.443-1.893 3.53-3.525 6.986-4.888 10.373v42.48c4.214 8.077 11.26 15.721 21.517 23.014-9.219 14.75-16.554 30.839-21.517 48.41v68.249c1.24-1.034 2.146-3.036 2.164-6.092z" fill="#f0eddf" fill-rule="nonzero"/><path d="m140.766 701c56.454-48.204 85.765-101.44 123.938-166.677 18.49-31.61 69.269-97.937 41.665-121.999-26.566-23.159-119.413 41.622-170.16 77.9-50.099 35.819-100.019 76.35-136.209 126.18v84.596z" fill="#89b878" fill-rule="nonzero"/><path d="m272.579 444.04c.617236-.526575 1.541915-.464289 2.082955.140307s.500663 1.530491-.090955 2.085693c-18.207956 16.264031-35.451584 33.576441-51.643 51.849l13.418-1.209c5.727-.516 11.455-1.033 17.183-1.548.822076-.071245 1.546255.537424 1.6175 1.3595s-.537424 1.546255-1.3595 1.6175c-5.729.515-11.456 1.031-17.184 1.548l-16.544 1.49c-14.33 16.38-27.197 32.747-39.215 49.105l43.06.018c.825113 0 1.494.668887 1.494 1.494s-.668887 1.494-1.494 1.494l-45.246-.018c-15.803 21.692-30.18 43.371-44.559 65.055-7.395 11.153-14.792 22.307-22.384 33.466l18.905-4.048c7.45-1.594 14.898-3.188 22.346-4.785.799164-.148857 1.571206.366832 1.739754 1.162076.168549.795244-.327915 1.579787-1.118754 1.767924-7.448 1.596-14.897 3.19-22.346 4.785-7.324 1.567-14.649 3.135-21.973 4.705-10.353 15.13-21.103 30.27-32.736 45.426h-3.78c12.246-15.859 23.507-31.704 34.337-47.542.027-.046.057-.09.09-.132 8.31-12.155 16.368-24.307 24.424-36.457 2.53-3.814 5.058-7.627 7.595-11.44l-10.608-47.909c-.177836-.805783.331217-1.603164 1.137-1.781s1.603164.331217 1.781 1.137l9.986 45.101c11.203-16.807 22.601-33.614 34.86-50.433l-2.583-26.451c-.898-9.194-1.797-18.387-2.693-27.58-.050374-.53179.186784-1.050058.62214-1.359579.435357-.30952 1.00277-.363269 1.4885-.141.485731.22227.815986.686789.86636 1.218579.896 9.194 1.794 18.387 2.692 27.58.753 7.704 1.506 15.408 2.257 23.112 11.93-16.202 24.701-32.414 38.911-48.648l7.59-43.051c.162591-.794611.927717-1.315772 1.726679-1.176117.798961.139656 1.341926.889467 1.225321 1.692117l-6.739 38.23c15.970788-17.930908 32.952074-34.935566 50.861-50.931z" fill="#4a5980" fill-rule="nonzero"/><path d="m153.277 644.619c-14.97 3.209-29.94 6.408-44.91 9.617m32.428-48.504-10.746-48.533m42.518-59.826c1.773 18.2 3.556 36.399 5.33 54.598 15.334.005 30.674.014 46.008.019m29.753-55.143c-11.448 1.029-22.89 2.063-34.338 3.092 2.554-14.482 5.107-28.974 7.66-43.456"/><path d="m1920 588.571c-28.723-37.116-45.69-49.028-102.13-65.912-3.931 16.125-6.552 32.145-6.086 47.929 5.104 5.685 10.66 9.175 16.26 11.61-5.454.293-11.627-.486-16.556-3.735-3.97 8.04-4.975 16.555-5.462 23.992 10.475 10.456 21.839 17.281 33.299 23.705-10.592-2.623-24.168-7.897-34.488-15.152.393 17.134 3.828 36.335 10.435 50.245 16.608 4.393 35.067 4.363 52.926 3.806-15.99 3.747-31.79 3.74-50.622 3.377 2.91 10.833 8.047 22.157 12.835 32.564h89.589z" fill="#e2924b" fill-rule="nonzero"/><path d="m1858.865 578.54c21.903 36.099 46.512 73.014 61.135 112.933v9.527h-4.506c-18.794-62.295-30.343-57.715-56.629-122.46z" fill="#bf7737" fill-rule="nonzero"/><path d="m391.455 7.109c12.481-2.434 25.302 7.237 34.977 11.792-5.564 3.554-12.616 3.896-16.714 1.733 5.821 8.144 9.268 16.383 4.865 24.7-7.826-3.01-16.367-8.804-16.965-14.745-1.695 10.172-11.346 14.535-17.172 13.568 4.793-11.154 2.77-23.452 11.01-37.048z" fill="#edb483" fill-rule="nonzero"/><path d="m1548.801 243.48c-5.278 7.082-3.11 18.01-3.133 25.451 3.936-2.406 6.236-6.716 6.12-9.978 3.369 6.132 7.487 10.72 14.01 10.485.476-5.82-.591-12.908-4.13-15.075 6.86 2.005 12.51-2.732 13.676-6.691-8.464-.292-15.574-5.254-26.543-4.192z" fill="#89b878" fill-rule="nonzero"/><path d="m533.727 62.015c3.189-8.242-1.826-18.163-3.758-25.384-3.12 3.396-4.233 8.123-3.232 11.213-4.885-4.972-10.049-8.331-16.278-6.385 1.066 5.803 3.995 12.306 7.99 13.458-7.19-.103-11.345 5.99-11.404 10.106 8.212-1.968 16.357.96 26.682-3.008z" fill="#ebe7d3" fill-rule="nonzero"/><path d="m1257.898 56.25c8.12-6.003 9.327-18.678 11.811-26.76-5.048 1.302-8.975 5.236-9.924 8.815-1.68-7.791-4.574-14.185-11.793-16.096-2.499 6.237-3.651 14.306-.509 17.819-6.854-4.445-14.604-1.163-17.138 2.785 9.094 3.174 15.163 10.939 27.553 13.437z" fill="#edb483" fill-rule="nonzero"/><path d="m1510.752 165.805c-9.483-3.423-14.27-15.17-19.043-22.242 5.258-.145 10.165 2.44 12.073 5.612-.623-7.922.39-14.93 6.73-18.836 4.159 5.304 7.608 12.65 5.602 16.952 5.258-6.224 13.65-5.283 17.238-2.252-7.843 5.596-11.452 14.848-22.6 20.766zm-23.977 447.858c7.191-12.6 1.455-29.907.047-42.11-5.905 4.764-8.823 12.205-7.936 17.454-6.75-9.244-14.317-16.005-24.962-14.322.413 9.643 3.577 20.938 9.777 23.757-11.607-1.886-19.888 7-21.024 13.62 13.838-1.154 26.388 5.536 44.098 1.601z" fill="#ebe7d3" fill-rule="nonzero"/><path d="m272.354 361.544c3.188 8.242-1.826 18.163-3.758 25.384-3.12-3.396-4.233-8.123-3.233-11.213-4.885 4.972-10.048 8.331-16.278 6.385 1.066-5.803 3.996-12.306 7.99-13.458-7.19.103-11.344-5.99-11.403-10.106 8.211 1.968 16.357-.96 26.682 3.008z" fill="#89b878" fill-rule="nonzero"/><path d="m402.276 615.296c13.627 4.98 29.73-3.572 41.525-7.003-5.686-5.024-13.51-6.656-18.537-4.903 7.984-8.202 13.382-16.794 9.941-27.007-9.438 2.022-20.044 7.032-21.785 13.617-.084-11.76-10.23-18.436-16.948-18.448 3.455 13.45-1.04 26.943 5.804 43.744zm-291.077-314.191c8.12-6.003 9.327-18.678 11.811-26.761-5.048 1.302-8.975 5.237-9.924 8.815-1.68-7.79-4.574-14.185-11.793-16.096-2.499 6.238-3.651 14.307-.509 17.82-6.854-4.445-14.604-1.163-17.138 2.784 9.094 3.175 15.163 10.94 27.553 13.438z" fill="#edb483" fill-rule="nonzero"/><path d="m1866.281 220.024c-10.09-.383-18.23-10.175-24.837-15.452 4.904-1.769 10.365-.732 13.166 1.69-3.002-7.383-4.214-14.296.672-19.943 5.58 3.745 11.078 9.762 10.462 14.435 3.157-7.535 11.41-9.19 15.727-7.357-5.724 7.747-6.362 17.581-15.19 26.627z" fill="#ebe7d3" fill-rule="nonzero"/><path d="m1781.45 118.437c7.19-12.6 1.455-29.907.047-42.11-5.905 4.763-8.823 12.205-7.936 17.454-6.75-9.244-14.317-16.005-24.962-14.322.413 9.643 3.577 20.938 9.777 23.757-11.607-1.886-19.888 7-21.024 13.62 13.838-1.154 26.388 5.536 44.098 1.601z" fill="#edb483" fill-rule="nonzero"/><path d="m569.001 232.666h-6.92v-49.507h6.92v7.547h6.921v-7.547h6.92v7.547h6.92v-7.547h6.92v7.547h6.921v-7.547h6.92v7.547h6.92v-7.547h6.921v7.547h6.92v-7.547h6.92v7.547h6.921v-7.547h6.92v7.547h6.92v-7.547h6.921v7.547h6.92v-7.547h6.92v7.547h6.921v-7.547h6.92v7.547h6.92v-7.547h6.921v7.547h6.92v-7.547h6.92v7.547h6.921v-7.547h6.92v7.547h6.92v-7.547h6.92v7.547h6.921v-7.547h6.92v7.547h6.921v-7.547h6.92v7.547h6.92v-7.547h6.92v7.547h6.921v-7.547h6.92v7.547h6.921v-7.547h6.92v7.547h6.92v-7.547h6.92v7.547h6.921v-7.547h6.92v7.547h6.921v-7.547h6.92v7.547h6.92v-7.547h6.92v7.547h6.921v-7.547h6.92v7.547h6.92v-7.547h6.921v7.547h6.92v-7.547h6.92v7.547h6.921v-7.547h6.92v7.547h6.92v-7.547h6.921v7.547h6.92v-7.547h6.92v7.547h6.921v-7.547h6.92v7.547h6.92v-7.547h6.92v7.547h6.921v-7.547h6.92v7.547h6.921v-7.547h6.92v7.547h6.92v-7.547h6.92v7.547h6.921v-7.547h6.92v7.547h6.921v-7.547h6.92v7.547h6.92v-7.547h6.92v7.547h6.921v-7.547h6.92v7.547h6.921v-7.547h6.92v7.547h6.92v-7.547h6.92v7.547h6.921v-7.547h6.92v7.547h6.92v-7.547h6.921v7.547h6.92v-7.547h6.92v7.547h6.921v-7.547h6.92v7.547h6.92v-7.547h6.921v7.547h6.92v-7.547h6.921v7.547h6.92v-7.547h6.92v7.547h6.92v-7.547h6.92v7.547h6.921v-7.547h6.92v7.547h6.921v-7.547h6.92v7.547h6.92v-7.547h6.92v7.547h6.921v-7.547h6.92v7.547h6.921v-7.547h6.92v7.547h6.92v-7.547h6.92v7.547h6.921v-7.547h6.92v7.547h6.921v-7.547h6.92v7.547h6.92v-7.547h6.92v7.547h6.921v-7.547h6.92v49.507h-6.92v-4.522h-6.92v4.522h-6.92v-4.522h-6.92v4.522h-6.92v-4.522h-6.921v4.522h-6.92v-4.522h-6.921v4.522h-6.92v-4.522h-6.92v4.522h-6.921v-4.522h-6.92v4.522h-6.92v-4.522h-6.921v4.522h-6.92v-4.522h-6.92v4.522h-6.921v-4.522h-6.92v4.522h-6.92v-4.522h-6.921v4.522h-6.92v-4.522h-6.92v4.522h-6.92v-4.522h-6.921v4.522h-6.92v-4.522h-6.92v4.522h-6.921v-4.522h-6.92v4.522h-6.921v-4.522h-6.92v4.522h-6.92v-4.522h-6.92v4.522h-6.921v-4.522h-6.92v4.522h-6.921v-4.522h-6.92v4.522h-6.92v-4.522h-6.92v4.522h-6.921v-4.522h-6.92v4.522h-6.92v-4.522h-6.921v4.522h-6.92v-4.522h-6.92v4.522h-6.921v-4.522h-6.92v4.522h-6.92v-4.522h-6.921v4.522h-6.92v-4.522h-6.92v4.522h-6.92v-4.522h-6.921v4.522h-6.92v-4.522h-6.921v4.522h-6.92v-4.522h-6.92v4.522h-6.92v-4.522h-6.921v4.522h-6.92v-4.522h-6.92v4.522h-6.921v-4.522h-6.92v4.522h-6.921v-4.522h-6.92v4.522h-6.92v-4.522h-6.92v4.522h-6.921v-4.522h-6.92v4.522h-6.921v-4.522h-6.92v4.522h-6.92v-4.522h-6.92v4.522h-6.921v-4.522h-6.92v4.522h-6.92v-4.522h-6.921v4.522h-6.92v-4.522h-6.92v4.522h-6.92v-4.522h-6.921v4.522h-6.92v-4.522h-6.921v4.522h-6.92v-4.522h-6.92v4.522h-6.92v-4.522h-6.922v4.522h-6.92v-4.522h-6.92v4.522h-6.92v-4.522h-6.92v4.522h-6.921v-4.522h-6.92v4.522h-6.92v-4.522h-6.92v4.522h-6.921v-4.522h-6.92v4.522h-6.92v-4.522h-6.921v4.522h-6.92v-4.522h-6.92v4.522h-6.921v-4.522h-6.92v4.522h-6.921v-4.522h-6.92v4.522h-6.92v-4.522h-6.92v4.522h-6.921v-4.522h-6.92v4.522h-6.92v-4.522h-6.921v4.522h-6.92v-4.522h-6.92v4.522h-6.92v-4.522h-6.923v4.522zm781.997-8.746v-28.99h-6.92v28.99zm-13.84 0v-28.99h-6.92v28.99zm-13.84 0v-28.99h-6.921v28.99h6.92zm-13.842 0v-28.99h-6.92v28.99zm-13.84 0v-28.99h-6.92v28.99zm-13.841 0v-28.99h-6.92v28.99zm-13.84 0v-28.99h-6.921v28.99h6.92zm-13.841 0v-28.99h-6.92v28.99zm-13.841 0v-28.99h-6.92v28.99zm-13.84 0v-28.99h-6.921v28.99h6.92zm-13.841 0v-28.99h-6.92v28.99zm-13.84 0v-28.99h-6.921v28.99h6.92zm-13.842 0v-28.99h-6.92v28.99zm-13.84 0v-28.99h-6.92v28.99zm-13.841 0v-28.99h-6.92v28.99zm-13.84 0v-28.99h-6.92v28.99zm-13.841 0v-28.99h-6.92v28.99zm-13.841 0v-28.99h-6.92v28.99zm-13.84 0v-28.99h-6.92v28.99zm-13.841 0v-28.99h-6.92v28.99zm-13.84 0v-28.99h-6.921v28.99h6.92zm-13.841 0v-28.99h-6.92v28.99zm-13.841 0v-28.99h-6.92v28.99zm-13.84 0v-28.99h-6.921v28.99h6.92zm-13.841 0v-28.99h-6.92v28.99zm-13.84 0v-28.99h-6.921v28.99h6.92zm-13.842 0v-28.99h-6.92v28.99zm-13.84 0v-28.99h-6.92v28.99zm-13.84 0v-28.99h-6.921v28.99h6.92zm-13.842 0v-28.99h-6.92v28.99zm-13.84 0v-28.99h-6.92v28.99zm-13.841 0v-28.99h-6.92v28.99zm-13.84 0v-28.99h-6.92v28.99zm-13.841 0v-28.99h-6.92v28.99zm-13.841 0v-28.99h-6.92v28.99zm-13.84 0v-28.99h-6.92v28.99zm-13.841 0v-28.99h-6.92v28.99zm-13.84 0v-28.99h-6.921v28.99h6.92zm-13.841 0v-28.99h-6.92v28.99zm-13.84 0v-28.99h-6.921v28.99h6.92zm-13.842 0v-28.99h-6.92v28.99zm-13.84 0v-28.99h-6.92v28.99zm-13.84 0v-28.99h-6.922v28.99h6.921zm-13.842-28.99h-6.92v28.99h6.92zm-13.84 28.99v-28.99h-6.92v28.99zm-13.841 0v-28.99h-6.92v28.99zm-13.84 0v-28.99h-6.92v28.99zm-13.841 0v-28.99h-6.92v28.99zm-13.841 0v-28.99h-6.92v28.99zm-13.84 0v-28.99h-6.92v28.99zm-13.841 0v-28.99h-6.92v28.99zm-13.841 0v-28.99h-6.92v28.99zm-13.84 0v-28.99h-6.92v28.99zm-13.841 0v-28.99h-6.92v28.99zm-13.84 0v-28.99h-6.921v28.99h6.92zm-13.841 0v-28.99h-6.92v28.99zm-13.84 0v-28.99h-6.923v28.99h6.921z" fill="url(#c)" fill-rule="nonzero"/></g></svg>