<svg xmlns="http://www.w3.org/2000/svg" width="13" height="17" viewBox="0 0 13 17">
    <path fill="#979797" fill-rule="nonzero" d="M10.417 11.652c-.637 0-1.222.23-1.67.62L4.959 9.74c.155-.337.241-.709.241-1.116a2.54 2.54 0 0 0-.207-1.027L8.8 4.78c.447.354.998.567 1.601.567 1.446 0 2.6-1.204 2.6-2.674C13 1.186 11.83 0 10.4 0 8.97 0 7.817 1.186 7.817 2.674c0 .319.052.602.155.885L4.081 6.43A2.516 2.516 0 0 0 2.6 5.95C1.154 5.95 0 7.154 0 8.624c0 1.487 1.17 2.674 2.6 2.674.517 0 .999-.16 1.395-.425L7.92 13.51c-.087.266-.121.532-.121.815C7.8 15.814 8.97 17 10.4 17c1.43 0 2.6-1.204 2.6-2.674s-1.136-2.674-2.583-2.674z"/>
</svg>
