<svg xmlns="http://www.w3.org/2000/svg" width="16" height="15" viewBox="0 0 16 15">
    <path fill="#B3B3B3" fill-rule="nonzero" d="M9.941 0H6.066C2.716 0 0 2.7 0 6.03-.002 9.025 2.208 11.568 5.19 12a5.396 5.396 0 0 1-.154 2.379.482.482 0 0 0 .155.508.49.49 0 0 0 .531.061c1.01-.502 2.44-1.438 3.201-2.884h1.011a6.084 6.084 0 0 0 4.29-1.766A6.011 6.011 0 0 0 16 6.035C16.003 2.705 13.29.004 9.941 0zM5 6.998A1 1 0 1 1 5.002 7L5 6.998zm3 0A1 1 0 1 1 8.002 7L8 6.998zm3 0a1 1 0 1 1 .002.002L11 6.998z"/>
</svg>
