<svg xmlns="http://www.w3.org/2000/svg" width="16" height="16" viewBox="0 0 16 16">
    <path fill="#B3B3B3" fill-rule="nonzero" d="M15.916 6.095a.45.45 0 0 0-.355-.316l-4.95-.756L8.399.337A.443.443 0 0 0 8 .078c-.169 0-.323.1-.398.259L5.388 5.023l-4.947.744a.45.45 0 0 0-.37.32.48.48 0 0 0 .125.486l3.58 3.66-.844 5.147c-.03.175.039.352.176.456a.428.428 0 0 0 .469.036L8 13.436l4.425 2.434c.15.083.332.069.469-.035a.475.475 0 0 0 .176-.456l-.846-5.146 3.58-3.66a.48.48 0 0 0 .112-.478z" opacity=".697"/>
</svg>
