<svg xmlns="http://www.w3.org/2000/svg" width="387" height="312" viewBox="0 0 387 312">
    <g fill="none" fill-rule="evenodd">
        <path fill="#F0EDDF" d="M132.365 32.523C286.895 42.531 263.588 2.5 301.636 2.612c103.245.326 110.692 159.3 33.942 251.144-51.786 70.245-198.152 43.07-272.654-8.288C-44.74 171.242 33.19 26.106 132.365 32.523z"/>
        <path fill="#EBE7D3" d="M318.752 270.921c-21.235 16.475-50.191 24.098-81.798 25.115l-.414.012c-1.23.038-2.474.063-3.717.076-.754.012-1.52.012-2.273.012h-1.268c-1.143 0-2.298 0-3.454-.025a253.461 253.461 0 0 1-3.063-.05l-.453-.013c-21.51-.64-43.85-4.056-65.51-9.593-40.485-20.356-47.53-36.567-49.35-47.718-4.445-27.148 34.846-49.525 21.322-74.062-14.918-27.06-56.306-36.654-79.123-41.928h21.636c32.26 7.32 67.721 11.665 86.52 34.657 14.967 18.309-17.342 59.823 4.03 71.765 38.099 21.297 107.05 34.82 156.915 41.752z"/>
        <path fill="#DA887F" d="M52.828 112.425c15.571-4.132 15.558 3.214 15.885 10.322H3.968c-5.035-2.788-5.94-5.752 1.193-9.017-.603-6.617 1.783-9.543 7.823-7.948-2.6-8.828-1.47-13.21 7.472-8.3 7.56-7.007 13.662-6.932 17.906 2.021 13.775-2.963 14.968 4.295 14.466 12.922z"/>
        <path fill="#7A85A2" d="M112.048 91.278h-57.5l28.304-28.43z"/>
        <path fill="#8E9DC5" d="M82.928 67.859l24.06 23.42v31.468H59.608V91.278z"/>
        <path fill="#7A85A2" d="M20.456 91.278h39.153v31.468H20.456z"/>
        <path fill="#A2AECF" d="M30.414 97.984h14.177v24.763H30.414z"/>
        <path fill="#6A6078" d="M43.435 62.849L15.12 91.279h39.43l28.303-28.43z"/>
        <path fill="#8CB97B" d="M25.742 121.076c-11.879-3.151-11.866 2.45-12.117 7.874h49.362c3.842-2.135 4.533-4.383-.904-6.882.452-5.048-1.356-7.27-5.965-6.052 1.984-6.73 1.118-10.084-5.7-6.329-5.765-5.35-10.41-5.3-13.65 1.532-10.51-2.248-11.415 3.277-11.026 9.857z"/>
        <g fill="#F2C399" transform="translate(19.388 107.628)">
            <circle cx="17.216" cy="11.841" r="2.034"/>
            <circle cx="26.081" cy="2.034" r="2.034"/>
            <circle cx="33.678" cy="15.144" r="2.034"/>
            <circle cx="2.034" cy="14.24" r="2.034"/>
        </g>
        <path fill="#EBB382" fill-opacity=".98" d="M106.372 40.522c15.37 1.444 7.723 9.845 16.412 11.126 9.97 1.469 14.755 9.945 8.3 17.605-5.01 5.952 4.797 7.107 1.244 18.283-1.256 3.93-9.167 6.19-12.507 10.096-6.015 7.032-10.096 9.983-17.304 4.433-4.596-3.554-1.783-7.949-6.756-13.298-1.657-1.783-13.36-7.899-9.267-20.833 2.336-7.37 8.815-2.423 7.836-9.957-1.08-8.426 4.206-18.196 12.042-17.455z"/>
        <path fill="#6A6078" fill-rule="nonzero" d="M105.619 122.018l1.142-33.942c-1.946-2.047-16.286-15.094-15.232-15.973.842-.653 13.424 10.636 15.232 12.532l.352-9.882c-1.658-1.507-10.762-9.895-9.87-10.649.603-.69 8.514 6.015 9.87 7.208 0-2.913.778-14.039 1.632-13.875 1.758-.164 3.114 22.753 3.114 27.16 1.545-1.607 12.156-11.35 12.683-10.723 1.683 1.607-10.837 13.047-12.683 14.98v33.164h-6.24z"/>
        <path fill="#E3DEC7" d="M125.748 55.64c-1.444-1.167-3.253 2.801-3.077 4.635.163 1.644 2.939 4.47 3.843 3.101 1.431-2.16 1.243-6.103-.766-7.735zm-22.026-7.81c1.37-2.31 6.003-3.089 7.962-1.255 1.594 1.494-1.168 5.274-3.315 5.613-2.098.326-5.727-2.524-4.647-4.358zm12.934 19.954c2.612-.314 1.683-5.588.402-7.874-.74-1.33-4.433-.954-4.508.553-.138 2.8 1.331 7.672 4.106 7.32z"/>
        <path fill="#468572" d="M107.339 117.686c-4.37-.854-6.756.427-6.065 5.06h30.652c1.293-4.86-.716-6.178-5.324-4.708-2.273-4.483-5.362-5.4-9.506-1.62-4.194-2.788-7.484-2.462-9.757 1.268z"/>
        <path fill="#8AB879" fill-opacity=".98" d="M160.644 18.522c-19.664 1.846-9.882 12.595-20.983 14.227-12.758 1.871-18.873 12.72-10.623 22.528 6.404 7.597-6.14 9.079-1.583 23.369 1.595 5.023 11.716 7.923 15.986 12.908 7.685 9.004 12.909 12.771 22.126 5.676 5.889-4.533 2.285-10.158 8.639-17.002 2.122-2.286 17.09-10.096 11.854-26.659-2.976-9.418-11.264-3.09-10.02-12.733 1.38-10.774-5.375-23.256-15.396-22.314z"/>
        <path fill="#6A6078" fill-rule="nonzero" d="M161.598 122.747l-1.469-43.41c2.512-2.613 20.833-19.301 19.502-20.431-1.08-.829-17.166 13.6-19.502 16.035l-.44-12.645c2.135-1.921 13.776-12.645 12.62-13.612-.765-.891-10.874 7.698-12.62 9.217 0-3.73-.979-17.957-2.084-17.743-2.26-.214-3.993 29.107-3.993 34.733-1.959-2.047-15.533-14.529-16.199-13.712-2.16 2.059 13.85 16.688 16.2 19.15v42.418h7.985z"/>
        <g fill="#E3DEC7">
            <path d="M95.322 105.066h2.474v17.668h-2.474zM105.204 105.066h2.474v17.668h-2.474zM100.257 105.066h2.474v17.668h-2.474zM110.14 105.066h2.473v17.668h-2.474zM115.087 105.066h2.474v17.668h-2.474zM124.97 105.066h2.473v17.668h-2.474zM120.022 105.066h2.474v17.668h-2.474zM129.904 105.066h2.474v17.668h-2.474z"/>
            <path d="M95.32 109.273v-1.507h37.045v1.507zM95.32 121.13v-1.507h37.045v1.507zM139.787 105.066h2.474v17.668h-2.474zM134.84 105.066h2.473v17.668h-2.474zM144.722 105.066h2.474v17.668h-2.474zM149.67 105.066h2.473v17.668h-2.474zM159.552 105.066h2.474v17.668h-2.474zM154.604 105.066h2.474v17.668h-2.474z"/>
            <path d="M129.905 109.273v-1.507h37.047v1.507zM129.905 121.13v-1.507h37.047v1.507z"/>
            <path d="M164.487 105.066h2.474v17.668h-2.474zM174.37 105.066h2.473v17.668h-2.474zM169.434 105.066h2.474v17.668h-2.474zM179.317 105.066h2.474v17.668h-2.474zM184.252 105.066h2.474v17.668h-2.474zM194.134 105.066h2.474v17.668h-2.474zM189.2 105.066h2.473v17.668H189.2zM199.082 105.066h2.474v17.668h-2.474z"/>
            <path d="M164.492 109.273v-1.507h37.046v1.507zM164.492 121.13v-1.507h37.046v1.507zM208.952 105.066h2.474v17.668h-2.474zM204.017 105.066h2.474v17.668h-2.474zM213.9 105.066h2.473v17.668H213.9zM218.834 105.066h2.474v17.668h-2.474zM228.717 105.066h2.474v17.668h-2.474zM223.782 105.066h2.474v17.668h-2.474zM233.664 105.066h2.474v17.668h-2.474z"/>
            <path d="M199.078 109.273v-1.507h37.046v1.507zM199.078 121.13v-1.507h37.046v1.507z"/>
            <path d="M233.664 105.066h2.474v17.668h-2.474zM243.547 105.066h2.474v17.668h-2.474zM238.6 105.066h2.473v17.668H238.6zM248.482 105.066h2.474v17.668h-2.474zM253.43 105.066h2.473v17.668h-2.474zM263.312 105.066h2.474v17.668h-2.474zM258.364 105.066h2.474v17.668h-2.474zM268.247 105.066h2.474v17.668h-2.474z"/>
            <path d="M233.664 109.273v-1.507h37.046v1.507zM233.664 121.13v-1.507h37.046v1.507z"/>
            <path d="M268.247 105.066h2.474v17.668h-2.474zM278.13 105.066h2.473v17.668h-2.474zM273.194 105.066h2.474v17.668h-2.474zM283.077 105.066h2.474v17.668h-2.474zM288.012 105.066h2.474v17.668h-2.474zM297.894 105.066h2.474v17.668h-2.474zM292.947 105.066h2.474v17.668h-2.474zM302.83 105.066h2.473v17.668h-2.474z"/>
            <path d="M268.25 109.273v-1.507h37.047v1.507zM268.25 121.13v-1.507h37.047v1.507z"/>
            <path d="M302.83 105.066h2.473v17.668h-2.474z"/>
            <path d="M302.83 105.066h2.473v17.668h-2.474zM312.712 105.066h2.474v17.668h-2.474zM307.777 105.066h2.474v17.668h-2.474zM317.66 105.066h2.473v17.668h-2.474zM322.594 105.066h2.474v17.668h-2.474zM332.477 105.066h2.474v17.668h-2.474zM327.542 105.066h2.474v17.668h-2.474zM337.424 105.066h2.474v17.668h-2.474z"/>
            <path d="M302.835 109.273v-1.507h37.047v1.507zM302.835 121.13v-1.507h37.047v1.507z"/>
            <path d="M337.424 105.066h2.474v17.668h-2.474z"/>
            <path d="M337.424 105.066h2.474v17.668h-2.474zM347.307 105.066h2.474v17.668h-2.474zM342.36 105.066h2.473v17.668h-2.474zM352.242 105.066h2.474v17.668h-2.474zM357.19 105.066h2.473v17.668h-2.474z"/>
            <path d="M337.422 109.273v-1.507h22.227v1.507zM337.422 121.13v-1.507h22.227v1.507z"/>
            <path d="M357.19 105.066h2.473v17.668h-2.474z"/>
            <path d="M357.19 105.066h2.473v17.668h-2.474zM367.072 105.066h2.474v17.668h-2.474zM362.124 105.066h2.474v17.668h-2.474zM372.007 105.066h2.474v17.668h-2.474zM376.942 105.066h2.474v17.668h-2.474z"/>
            <path d="M357.186 109.273v-1.507h22.228v1.507zM357.185 121.13v-1.507h22.228v1.507z"/>
        </g>
        <path fill="#E3DEC7" d="M141.206 36.592c-1.444-1.168-3.253 2.8-3.064 4.646.15 1.632 2.925 4.458 3.83 3.089 1.431-2.16 1.243-6.103-.766-7.735zm-7.246 14.277c2.612-.326 1.683-5.6.402-7.886-.741-1.318-4.433-.954-4.508.553-.138 2.8 1.331 7.672 4.106 7.333zm4.044 23.357c-.842 1.419-3.667 1.896-4.873.766-.967-.905.716-3.228 2.035-3.429 1.28-.2 3.503 1.545 2.838 2.663zm16.537-49.011c-3.428.427-2.21 7.32-.527 10.322.98 1.72 5.801 1.243 5.902-.741.188-3.654-1.746-10.046-5.375-9.581zm-16.7 26.119c1.368-2.31 6.002-3.09 7.96-1.256 1.595 1.482-1.167 5.274-3.315 5.613-2.097.327-5.726-2.524-4.646-4.357z"/>
        <path fill="#FFF" d="M75.004 94.606h13.223v13.223H75.004z"/>
        <g fill="#847C90">
            <path d="M76.988 96.577h3.704v3.704h-3.704zM82.551 96.577h3.704v3.704h-3.704zM82.551 102.14h3.704v3.704h-3.704zM76.988 102.14h3.704v3.704h-3.704z"/>
        </g>
        <path fill="#352748" d="M242.881 9.029c.904-4.12-4.872-8.075-9.016-8.903-3.516-.691-8.602 1.77-9.368 5.274-.941 4.269 1.331 10.987 5.626 11.828 4.96.98 11.678-3.252 12.758-8.2z"/>
        <path fill="#352748" d="M235.12 14.516c-21.108-5.299-21.911 33.113-.627 33.113 24.7 0 18.27-38.412.628-33.113z"/>
        <path fill="#FFF" d="M244.212 61.241c7.371 1.696 17.744 2.236 20.443 10.322 6.178 18.522-.464 52.552.013 67.558.125 3.843-.477 8.84-3.001 11.15-26.47 2.387-42.406 2.299-48.898-.012-3.315-3.227-2.763-6.102-2.562-9.305 1.319-20.166-3.528-44.716 1.444-64.305 1.784-7.045 6.781-9.292 17.668-14.692 5.513-.678 9.393-.038 14.893-.716z"/>
        <path fill="#844A3F" d="M261.667 150.272c3.415 34.281 3.465 58.34 2.762 92.471-.351 16.45-4.658 33.842-4.608 58.517-4.584-.214-3.905-.302-9.531-.578 1.28-27.287-6.48-41.05-7.233-59.333-.703-16.965-4.709-35.9-8.702-59.546-4.094 43.85-8.903 72.442-8.564 117.347-5.287-.251-7.497-.502-12.783-.754-5.3-61.668-10.16-86.832-.239-148.137 16.3 0 32.598.013 48.898.013z"/>
        <path fill="#FFF" d="M256.82 64.243c15.797.025 15.985 33.74 16.148 52.162 2.047 12.005 1.746 31.029.892 43.536l-9.607-.314c-.3-5.475-1.117-17.216-2.247-24.75-.741-4.985-2.826-10.285-3.14-15.307-.49-7.911-1.23-13.838-.728-23.118-1.595-6.593-3.19-13.185-4.772-19.778 1.256-3.93 2.198-8.501 3.454-12.431z"/>
        <path fill="#CC5A4E" d="M266.602 199.345c.125-32.058-.904-42.066-.791-74.112-8.753-4.558-9.782-14.993-10.222-21.712-1.067-16.098-1.47-32.41-2.223-40.358-1.117-1.068-5.788-1.997-7.233-2.26-1.38 7.107-.778 22.062-1.03 27.525-4.156.301-10.22.301-16.65 0l-.678-25.918c-1.08.125-4.897 1.632-6.932 3.78-1.52 6.152-1.921 17.379-2.147 28.354-.1 4.658.465 9.267-.05 13.423-.892 7.334-2.775 12.394-7.597 13.85-2.273 36.492-4.006 38.652-6.279 75.13 23.394 3.152 38.048 4.094 61.832 2.298z"/>
        <path fill="#DB9E83" d="M272.918 159.916c-.414 6.542-.578 17.266-1.319 18.898-1.23 2.776-8.752 10.172-9.895 9.695-1.155-.478.377-2.474.565-3.705-1.243-.075-3.553.54-3.729-.213-.44-1.871 6.279-2.273 7.798-6.53.74-2.085.126-3.93.038-6.128-1.67 2.285-2.336 7.76-5.023 6.844-.64-.214.954-4.609 2.21-8.991.904-3.19 1.256-6.392 2.26-7.911.113-.49.15-1.243.1-2.198l6.995.239z"/>
        <path fill="#B0483C" d="M248.52 151.314l-28.355-1.055 2.637-41.464 24.022 1.645z"/>
        <path fill="#DB9E83" d="M243.622 37.433c.364 7.898-.163 15.91.59 23.808-1.896 6.857-4.998 7.874-7.409 7.95-2.423.087-6.454-2.462-7.484-7.234.176-5.7-.401-12.293-.552-18.873 4.508-2.298 10.36-3.353 14.855-5.651zM244.828 37.132c3.691-5.714 6.73-2.474 6.868 1.506.126 3.717-2.436 8.125-5.437 5.827-.477-2.449-.954-4.897-1.431-7.333zM227.134 38.79c-4.445-5.15-7.019-1.533-6.605 2.435.39 3.705 3.516 7.71 6.178 5.023.139-2.486.277-4.973.427-7.459z"/>
        <path fill="#EDB39A" d="M221.898 28.605c-.502 4.031.176 8.79 1.243 12.708-.376 7.045 6.166 17.128 13.148 16.086 10.673-1.607 10.548-8.752 11.816-14.692 1.369-6.38 1.532-14.278-2.687-19.263-5.952-7.02-22.277-4.721-23.52 5.161z"/>
        <path fill="#E2924B" d="M265.61 309.12c-.113 1.394-1.005 2.562-3.504 2.562-11.44 0-20.029 0-31.456.013.653-3.014 3.127-3.73 9.305-3.994l8.112-3.126-7.572-62.548 25.441-.452-.326 67.545z"/>
        <path fill="#352748" d="M238.298 35.474c-1.193.05-.39 1.896.012 1.972 1.218.238 2.6-.39 3.88-.49 1.332-.1 2.361.15 3.68.037-.829-2.7-4.546-1.645-7.572-1.519z"/>
        <path fill="#DB9E83" fill-rule="nonzero" d="M232.697 46.713a.763.763 0 0 1 .352-1.03.756.756 0 0 1 1.017.352c.088.163.264.314.477.427l.025.012c.226.113.465.176.666.15.301-.037.59-.125.841-.275.239-.151.452-.34.628-.59a.767.767 0 1 1 1.268.866c-.314.44-.69.79-1.117 1.042-.44.264-.942.414-1.457.477a2.829 2.829 0 0 1-1.52-.301l-.037-.025c-.49-.251-.917-.64-1.143-1.105z"/>
        <path fill="#C7876C" d="M232.082 50.417c2.36.615 6.002.39 8.614-.54 1.633-.59-1.67 3.44-4.282 3.579-3.127.163-5.902-3.453-4.332-3.039z"/>
        <path fill="#352748" d="M230.65 36.04c1.156-.114.64 1.77.264 1.908-1.143.414-2.549-.013-3.805.075-1.293.088-2.247.477-3.54.565.414-2.725 4.156-2.235 7.081-2.549z"/>
        <path fill="#DB9E83" d="M238.838 41.627c-.829-3.34 4.382-3.78 4.583-.74l-4.583.74zM231.868 42.016c-.64-3.528-5.6-1.959-4.42.842l4.42-.842z"/>
        <path fill="#352748" d="M226.117 42.569c1.369-.565 3.441-1.833 4.835-1.306.44.176.803.452 1.042.778l-3.265.754c-.54.15-1.708.452-2.612-.226zM244.727 41.213c-1.444-.34-3.692-1.256-4.973-.515a2.323 2.323 0 0 0-.916.93l3.34.238c.552.062 1.758.163 2.55-.653z"/>
        <path fill="#352748" d="M239.164 41.866c.653-.904 1.306-1.382 2.122-1.269.716.088 1.344.415 1.746 1.457-.427-.013-.578-.013-.804-.063-.766 1.331-2.737.64-3.064-.125zM231.366 42.556c-.728-.841-1.431-1.243-2.235-1.054-.69.163-1.293.54-1.582 1.62.414-.063.565-.076.778-.151.904 1.255 2.788.389 3.04-.415zM233.802 18.333c1.03 12.495-4.458 13.085-12.783 16.676-.276-2.812-.54-5.638-.816-8.45 3.064-3.178 6.115-6.354 9.167-9.531 1.481.426 2.95.866 4.432 1.305z"/>
        <path fill="#352748" d="M232.86 18.258c-.125 12.72 7.233 11.779 16.15 13.436-.353-2.8-.717-5.613-1.08-8.413-3.68-2.424-7.372-4.847-11.051-7.27-1.344.74-2.687 1.494-4.018 2.247z"/>
        <path fill="#CC5A4E" d="M250.428 27.098c-8.815-8.601-11.804-11.213-18.534-10.46-5.701.628-7.95 3.893-12.972 12.055-2.486-8.087 1.482-11.766 6.002-14.277 3.793-2.097 11.013-3.077 15.082-1.608 6.379 2.31 8.777 4.496 10.422 14.29z"/>
        <path fill="#FFF" d="M216.85 83.857c-4.797 15.52-4.257 18.484-.678 29.133 2.31 6.868 10.812 3.227 21.197 2.7-.189 3.905 3.855 4.344 4.231 7.584-16.35.465-29.622 12.545-40.723-4.232-5.374-8.137.176-26.546 2.813-36.353 2.248-8.288 6.442-12.997 11.063-13.298 4.935-.326 4.985 5.11 2.097 14.466z"/>
        <path fill="#EDB39A" d="M218.344 118.791c1.658-.791-1.167-4.81-3.302-7.886-1.884-2.712-4.069-1.457-3.843.025.34 2.374 1.532 4.533 2.31 6.794 1.608.351 3.228.715 4.835 1.067z"/>
        <path fill="#C7876C" d="M246.046 111.81c-1.256-.202-5.965 1.946-4.86-.453-.904.327-3.654 1.444-2.964-.829l2.788-3.089c3.353.29 6.693.59 10.033.88.138.853.277 1.72.402 2.574-1.796.3-3.591.615-5.4.916z"/>
        <path fill="#EDB39A" d="M313.139 104.89c-2.399.088-18.673 17.844-22.227 17.291-3.516-.54-18.747-4.445-33.54-7.634-3.415 1.13-7.685.427-10.385-.452-2.323-.741-6.115-1.608-5.4-3.14 1.068-2.285 6.342 1.005 8.678-1.456-2.085-.779-4.182-1.306-7.22-.817-2.675.415-3.466 3.856-6.154 3.253-1.557-.352 1.382-4.634 5.651-6.14 4.119-1.47 7.622.451 15.295 1.883 3.466.653 20.644.264 29.61 1.582 2.8.402 16.889-21.975 19.087-22.678l6.605 18.308z"/>
        <path fill="#74A5DE" d="M265.585 126.172l-5.637-16.261a4.89 4.89 0 0 0-6.222-3.019l-34.218 11.86a4.89 4.89 0 0 0-3.019 6.223l5.637 16.26a4.89 4.89 0 0 0 6.221 3.02l34.219-11.862a4.89 4.89 0 0 0 3.019-6.221z"/>
        <path fill="#28394B" d="M263.441 128.014l-5.636-16.261a4.89 4.89 0 0 0-6.222-3.019l-34.218 11.861a4.89 4.89 0 0 0-3.02 6.222l5.637 16.26a4.89 4.89 0 0 0 6.222 3.02l34.218-11.862a4.89 4.89 0 0 0 3.02-6.221z"/>
        <path fill="#DB9E83" d="M218.596 128.674c-1.771.238-6.719 1.971-8.326 1.192-2.988-1.456-4.608-2.875-6.078-5.839-.992-2.009-1.732-5.763-.627-7.71.866-1.507 2.913-2.398 4.646-2.348 2.725.075 5.136 1.783 7.71 2.675-.113 4.156 2.788 7.873 2.675 12.03z"/>
        <path fill="#EDB39A" d="M213.41 119.67c1.318-.088 11.012.088 10.95-1.683-.126-3.038-9.205-2.436-10.95-2.436-2.914-.05-2.223 3.93 0 4.119z"/>
        <path fill="#EDB39A" d="M220.705 119.168c.302-.013 7.585-1.382 7.158 1.406-.29 1.884-9.895 2.625-11.779 2.85-4.897.578-6.09-2.687-2.675-3.754 2.437-.163 4.86-.364 7.296-.502z"/>
        <path fill="#EDB39A" d="M226.419 121.19c.715-.088 1.682-.139 2.084.565.352.602-.2 1.996-1.582 2.097-1.293.1-8.426 2.034-10.762 2.85-3.089 1.08-5.512-2.486-.075-3.277 3.478-.503 6.856-1.771 10.335-2.236z"/>
        <path fill="#EDB39A" d="M227.599 123.525c1.243-.226 1.482.892.578 1.557-1.457 1.093-2.55 1.143-4.157 1.859-2.6.79-4.068 2.072-6.743 2.185-2.825.125-2.41-2.5-1.118-2.788 3.943-.867 7.485-2.085 11.44-2.813z"/>
        <path fill="#CC5A4E" d="M214.088 11.063c2.75 2.637 6.492 4.106 12.67 2.737-6.065-4.922-4.747-3.742-12.67-2.737zM226.758 13.8c4.47-5.889 2.712-5.06 10.096-4.872-1.934 2.8-5.438 4.307-10.096 4.872z"/>
        <path fill="#3A4666" d="M291.013 63.276l3.604-5.651 3.177 5.7-3.692 4.283z"/>
        <path fill="#DB9E83" d="M308.718 35.587c-2.297 12.947 1.269 21.322 4.998 26.446-5.211 2.8-10.435 5.6-15.646 8.4-.251-1.858-3.692-.063-3.943-1.921-.088-5.626-1.557-13.712-2.373-19.539 2.021-.766 3.19-13.7 6.065-16.375 3.39-3.151 8.514 1.834 10.9 2.99z"/>
        <path fill="#EDB39A" d="M278.832 19.89c-3.227 2.776-3.98 11.917-.339 19.49.54 1.13 1.331 4.91 1.834 5.914 3.051 6.14 2.725 8.45 6.228 9.506 3.868 1.155 8.665-.528 12.193-3.454 2.813-2.323 4.659-5.123 4.27-10.02-.038-3.755 1.042-5.827 1.431-11.478.954-13.8-8.865-24.423-25.617-9.957z"/>
        <path fill="#352748" d="M280.666 45.997c1.645 8.652 2.185 10.8 7.66 11.013 7.182.288 16.801-5.563 14.692-15.684-.64-2.361-1.294-4.71-1.934-7.07l-4.106-.113c.715 7.56 3 16.123-7.836 10.711-1.331.176-2.662.616-4.131.816-1.445.189-3.014.151-4.345.327z"/>
        <path fill="#DB9E83" d="M277.94 38.726c-.464-2.473 3.19-2.687 3.115-.552l-3.114.552z"/>
        <path fill="#352748" d="M281.055 38.073c-.427.854-.917 1.331-1.62 1.344-.603.025-1.18-.176-1.645-.992.352-.05.477-.063.678-.05.477-1.218 2.21-.904 2.587-.302zM279.473 33.264c1.33-.088.565 2.11.125 2.235-1.356.364-2.272.088-3.742.076.1-1.72 1.394-2.148 3.617-2.311z"/>
        <path fill="#DB9E83" d="M289.707 36.993c-.64-3.528-5.6-1.958-4.42.83l4.42-.83z"/>
        <path fill="#352748" d="M308.718 35.587c-1.356 2.198-5.073-1.557-7.634-1.331-1.369.239-1.557.176-4.106-.113-1.08-1.632-1.13-6.253-4.37-8.664-3.29-2.462-11.465-3.466-13.537-4.27-7.27-.74 2.172-9.568 13.034-9.908 8.84-.288 12.645 1.972 15.232 5.136 5.663 6.92 4.37 14.29 1.381 19.15z"/>
        <path fill="#EDB39A" d="M301.084 34.256c.753-2.963 2.75-4.332 4.608-3.554 2.562 1.08 2.11 5.865 1.256 8.326-.703 2.06-1.645 2.9-4.458 2.172-.917-2.273-1.406-4.169-1.406-6.944z"/>
        <path fill="#352748" d="M285.287 37.822c.59.754 1.657.917 2.511.854 1.105-.088 2.286-1.08 2.31-2.235-.414.163-.552.213-.753.352-1.23-1.03-4.018.163-4.068 1.03zM284.37 32.247c-1.306.339.025 2.185.49 2.172 1.406-.025 2.762-1.067 4.169-1.469 1.431-.44 2.624-.414 4.068-.841-1.57-2.788-5.424-.729-8.727.138z"/>
        <path fill="#DB9E83" fill-rule="nonzero" d="M285.764 42.87a.835.835 0 0 1 1.143-.289c.389.239.514.741.288 1.143-.276.465-.64.841-1.054 1.118-.44.301-.93.49-1.432.577-.515.1-1.105 0-1.607-.213-.515-.226-.967-.603-1.23-1.042a.947.947 0 0 1-.114-.365l-.954-7.66a.832.832 0 0 1 .716-.929.84.84 0 0 1 .929.716l.93 7.497c.1.1.238.188.388.263.226.088.465.139.653.1a1.924 1.924 0 0 0 1.344-.916z"/>
        <path fill="#FFF" d="M289.845 46.964c-1.997.879-5.236 1.193-7.672.728-1.52-.289 1.946 2.8 4.282 2.562 2.775-.302 4.709-3.868 3.39-3.29z"/>
        <path fill="#4A5980" d="M311.305 58.177c5.814 1.495 17.593 4.76 21.109 20.908 4.244 19.476 1.557 40.296 3.14 60.162.313 3.842-.051 8.852-2.462 11.289-26.345 3.629-42.268 4.294-48.847 2.285-3.466-3.051-3.052-5.952-3.002-9.167.365-20.204.201-36.09 4.232-55.892 1.457-7.132 3.403-15.52 8.489-20.129 5.475-.93 11.866-8.514 17.341-9.456z"/>
        <path fill="#667AB0" d="M311.305 58.177c.377.1.791.214 1.23.327l-.087 4.244 3.277.025-.05-3.29c.528.189 1.08.39 1.633.628l.037 2.675 4.935.038c.69.49 1.394 1.03 2.072 1.632l-6.982-.05.076 4.332 8.287.138-.025-3.127a24.53 24.53 0 0 1 1.633 1.91l.012 1.242.892.013a22.56 22.56 0 0 1 1.004 1.632l-1.883-.025.075 6.392 4.483.2c.138.528.276 1.068.415 1.633l-4.885-.213.063 5.713 5.889.176c2.511 16.123 1.08 33.013 1.82 49.4v4.709h.277l.05.716c.025.288.05.59.063.891l-.39.013v5.487h.076c-.314 1.645-.841 3.165-1.708 4.295v-2.637l-5.437.113.038 3.78-1.608.213-.05-3.955-7.848.175.075 4.71-1.607.175-.088-4.847-6.279.138-.1 5.098 3.177-.05c-13.298 1.306-22.427 1.432-27.701.44l.954-.013-.05-4.96-5.613.126a9.907 9.907 0 0 1-.226-1.608l5.814-.125-.076-6.292-5.675.026.025-1.62 5.625-.025-.075-6.819-5.437-.075.037-1.62 5.375.075-.075-5.613-5.161-.113.05-1.62 5.098.113-.075-6.065-4.772-.163.075-1.344 4.684.113-.063-4.759-4.307-.05.1-1.294h4.195l-.076-6.04-3.528-.075c.063-.527.125-1.067.2-1.607l3.303.075-.088-6.844-2.247-.087.263-1.608 1.972.076-.05-3.403-1.306-.05c.1-.54.213-1.068.314-1.608l.979.038-.05-3.805-.138-.013c.477-2.097 1.017-4.231 1.682-6.303l.063 4.746 7.246.214.188-6.128-6.994-.314c.2-.528.401-1.067.627-1.582l6.417.276.163-5.513-3.654-.062a18.52 18.52 0 0 1 1.356-1.595l2.349.037.037-1.205a17.07 17.07 0 0 0 1.633-.753l-.05 1.984 6.58.113.113-4.22-3.203-.012c.754-.528 1.507-1.068 2.26-1.608l.993.013.025-.74c.54-.39 1.092-.767 1.645-1.131l-.05 1.871 5.261.05.088-4.483c.126-.037.264-.062.39-.088zm-2.235 94.744l-5.952.1.138-5.06 5.915-.125-.1 5.085zm-7.572.126l-6.856.1.15-4.997 6.844-.151-.138 5.048zm-8.476.126l-4.282.075-.063-4.96 4.496-.1-.151 4.985zm40.572-7.497l-5.45.126-.062-5.614 5.512-.037v5.525zm-7.07.163l-7.86.163-.088-5.763 7.886-.05.063 5.65zm-9.48.201l-6.228.138.113-5.902 6.027-.025.088 5.79zm-7.848.176l-5.89.125.164-6.027 5.839-.025-.113 5.927zm-7.51.163l-6.843.15.176-6.165 6.83-.037-.163 6.052zm-8.463.189l-4.558.1-.076-6.266 4.822-.025-.188 6.19zm40.371-8.037l-5.525.038-.063-5.94 5.588.088v5.814zm-7.145.05l-7.898.038-.1-6.14 7.935.125.063 5.977zm-9.518.05l-5.965.025.126-6.29 5.738.087.1 6.178zm-7.585.038l-5.839.038.176-6.455 5.789.088-.126 6.329zm-7.459.038l-6.818.037.2-6.63 6.794.113-.176 6.48zm-8.438.05l-4.885.025-.088-6.78 5.174.087-.201 6.668zm40.145-7.647l-5.6-.088-.063-5.362 5.663.125v5.325zm-7.22-.113l-7.949-.139-.088-5.412 7.987.176.05 5.375zm-9.569-.164l-5.688-.088.113-5.462 5.487.126.088 5.424zm-7.308-.113l-5.776-.088.15-5.512 5.739.125-.113 5.475zm-7.384-.113l-6.793-.113.176-5.563 6.768.151-.15 5.525zm-8.413-.138l-5.236-.075-.076-5.613 5.488.125-.176 5.563zm39.894-6.304l-5.676-.125-.05-5.613 5.726.188v5.55zm-7.295-.163l-7.987-.176-.088-5.726 8.024.264.05 5.638zm-9.607-.213l-5.437-.126.113-5.789 5.236.176.088 5.739zm-7.057-.15l-5.713-.139.15-5.864 5.676.188-.113 5.814zm-7.333-.164l-6.769-.15.189-5.966 6.743.227-.163 5.889zm-8.376-.189l-5.55-.125-.076-6.053 5.802.189-.176 5.99zm39.668-6.278l-5.75-.188-.051-5.651 5.801.012v5.827zm-7.37-.226l-8.025-.251-.088-5.4 8.062.038.05 5.613zm-9.645-.302l-5.173-.15.1-5.237 4.985.038.088 5.35zm-6.793-.2l-5.663-.151.138-5.073 5.625.037-.1 5.187zm-7.283-.201l-6.744-.176.151-4.91 6.73.05-.137 5.036zm-8.35-.226l-5.878-.151-.05-4.784 6.065.062-.138 4.873zm39.441-6.279h-5.826l-.05-5.136 5.876.126v5.01zm-7.434 0h-8.074l-.088-5.35 8.1.176.062 5.174zm-9.694 0h-4.935l.113-5.487 4.747.1.075 5.387zm-6.555 0l-5.613-.013.151-5.638 5.575.126-.113 5.525zm-7.233-.013h-6.718l.176-5.826 6.693.15-.15 5.676zm-8.337 0H288.2l-.063-6.002 6.38.15-.176 5.852zm39.253-6.617l-5.889-.126-.063-6.103 5.952.226v6.003zm-7.509-.163l-8.112-.176-.1-6.279 8.15.314.062 6.14zm-9.732-.214l-4.684-.1.126-6.392 4.458.188.1 6.304zm-6.303-.138l-5.563-.126.188-6.504 5.5.213-.125 6.417zm-7.17-.163l-6.694-.138.201-6.656 6.668.264-.176 6.53zm-8.313-.176l-6.455-.15-.088-6.807 6.743.264-.2 6.693zm39.027-6.768l-5.977-.239-.025-3.365 6.002.238v3.366zm-7.584-.302l-8.162-.326-.05-3.366 8.174.327.038 3.365zm-9.782-.389l-4.395-.176.062-3.378 4.282.176.05 3.378zm-6.015-.239l-5.5-.213.088-3.378 5.475.214-.063 3.377zm-7.12-.276l-6.668-.264.113-3.39 6.655.264-.1 3.39zm-8.275-.326l-6.806-.277-.05-3.403 6.956.29-.1 3.39zm38.776-3.454l-6.027-.238-.038-4.232 6.065.176v4.294zm-7.634-.301l-8.188-.339-.063-4.131 8.2.25.05 4.22zm-9.808-.402l-4.231-.163.087-4.081 4.082.125.062 4.12zm-5.839-.238l-5.462-.214.1-4.006 5.438.164-.076 4.056zm-7.082-.29l-6.643-.263.113-3.905 6.643.2-.113 3.969zm-8.263-.326l-7.02-.288-.05-3.818 7.183.214-.113 3.892zm30.929-4.583l-8.213-.251-.1-5.84 8.25.365.063 5.726zm-9.833-.301l-4.03-.126.113-5.902 3.817.163.1 5.865zm-5.65-.164l-5.412-.163.163-6.002 5.374.238-.125 5.927zm-7.032-.213l-6.63-.201.175-6.115 6.618.288-.163 6.028zm22.44-6.668l-8.263-.364-.088-6.128 8.288.138.062 6.354zm-9.883-.44l-3.755-.163.113-5.977 3.554.063.088 6.077zm-5.375-.226l-5.362-.238.164-5.789 5.311.088-.113 5.94zm-6.969-.313l-6.617-.277.175-5.563 6.593.1-.15 5.74zm1.808-7.321l.113-4.232 5.287.038-.088 4.269-5.312-.075zm6.932.1l.088-4.282 3.328.025.075 4.32-3.491-.063z"/>
        <path fill="#FFF" d="M286.216 120.75c-.553.276-.2 1.632.728 1.796 1.093.188 1.708-.817 1.42-1.281-.428-.741-1.382-.892-2.148-.515z"/>
        <path fill="#28394B" d="M333.092 150.536c7.459 50.505 2.624 74.928 15.86 150.397h-15.559c-13.637-46.914-15.495-68.939-26.106-117.61-2.01 43.987-5.462 72.768-2.989 117.61h-15.872c-8.225-61.342-11.2-86.393-4.181-148.112 7.019-.05 15.181.502 22.828.15 8.64-.401 17.38-2.034 26.019-2.435z"/>
        <path fill="#EDB39A" d="M303.231 300.933l.615 3.968-15.42-.615.88-3.353z"/>
        <path fill="#405A75" d="M303.846 304.901c1.432 1.52 4.019 6.794-1.343 6.794H270.87c.327-3.002 2.725-3.705 8.903-3.969 2.888-1.155 5.764-2.297 8.652-3.44 5.136.2 10.284.414 15.42.615z"/>
        <path fill="#EDB39A" d="M348.073 300.933l.615 3.968-15.433-.615.88-3.353z"/>
        <path fill="#405A75" d="M348.688 304.901c1.419 1.52 4.018 6.794-1.344 6.794h-31.631c.314-3.002 2.725-3.705 8.903-3.969 2.875-1.155 5.764-2.297 8.64-3.44 5.148.2 10.284.414 15.432.615z"/>
        <path fill="#EDB39A" d="M271.072 127.443c-6.304-2.65-10.8-8.865-12.482-7.56-1.883 1.482 1.306 4.622 1.96 6.932-5.513 3.39-8.54 1.218-12.558 2.348-3.44.967 2.675 7.622 9.167 7.786 4.47.113 8.903-.83 13.348-1.243 4.583-.327 7.572-.716 11.126-1.809 12.218-3.616 25.554-4.608 36.667-10.85 3.629-2.046 6.542-12.092 7.823-16.06-4.031-2.36-11.176-5.06-15.22-7.434-1.519 2.349-3.151 9.946-5.462 11.515-6.869 4.66-14.44 8.188-21.875 11.917-4.42 2.223-7.446 3.805-12.494 4.458z"/>
        <path fill="#667AB0" d="M307.073 83.028c.779 10.586 1.382 16.174 1.13 21.372-.024.616-9.015 8.904-9.078 9.506l8.3 14.567c.126-.277 6.48-1.482 10.887-4.647 4.483-3.227 7.007-8.413 7.133-8.702 3.54-8.702 5.889-19.99 5.06-28.467-2.373-23.997-24.424-17.09-23.432-3.629z"/>
        <path fill="#3A4666" d="M308.894 52.363c1.532-.288 3.303-.087 4.697.314-1.281.867-2.7 2.236-3.968 3.09-.189-.942-.553-2.474-.729-3.404z"/>
        <path fill="#667AB0" d="M313.59 52.677c2.06 2.675 3.981 5.865 6.053 8.54-6.793 3.792-13.373 6.617-20.167 13.21-.49-3.09-1.193-8.012-1.682-11.101 3.943-2.524 7.886-5.036 11.829-7.56 1.268-.853 2.687-2.222 3.968-3.089z"/>
        <path fill="#7B94D9" d="M315.612 55.478c.553.803 1.105 1.62 1.658 2.423l.075 4.571c-1.193.64-2.373 1.268-3.566 1.909l-1.356-.013-.025.766c-.54.302-1.093.615-1.633.93l.038-1.708-5.287-.038-.113 4.232 1.319.012a56.006 56.006 0 0 0-2.989 2.173l.013-.603-4.935-.075-.239-1.62 5.212.088.113-4.22-5.965-.037-.138-.942 1.042-.666 5.11.038.089-3.365 1.645-1.055-.113 4.42 5.261.05.163-8.024c.54-.44 1.093-.916 1.645-1.343l-.188 9.367 3.277.025-.113-7.295z"/>
        <path fill="#3A4666" d="M297.794 63.326c-1.23 1.431-2.461 2.863-3.692 4.282 1.883 1.858 3.378 3.403 5.098 5.06-.49-3.089-.917-6.253-1.406-9.342z"/>
        <path fill="#4A5980" d="M294.102 67.608l-3.09-4.332-1.908 11.603 4.71-1.608z"/>
        <path fill="#667AB0" d="M291.013 63.276l-2.499 3.415.59 8.188z"/>
        <path fill="#352748" d="M289.883 14.704c2.875 1.696 2.561 7.874.012 10.021-2.875 2.424-10.184 4.37-13.423 2.461-3.353-1.971-8.024-7.396-5.048-9.907 4.57-3.855 13.31-5.6 18.459-2.575z"/>
        <path fill="#FFF" d="M219.487 87.574v8.45l8.263.227.1-8.413-8.363-.264zm3.579 1.394l-.251 2.863.803.1.34-2.913 2.549.125-.013 5.865-5.877-.164.138-5.99 2.31.114zM246.159 88.24l-.013 8.463 8.263.226.1-8.413-8.35-.277zm3.566 1.406l-.239 2.85.791.1.34-2.9 2.561.126-.025 5.864-5.877-.176.138-5.99 2.31.126zM242.718 245.757h12.055v3.604h-12.055z"/>
        <path fill="#405A75" fill-rule="nonzero" d="M321.69 155.533c1.293 10.687 5.739 13.437 10.196 16.174l.854.54-1.745 2.825-.854-.54c-5.136-3.164-10.272-6.341-11.753-18.61l3.302-.389z"/>
        <path fill="#7B94D9" d="M310.552 130.105l-6.128 2.511-11.314-17.554 5.35-5.237z"/>
        <path fill="#844A3F" d="M270.733 126.3l2.386 11.126 4.043-1.218-2.938-10.611z"/>
        <path fill="#FFF" d="M270.582 131.587c-.376 4.922 6.907 2.926 6.279-.729-.402-2.348-5.927-3.855-6.279.729z"/>
        <ellipse cx="237.434" cy="127.62" fill="#405A75" rx="2.186" ry="2.342" transform="scale(-1 1) rotate(19.756 0 -1235.923)"/>
        <path fill="#E2924B" d="M229.03 309.12c-.125 1.394-1.017 2.562-3.515 2.562-11.427 0-20.03 0-31.456.013.653-3.014 3.127-3.73 9.305-3.994l8.112-3.126-7.572-62.548 25.44-.452-.313 67.545z"/>
        <path fill="#FFF" d="M206.126 245.757h12.055v3.604h-12.055z"/>
        <path fill="#E3DDC3" d="M91.705 169.61l1.23-7.32-4.884 4.884-3.654-8.526-2.449 8.526-3.641-2.436v4.872zM64.356 197.851l-.88-5.261 3.504 3.516 2.637-6.128 1.746 6.128 2.624-1.758v3.503zM73.17 146.404l.88-5.261-3.504 3.516-2.637-6.128-1.745 6.128-2.625-1.758v3.503zM96.176 236.063l.879-5.25-3.504 3.504-2.637-6.128-1.745 6.128-2.625-1.758v3.504zM40.547 164.939l-.879-5.262 3.504 3.504 2.637-6.128 1.745 6.128 2.625-1.746v3.504z"/>
        <path fill="#FFF" d="M292.168 72.781c-.213-.54-.138-1.13.377-1.406.452-.264 1.293-.012 1.482.477.175.465-.1.992-.528 1.243-.364.201-1.18.076-1.33-.314zM289.205 85.992c-.553-.264-.201-1.633.728-1.796 1.092-.176 1.708.816 1.431 1.293-.44.741-1.393.88-2.16.503zM287.861 98.222c-.553.264-.213 1.633.728 1.796 1.093.188 1.708-.816 1.42-1.293-.44-.729-1.382-.88-2.148-.503zM286.605 110.905c-.213-.552-.138-1.13.377-1.406.452-.264 1.293-.013 1.482.477.176.464-.1.992-.528 1.23-.364.214-1.18.088-1.33-.3zM286.015 137.451c-.2-.553-.125-1.13.377-1.419.452-.251 1.306 0 1.494.49.176.464-.1.992-.527 1.23-.364.201-1.193.088-1.344-.301zM286.856 146.568c-.2.552-.125 1.13.377 1.418.452.252 1.306 0 1.482-.49.188-.464-.088-.991-.528-1.23-.364-.2-1.18-.088-1.33.302z"/>
    </g>
</svg>
