<svg xmlns="http://www.w3.org/2000/svg" width="16" height="16" viewBox="0 0 16 16">
    <g fill="#405478" fill-rule="nonzero">
        <path d="M8 0C3.581 0 0 3.581 0 8c0 4.419 3.581 8 8 8 4.419 0 8-3.581 8-8 0-4.419-3.581-8-8-8zm0 15.238C4 15.238.762 12 .762 8S4 .762 8 .762 15.238 4 15.238 8 12 15.238 8 15.238z"/>
        <path d="M11.067 7.505L7.086 4.78a.607.607 0 0 0-.572 0 .568.568 0 0 0-.285.495v5.448a.568.568 0 0 0 .571.571c.095 0 .21-.019.305-.076l3.962-2.724A.568.568 0 0 0 11.352 8c-.019-.21-.114-.4-.285-.495z"/>
    </g>
</svg>
