<svg width="91" height="91" viewBox="0 0 91 91" xmlns="http://www.w3.org/2000/svg"><g fill="#fff" fill-rule="nonzero"><path d="M89.051 82.048l-18.396-18.396c.914-1.177 1.771-2.401 2.548-3.679.326-.536.639-1.081.939-1.633.6-1.105 1.149-2.243 1.642-3.409 1.233-2.916 2.122-6.014 2.615-9.241.197-1.291.331-2.603.399-3.932.034-.665.051-1.334.051-2.007 0-21.539-17.461-39-39-39-.673 0-1.342.017-2.007.051-1.329.067-2.641.201-3.932.399-3.228.493-6.325 1.382-9.241 2.615-1.167.493-2.304 1.042-3.409 1.642-.553.3-1.097.613-1.633.939-1.608.977-3.14 2.067-4.585 3.26-.963.795-1.887 1.635-2.77 2.517-.883.882-1.722 1.806-2.517 2.77-5.564 6.74-8.906 15.383-8.906 24.806 0 .673.017 1.342.051 2.007.067 1.329.201 2.641.399 3.932.493 3.228 1.382 6.325 2.615 9.241.493 1.167 1.042 2.304 1.642 3.409.3.553.613 1.097.939 1.633 3.257 5.361 7.77 9.874 13.131 13.131.536.326 1.081.639 1.633.939 1.105.6 2.243 1.149 3.409 1.642 2.916 1.233 6.014 2.122 9.241 2.615 1.291.197 2.603.331 3.932.399.665.034 1.334.051 2.007.051 8.924 0 17.143-3.004 23.716-8.047l18.416 18.416c.976.977 2.256 1.465 3.535 1.465 1.279 0 2.56-.488 3.535-1.465 1.954-1.952 1.954-5.118.001-7.07zm-81.202-42.297c0-17.645 14.356-32 32-32 17.645 0 32 14.355 32 32 0 17.644-14.355 32-32 32-17.644 0-32-14.356-32-32z"/><path d="M53.222 36.222h-9.444v-9.444c0-2.086-1.692-3.778-3.778-3.778-2.086 0-3.778 1.692-3.778 3.778v9.444h-9.444c-2.086 0-3.778 1.692-3.778 3.778 0 2.086 1.692 3.778 3.778 3.778h9.444v9.444c0 2.086 1.692 3.778 3.778 3.778 2.086 0 3.778-1.691 3.778-3.778v-9.444h9.444c2.086 0 3.778-1.692 3.778-3.778 0-2.086-1.691-3.778-3.778-3.778z"/></g></svg>