<svg height="15" viewBox="0 0 16 15" width="16" xmlns="http://www.w3.org/2000/svg"><path d="M6.059 0h3.875c3.35 0 6.066 2.7 6.066 6.03.002 2.995-2.208 5.538-5.19 5.971-.127.794-.074 1.607.153 2.378.055.185-.006.385-.155.508s-.358.148-.531.061c-1.011-.502-2.44-1.439-3.201-2.884h-1.011c-1.609 0-3.152-.635-4.289-1.766-1.138-1.131-1.777-2.664-1.777-4.264-.003-3.329 2.71-6.031 6.059-6.035zm4.941 6.998c.552 0 1-.447 1-.999s-.448-.999-1-.999-1 .447-1 .999c-.001.265.104.519.292.707s.441.293.707.294zm-3 0c.552 0 1-.447 1-.999s-.448-.999-1-.999-1 .447-1 .999c-.001.265.104.519.292.707s.441.293.707.294zm-3 0c.552 0 1-.447 1-.999s-.448-.999-1-.999-1 .447-1 .999c-.001.265.104.519.292.707s.441.293.707.294z" fill="#b3b3b3"/></svg>