<svg xmlns="http://www.w3.org/2000/svg" width="16" height="18" viewBox="0 0 16 18">
    <g fill="#000" fill-rule="nonzero">
        <path d="M9.48 11.892a.34.34 0 0 0-.443.079c-.335.42-.77.681-1.196.719a.914.914 0 0 1-.702-.212c-.99-.87-1.804-2.253-1.894-2.409l-.019-.033-.015-.026c-.09-.154-.882-1.55-1.138-2.843a.916.916 0 0 1 .168-.715c.244-.348.689-.595 1.22-.676a.34.34 0 0 0 .289-.343c-.001-.058-.037-1.425-.761-2.68C4.553 2 3.96 1.443 3.228 1.103a.343.343 0 0 0-.258-.01C2.835 1.142-.32 2.312.034 4.774c.317 2.2 1.648 4.717 2.772 6.665 1.124 1.947 2.638 4.358 4.386 5.732 1.955 1.538 4.546-.609 4.655-.701a.343.343 0 0 0 .12-.23c.073-.804-.112-1.595-.547-2.35-.725-1.254-1.891-1.968-1.94-1.998zM7.63 3.463l-.235.876a5.563 5.563 0 0 1 3.929 6.806l.877.235A6.471 6.471 0 0 0 7.63 3.463z"/>
        <path d="M14.647 4.69A9.8 9.8 0 0 0 8.655.093L8.42.97a8.901 8.901 0 0 1 5.441 4.173 8.9 8.9 0 0 1 .893 6.799l.877.234a9.801 9.801 0 0 0-.984-7.487z"/>
    </g>
</svg>
